<?xml version="1.0" standalone="no"?>
<!DOCTYPE svg PUBLIC "-//W3C//DTD SVG 20010904//EN"
 "http://www.w3.org/TR/2001/REC-SVG-20010904/DTD/svg10.dtd">
<svg version="1.0" xmlns="http://www.w3.org/2000/svg"
 width="1200.000000pt" height="1200.000000pt" viewBox="0 0 1200.000000 1200.000000"
 preserveAspectRatio="xMidYMid meet">

<g transform="translate(0.000000,1200.000000) scale(0.100000,-0.100000)"
fill="#000000" stroke="none">
<path d="M4605 9414 c-33 -8 -103 -36 -155 -61 -78 -39 -109 -61 -176 -128
-65 -66 -89 -99 -126 -176 -26 -52 -52 -121 -59 -154 -27 -136 -7 -319 47
-427 17 -34 1243 -1971 1367 -2159 l17 -26 -130 -79 c-236 -141 -340 -241
-418 -398 -47 -94 -65 -177 -66 -293 l-1 -103 -1364 0 c-1111 0 -1362 -2
-1358 -13 3 -7 134 -202 291 -434 157 -232 286 -426 286 -433 0 -7 -129 -201
-286 -433 -157 -232 -288 -427 -291 -434 -4 -11 365 -13 2006 -13 l2012 0 145
-86 c255 -152 496 -249 909 -369 127 -36 250 -75 275 -86 25 -11 67 -25 94
-30 28 -5 80 -23 118 -40 89 -42 153 -110 248 -264 40 -66 83 -131 94 -144 48
-54 155 -77 215 -47 38 20 89 80 97 114 3 15 7 32 9 38 10 35 -24 109 -112
243 -156 239 -304 365 -500 428 -43 14 -121 40 -173 58 -52 19 -174 56 -270
84 -96 27 -206 61 -245 75 l-70 25 1393 0 c765 1 1392 5 1392 9 0 5 -130 201
-290 437 -159 235 -290 431 -290 435 0 11 559 834 569 838 15 5 21 -122 30
-703 13 -768 22 -830 134 -886 33 -17 53 -20 99 -16 82 7 128 34 157 91 24 47
25 50 12 140 -7 54 -16 296 -21 601 -5 281 -14 569 -19 640 -66 786 -272 1453
-659 2125 -101 176 -603 965 -670 1053 -113 149 -284 230 -483 230 -109 -1
-184 -19 -272 -66 -58 -31 -185 -144 -225 -202 -19 -28 -22 -29 -44 -16 -161
102 -343 136 -502 95 -169 -44 -342 -178 -412 -321 l-25 -51 -57 21 c-49 19
-77 22 -197 22 -150 -1 -197 -11 -320 -73 -56 -29 -145 -108 -176 -159 -11
-18 -24 -31 -27 -29 -4 2 -187 289 -407 637 -427 676 -471 736 -599 819 -34
22 -97 54 -141 72 -71 27 -94 31 -200 34 -82 2 -139 -2 -180 -12z m280 -399
c28 -13 69 -43 92 -67 34 -36 690 -1055 1502 -2335 95 -150 186 -284 202 -297
37 -31 102 -50 148 -42 109 17 179 140 137 239 -7 18 -134 221 -281 452 -147
230 -274 437 -281 458 -40 114 10 243 118 302 46 26 63 30 128 30 83 0 134
-20 182 -72 14 -15 144 -215 288 -443 144 -228 277 -429 296 -446 19 -17 54
-37 78 -44 147 -41 275 114 206 249 -11 22 -112 194 -226 382 -114 189 -213
361 -220 383 -23 64 -18 125 16 193 33 66 76 106 141 128 80 28 176 13 245
-40 19 -15 144 -197 314 -460 166 -257 295 -445 314 -460 45 -34 113 -49 163
-36 58 16 119 85 128 144 10 63 -3 87 -215 422 -100 159 -186 302 -191 319
-26 90 6 195 77 254 93 77 250 64 326 -26 37 -44 575 -889 657 -1032 239 -416
418 -880 512 -1329 24 -116 68 -387 69 -423 0 -5 -748 -8 -1662 -8 l-1663 1
-194 307 c-805 1270 -1807 2865 -1824 2902 -29 63 -28 169 2 231 34 71 85 125
147 155 100 49 178 52 269 9z m851 -3102 c88 -134 314 -493 314 -498 0 -3
-175 -5 -390 -5 l-389 0 -7 37 c-8 45 11 153 35 202 11 20 36 55 57 78 40 43
315 233 337 233 7 0 26 -21 43 -47z m1384 -823 l0 -120 -144 0 -144 0 -1 111
c-1 61 1 115 4 120 4 5 69 9 146 9 l139 0 0 -120z m-3370 -40 l0 -130 -225 0
-225 0 0 -70 0 -70 193 -2 192 -3 0 -115 0 -115 -192 -3 -193 -2 0 -85 0 -85
230 0 230 0 0 -125 0 -125 -375 0 -375 0 0 530 0 530 370 0 370 0 0 -130z
m2792 -22 l3 -123 78 -3 77 -3 0 -104 0 -105 -80 0 -80 0 0 -145 c0 -134 2
-147 21 -166 21 -21 40 -22 119 -3 25 5 26 4 50 -101 26 -121 29 -115 -55
-140 -199 -61 -341 -29 -396 90 -16 35 -19 67 -19 253 l0 212 -50 0 -50 0 0
104 0 105 48 3 47 3 3 123 3 122 139 0 139 0 3 -122z m-762 -118 c142 -27 263
-122 305 -240 68 -188 11 -386 -140 -490 -77 -53 -156 -72 -281 -68 -104 3
-114 5 -186 41 -88 43 -147 102 -187 187 -23 49 -26 67 -26 170 0 106 2 120
29 177 78 170 280 262 486 223z m2146 -13 c40 -21 80 -65 101 -112 16 -35 18
-77 21 -352 l3 -313 -140 0 -140 0 -3 243 c-3 212 -5 246 -21 270 -34 53 -99
48 -159 -12 l-38 -39 0 -231 0 -231 -145 0 -145 0 0 390 0 390 130 0 130 0 0
-51 0 -51 41 37 c69 62 149 86 265 80 40 -2 85 -10 100 -18z m722 -7 c28 -12
66 -38 82 -57 l30 -34 1 33 c1 18 1 41 0 51 -2 15 10 17 124 17 l126 0 -3
-407 -3 -408 -27 -57 c-51 -108 -154 -187 -293 -223 -76 -19 -224 -19 -300 0
-72 19 -164 67 -201 106 l-27 29 63 67 c35 38 67 72 70 76 4 4 33 -8 65 -28
33 -19 75 -40 95 -45 50 -14 135 -12 173 4 63 26 107 102 107 185 l0 34 -44
-41 c-113 -105 -306 -93 -424 25 -136 136 -149 406 -27 566 40 52 119 106 184
124 64 18 165 11 229 -17z m-3873 -265 c37 -151 68 -275 70 -275 1 0 34 124
71 275 l69 275 132 0 131 0 -130 -390 -130 -390 -155 2 -155 3 -129 380 c-71
209 -129 383 -129 388 0 4 65 7 144 7 l144 0 67 -275z m2345 -115 l0 -390
-145 0 -145 0 0 390 0 390 145 0 145 0 0 -390z m-2770 20 l0 -130 -232 2 -233
3 -3 114 c-1 63 0 121 2 128 4 10 55 13 236 13 l230 0 0 -130z"/>
<path d="M5640 4672 c-60 -27 -90 -81 -90 -162 0 -91 43 -152 116 -166 44 -8
102 20 131 65 30 44 32 149 5 201 -29 55 -109 85 -162 62z"/>
<path d="M8520 4661 c-65 -34 -98 -141 -69 -218 25 -67 104 -112 171 -98 17 4
48 23 69 42 38 35 39 36 39 108 0 58 -4 78 -23 106 -49 74 -120 96 -187 60z"/>
<path d="M2697 8254 c-411 -74 -756 -376 -891 -777 -78 -231 -72 -523 14 -754
69 -185 179 -344 324 -471 214 -188 467 -282 751 -283 137 0 217 11 339 46
295 85 557 307 699 590 71 141 101 247 116 408 31 323 -79 647 -305 896 -110
122 -308 248 -477 305 -166 55 -397 71 -570 40z m731 -787 l102 -102 -377
-388 -378 -387 -235 235 -235 235 102 102 103 103 125 -125 125 -125 278 278
c152 152 279 277 282 277 3 0 51 -46 108 -103z"/>
</g>
</svg>
