<?xml version="1.0" standalone="no"?>
<!DOCTYPE svg PUBLIC "-//W3C//DTD SVG 20010904//EN"
 "http://www.w3.org/TR/2001/REC-SVG-20010904/DTD/svg10.dtd">
<svg version="1.0" xmlns="http://www.w3.org/2000/svg"
 width="1536.000000pt" height="1536.000000pt" viewBox="0 0 1536.000000 1536.000000"
 preserveAspectRatio="xMidYMid meet">

<g transform="translate(0.000000,1536.000000) scale(0.100000,-0.100000)"
fill="#1FD08C" stroke="none">
<path d="M5615 13220 c-122 -17 -231 -75 -338 -181 -62 -62 -85 -94 -117 -161
-75 -161 -110 -358 -130 -733 -6 -115 -10 -1139 -10 -2601 l0 -2411 -49 -159
c-110 -357 -136 -530 -128 -834 5 -160 10 -214 30 -300 72 -304 230 -620 475
-950 159 -215 338 -425 529 -621 l103 -106 0 -1012 0 -1011 1763 0 1762 0 3
1003 3 1002 42 35 c202 171 279 266 352 437 45 103 73 217 85 333 5 52 11 492
13 977 l5 882 -192 -178 c-105 -97 -249 -231 -321 -297 -71 -66 -213 -196
-314 -289 -257 -237 -314 -288 -406 -362 -234 -188 -438 -263 -690 -250 -240
12 -442 99 -685 295 -137 111 -461 438 -564 569 -49 63 -93 110 -99 106 -6 -3
-7 -1 -3 5 3 6 -21 53 -55 104 -81 123 -181 327 -224 458 -54 169 -94 390
-116 655 -8 88 -14 901 -19 2520 -4 1315 -10 2401 -13 2415 -3 14 -11 61 -17
104 -18 121 -59 237 -110 311 -123 177 -347 274 -565 245z"/>
<path d="M6870 8750 l0 -910 -57 1 c-32 0 -110 6 -173 13 -63 7 -117 12 -119
10 -4 -4 195 -506 292 -737 27 -65 54 -116 60 -114 6 2 100 176 209 388 l198
384 -38 7 c-20 4 -93 13 -162 20 l-125 13 1 30 c2 57 65 712 94 975 17 146 41
378 55 515 14 138 28 265 31 283 l6 32 -136 0 -136 0 0 -910z m17 -592 c-3 -7
-5 -2 -5 12 0 14 2 19 5 13 2 -7 2 -19 0 -25z m0 -40 c-3 -8 -6 -5 -6 6 -1 11
2 17 5 13 3 -3 4 -12 1 -19z m0 -80 c-3 -8 -6 -5 -6 6 -1 11 2 17 5 13 3 -3 4
-12 1 -19z"/>
<path d="M7835 9165 c-153 -42 -277 -141 -340 -269 -72 -148 -68 -54 -66
-1411 2 -797 6 -1234 13 -1260 51 -198 232 -319 498 -332 140 -7 233 7 315 47
72 35 148 107 181 172 56 110 54 61 54 1373 0 810 -4 1231 -11 1271 -23 130
-67 211 -161 300 -96 91 -189 124 -337 123 -53 0 -118 -7 -146 -14z"/>
<path d="M9360 8979 c-141 -24 -296 -138 -363 -267 -76 -144 -71 -68 -75
-1216 l-3 -1028 24 18 c50 40 949 878 1015 946 l43 45 -3 534 c-3 519 -4 536
-26 600 -40 121 -136 239 -243 302 -105 62 -248 88 -369 66z"/>
</g>
</svg>
