<svg viewBox="0 0 1068 1068" fill="none" xmlns="http://www.w3.org/2000/svg">
    <path d="M423.982 471.814C420.228 467.05 416.662 462.497 412.874 458.137C403.374 447.204 393.812 436.323 384.185 425.502C381.604 422.599 381.713 420.88 385.098 418.411C390.588 414.406 395.521 409.635 400.679 405.175C411.637 395.701 422.603 386.236 433.537 376.734C440.812 370.413 448.003 363.994 455.293 357.689C468.214 346.514 481.372 335.603 494.059 324.168C501.444 317.511 508.987 311.043 516.511 304.558C524.782 297.428 532.793 290 541.399 283.243C546.784 279.015 551.555 274.016 556.778 269.572C567.107 260.782 577.273 251.801 587.609 243.018C595.302 236.481 602.837 229.702 610.422 223.009C619.415 215.072 628.573 207.322 637.53 199.345C639.765 197.355 641.083 198.179 642.634 199.958C649.611 207.961 656.643 215.917 663.601 223.936C674.428 236.414 685.16 248.977 696.059 261.391C698.18 263.807 699.7 266.811 702.869 268.687C704.594 270.121 703.836 271.586 703.368 272.901C701.01 279.533 698.395 286.066 695.512 292.487C694.671 294.36 693.735 296.416 691.247 296.375C688.865 296.337 687.767 294.433 686.806 292.588C685.788 290.637 684.853 288.638 684.877 286.035C685.772 283.706 688.008 283.023 689.158 281.19C687.632 281.949 686.682 283.516 684.646 283.795C681.96 283.046 681.47 280.659 680.16 278.988C679.629 278.311 679.152 277.313 678.187 277.567C676.921 277.9 677.031 279.151 677.189 280.129C677.701 283.285 677.924 286.465 678.07 289.951C669.075 298.698 659.357 306.204 649.994 314.119C628.653 332.161 607.249 350.129 585.842 368.092C566.359 384.441 546.923 400.845 527.476 417.236C505.087 436.105 482.602 454.861 460.309 473.845C457.29 476.416 454.174 478.874 451.252 481.559C487.854 450.762 524.456 419.963 561.054 389.161C591.712 363.358 622.302 337.474 653.081 311.814C659.781 306.229 666.529 300.692 673.084 294.931C674.43 293.747 675.7 292.475 678.008 293.05C681.221 300.12 681.873 307.566 683.553 315.092C679.977 320.641 674.619 323.953 669.982 327.991C654.707 341.294 639.139 354.258 623.733 367.412C607.428 381.334 591.124 395.259 574.731 409.078C563.539 418.512 552.438 428.052 541.293 437.542C539.936 438.697 538.555 439.8 536.788 440.895C535.042 441.488 533.775 442.184 533.182 444.085C527.829 448.908 522.657 453.505 516.869 457.84C512.179 457.732 508.544 455.261 504.548 453.852C503.441 453.462 502.419 452.83 501.237 452.64C500.493 452.521 499.699 452.479 499.252 453.186C498.771 453.946 499.292 454.625 499.779 455.16C501.673 457.246 504.102 458.709 506.187 460.576C507.565 461.81 510.037 462.944 508.831 465.041C507.624 467.139 505.332 465.523 503.614 465.004C499.1 463.638 494.63 462.113 489.998 461.186C488.951 460.976 487.403 460.216 486.919 461.729C486.513 462.997 487.906 463.737 488.876 464.379C491.231 465.939 494.073 466.478 496.483 467.914C497.921 468.77 500.363 469.322 499.661 471.462C499.097 473.183 496.893 472.616 495.294 472.493C494.159 472.406 493.007 471.775 491.847 472.62C491.541 474.247 493.362 474.639 493.866 476.137C493.992 477.351 493.551 478.022 492.746 478.603C493.78 478.401 494.43 477.584 495.662 477.336C496.254 477.251 496.554 477.228 496.832 477.307C498.814 477.869 501.467 478.442 501.464 480.644C501.461 483.189 498.541 482.116 496.924 482.697C496.634 482.801 496.393 482.933 496.053 483.452C500.268 487.539 506.577 487.186 511.364 490.636C512.096 492.858 510.675 493.925 509.499 494.957C500.183 503.126 490.83 511.255 481.37 519.256C479.676 520.689 478.033 522.16 476.44 523.697C472.702 527.304 472.106 527.263 468.737 523.485C461.568 515.448 454.648 507.194 447.215 498.969C439.639 489.618 431.835 480.882 423.982 471.814Z" fill="#073A4D"/>
    <path d="M713.504 596.997C718.172 627.625 706.809 652.255 685.289 673.056C683.923 674.376 682.35 675.482 680.589 676.771C674.664 672.517 670.556 666.711 665.916 661.454C655.79 649.98 645.546 638.608 635.51 627.052C630.88 621.721 626.449 616.206 621.254 610.949C613.9 601.736 605.752 593.629 598.522 584.728C597.509 583.481 596.195 582.435 596.073 580.351C598.966 576.745 597.879 574.102 595.489 570.81C582.85 553.399 570.971 535.454 558.736 517.385C558.191 514.615 559.667 512.87 560.941 511.076C564.874 505.537 569.306 500.393 573.852 494.928C574.267 494.588 574.453 494.477 574.955 494.3C578.284 494.721 579.573 497.473 581.924 499.338C587.392 503.424 591.435 508.62 596.823 512.783C603.784 519.303 610.213 525.902 615.781 533.984C613.994 530.262 610.596 528.135 609.85 524.029C608.523 517.709 608.728 511.644 608.774 505.211C608.809 503.578 608.796 502.321 609.345 500.778C611.041 498.693 612.785 499.811 614.435 500.164C624.214 502.26 632.741 496.843 634.377 487.457C636.022 478.016 629.441 469.461 619.693 468.385C618.662 468.272 617.622 468.242 616.379 467.569C615.405 463.612 618.459 463.076 621.118 461.819C633.358 461.015 644.088 456.517 654.97 451.407C662.821 448.826 670.569 448.843 678.368 449.492C677.585 449.4 676.79 449.408 675.863 448.709C676.014 446.558 677.684 446.677 679.014 446.363C682.249 445.602 685.58 445.409 689.209 444.763C694.54 445.018 697.506 442.281 699.647 438.183C704.425 429.038 706.272 419.218 705.532 409.061C704.901 400.399 703.717 391.738 700.018 383.311C698.895 374.959 695.416 367.671 693.16 360.023C692.367 357.335 691.097 354.78 690.908 351.585C691.377 348.906 693.271 347.995 695.107 347.067C700.217 344.486 705.556 342.429 710.836 340.237C712.174 339.682 713.67 339.408 714.856 337.927C715.235 337.535 715.409 337.401 715.913 337.277C717.451 340.047 718.661 342.806 719.939 345.901C719.371 347.465 718.211 348.165 717.21 349.035C711.867 353.683 710.141 360.97 712.898 367.13C715.812 373.642 722.141 376.973 729.619 375.914C730.497 375.79 731.363 375.57 732.585 375.811C738.809 386.949 742.184 398.785 743.535 411.619C745.119 417.064 744.263 422.357 745.048 427.875C744.278 431.359 744.795 434.724 742.856 437.905C741.543 444.745 739.051 450.779 735.583 456.85C735.553 458.298 735.064 459.214 734.504 460.09C727.025 471.809 718.827 483.035 710.947 494.479C710.442 495.213 709.819 495.851 708.607 496.159C706.115 495.448 705.689 493.459 705.222 491.631C704.012 486.897 702.273 482.338 700.774 477.698C703.501 486.206 706.588 494.62 707.749 503.894C708.187 507.335 708.209 510.455 707.994 513.936C708.938 527.014 709.965 539.735 710.973 552.458C711.287 556.425 711.548 560.396 711.792 564.735C710.584 566.096 709.235 565.83 707.96 565.53C698.182 563.227 688.112 574.392 691.957 585.716C694.735 593.899 702.115 598.335 710.557 597.06C711.431 596.928 712.298 596.759 713.504 596.997Z" fill="#1FD08C"/>
    <path d="M479.686 766.447C477.962 768.498 476.476 770.356 474.895 772.504C474.797 774.288 473.991 775.287 472.58 776.232C471.813 777.216 471.259 778.011 470.701 779.102C470.486 779.455 470.276 779.512 469.75 779.496C463.394 773.753 458.857 766.825 453.641 760.471C444.485 749.318 435.685 737.88 426.786 726.522C426.145 725.703 425.555 724.867 425.315 723.505C425.27 721.243 426.558 719.934 427.607 718.525C432.018 712.595 436.404 706.645 441.092 700.928C442.125 699.669 443.251 698.471 443.388 696.407C445.009 692.144 448.85 690.354 451.72 687.693C460.962 679.121 471.09 671.787 483.287 666.835C473.088 670.419 464.858 676.411 456.889 682.832C453.325 685.704 449.92 688.76 446.622 691.932C445.321 693.184 443.965 694.292 441.707 694.28C436.799 691.749 434.009 687.464 430.805 683.638C418.849 669.361 409.162 653.803 403.058 636.039C390.871 600.573 416.431 565.085 450.409 560.863C456.121 560.153 461.612 560.786 467.162 561.169C480.549 562.094 493.993 562.328 507.626 564.394C511.774 570.328 513.032 577.102 515.08 583.522C520.827 601.537 526.731 619.502 532.556 637.492C533.327 639.874 534.283 642.223 534.086 645.131C531.68 647.727 529.506 645.873 527.517 645.028C511.394 638.172 495.335 631.166 479.788 622.333C479.306 622.084 479.115 621.982 478.651 621.709C478.029 621.295 477.686 621.045 477.094 620.606C472.526 616.593 469.177 611.829 465.52 608.751C469.638 613.331 475.037 618.16 478.3 625.074C484.183 637.366 490.486 649.094 496.394 661.023C497.643 663.544 499.631 663.548 502.034 663.012C512 660.789 521.96 658.533 531.941 656.376C533.524 656.034 535.079 655.443 537.064 655.955C539.213 657.411 539.598 659.527 540.229 661.469C543.606 671.873 546.824 682.328 550.406 693.031C550.59 693.818 550.657 694.273 550.723 695.07C550.113 708.679 542.967 718.551 533.863 727.302C531.653 729.426 529.194 731.336 526.603 733.557C526.196 733.91 526.023 734.039 525.569 734.321C524.718 734.737 524.13 734.962 523.315 735.43C512.575 740.268 502.488 745.577 493.658 753.043C491.406 754.947 489.236 756.888 487.222 759.451C484.088 761.264 482.993 764.828 479.686 766.447Z" fill="#FE6B6B"/>
    <path d="M707.707 496.749C717.014 483.537 726.085 470.517 735.293 457.346C754.772 446.649 769.382 431.274 780.555 412.525C793.599 390.635 800.667 366.653 804.584 341.655C809.84 308.121 809.205 274.52 805.357 240.477C805.961 236.112 809.696 234.853 812.13 232.53C815.694 229.13 815.975 229.008 812.767 225.183C808.803 220.459 804.523 216.006 800.698 211.161C800.062 210.355 799.338 209.606 799.171 208.238C799.428 200.785 796.546 194.223 795.366 187.343C794.277 180.991 791.802 175.001 791.338 168.431C790.899 162.206 797.057 154.624 802.766 153.237C810.193 151.431 817.967 154.118 821.595 160.308C825.082 166.259 825.859 173.077 827.485 179.566C832.482 199.501 835.902 219.759 838.208 240.17C839.531 251.884 840.051 263.688 841.023 275.837C841.089 276.605 841.082 276.988 841.124 277.658C840.931 290.209 841.168 302.474 840.329 314.737C837.95 349.537 831.469 383.36 816.222 415.001C802.024 444.463 781.413 468.294 752.954 484.955C741.021 491.941 728.43 497.336 715.082 500.97C713.409 501.426 711.808 502.147 709.823 502.75C707.364 501.312 706.795 499.341 707.707 496.749Z" fill="#F3F2F6"/>
    <path d="M425.364 722.928C439.801 742.056 454.897 760.32 469.929 779.045C470.703 781.748 469.853 783.618 467.395 785.09C465.26 788.309 463.385 791.321 461.436 794.639C461.054 797.839 459.646 800.097 457.069 801.941C456.258 802.748 455.751 803.469 455.157 804.443C453.387 809.799 450.266 813.984 446.352 817.931C443.791 821.071 441.539 824.143 439.16 827.5C439.3 829.47 437.944 830.185 436.744 831.267C436.168 831.397 435.972 831.551 435.866 832.036C434.751 834.944 433.525 837.569 430.648 839.251C428.386 841.489 426.437 843.736 424.419 846.279C423.35 848.007 423.247 850.131 420.878 850.842C420.107 851.395 419.611 851.824 419.058 852.499C417.938 854.708 417.025 856.771 415.082 858.508C408.086 865.661 400.929 872.159 392.915 877.66C391.595 878.566 390.329 879.63 388.327 879.733C386.951 880.189 385.877 880.711 384.514 881.446C383.621 883.496 382.215 883.581 380.485 882.969C380.199 882.765 380.07 882.897 380.134 882.831C378.325 882.293 378.118 880.533 377.538 878.779C377.338 877.996 377.118 877.517 376.66 876.916C374.027 875.479 372.995 873.208 372.139 870.462C371.154 868.569 370.34 866.903 369.273 865.42C368.248 863.997 368.624 863.125 370.087 862.089C370.524 861.261 370.838 860.698 371.781 860.464C373.87 859.272 375.641 858.029 377.631 856.54C379.78 853.164 383.223 851.802 385.838 849.472C388.317 847.262 388.243 846.258 385.156 845.398C381.172 844.289 377.106 843.52 372.637 844.723C370.257 845.103 368.196 845.379 365.871 844.387C364.557 844.345 363.506 844.309 362.559 844.604C359.563 845.536 357.5 844.734 356.226 841.465C353.945 840.096 353.014 838.233 352.604 835.706C349.153 827.265 343.545 820.407 339.427 812.664C334.578 803.546 329.141 794.742 324.004 785.775C319.863 778.545 315.825 771.255 311.667 764.034C310.176 761.444 310.154 760.261 313.759 760.295C322.176 760.373 330.487 761.12 339.059 762.998C342.674 761.597 345.462 763.382 348.32 764.332C356.019 766.891 362.716 771.772 370.567 774.018C372.985 774.71 375.352 775.535 378.231 774.918C384.23 774.52 387.088 770.008 390.485 766.498C394.975 761.857 398.866 756.671 402.86 751.592C403.613 750.634 404.075 749.593 404.234 748.081C404.451 747.39 404.671 747.043 405.19 746.542C407.211 745.241 406.468 743.762 405.845 742.481C402.321 735.232 400.962 727.064 396.348 719.943C396.332 719.184 396.431 718.759 396.728 718.042C398.027 714.814 396.818 711.18 399.906 708.626C400.72 708.525 401.134 708.698 401.647 709.333C399.885 720.074 405.544 728.274 409.899 736.851C410.331 737.703 410.698 739.009 412.034 738.593C413.174 738.239 413.223 736.999 413.312 735.992C413.601 732.756 413.332 729.555 412.787 726.348C412.395 724.034 412.345 721.671 413.06 719.053C413.397 718.641 413.578 718.52 414.082 718.387C416.768 719.95 416.479 722.46 416.577 724.78C416.671 727.011 417.42 729.145 417.358 731.566C420.608 729.097 421.268 724.545 425.364 722.928Z" fill="#020202"/>
    <path d="M798.947 207.794C804.504 214.065 809.675 220.306 815.132 226.285C817.295 228.656 817.025 229.967 814.611 231.807C811.455 234.213 808.583 236.991 805.432 239.831C795.853 248.15 786.334 256.139 777.07 264.414C774.444 266.76 773.133 266.64 770.856 263.998C745.163 234.182 719.305 204.507 693.61 174.692C690.238 170.778 686.329 167.411 683.067 163.367C680.929 160.717 681.868 159.346 683.704 157.7C689.488 152.513 695.281 147.336 701.133 142.227C707.052 137.06 713.136 132.08 718.979 126.831C724.125 122.208 724.192 121.946 728.496 126.873C743.625 144.19 758.615 161.628 773.683 178.999C781.988 188.574 790.343 198.107 798.947 207.794Z" fill="#1F546A"/>
    <path d="M339.687 514.503C340.67 507.795 343.127 501.836 344.925 495.701C349.351 480.603 354.045 465.584 358.655 450.541C360.414 444.8 362.406 439.124 363.957 433.328C364.648 430.743 365.521 431.188 366.76 432.608C377.008 444.364 387.218 456.152 397.441 467.929C400.332 471.259 403.229 474.583 406.392 478.081C412.087 481.736 415.163 487.431 419.498 491.946C423.253 495.858 426.456 500.282 430.625 504.284C439.615 514.352 448.086 524.428 456.76 534.327C461.083 539.26 460.451 540.744 454.094 541.82C445.05 543.351 435.96 544.597 426.903 546.052C409.815 548.797 392.725 551.524 375.243 554.061C374.419 554.182 373.947 554.199 373.127 554.132C371.343 553.741 370.011 553.087 368.615 552.626C365.133 551.476 363.372 549.503 364.821 545.654C365.952 542.652 364.687 540.925 361.726 540.047C357.95 538.927 355.803 536.464 355.548 532.376C355.381 529.688 354.35 527.04 351.201 527.262C343.955 527.771 342.042 522.739 340.19 517.437C339.895 516.593 339.88 515.698 339.687 514.503Z" fill="#1FD08C"/>
    <path d="M372.071 553.081C372.908 553.177 373.378 553.188 374.197 553.244C375.434 555.2 374.285 556.742 373.532 558.288C363.544 578.814 358.773 600.592 357.09 623.273C354.051 664.23 360.028 704.115 370.486 743.53C372.991 752.972 375.674 762.364 378.98 771.565C379.38 772.678 379.813 773.795 379.27 775.345C374.012 777.495 369.627 775.077 365.205 773.314C358.277 770.553 351.954 766.393 344.707 764.354C343.159 763.919 341.591 763.559 339.733 763.058C340.105 758.782 337.726 755.28 336.823 751.465C333.469 737.294 330.193 723.127 327.592 708.778C325.738 698.547 324.276 688.252 323.277 677.973C321.756 662.308 322.043 646.509 322.318 630.749C322.716 607.919 326.732 585.734 333.851 564.08C334.303 562.705 335.032 561.422 335.736 559.763C336.25 558.338 337.169 557.837 338.205 557.699C349.382 556.212 360.351 553.232 372.071 553.081Z" fill="#F8F7FC"/>
    <path d="M524.891 734.007C525.195 733.973 525.443 734.001 525.523 733.905C531.72 729.887 538.772 729.51 546.02 728.562C548.617 729.444 549.792 731.124 550.291 733.757C554.374 739.829 558.374 745.554 562.639 751.417C564.313 752.173 564.813 753.471 565.428 755.042C564.925 759.55 560.806 760.991 558.51 764.243C556.643 768.167 554.522 771.436 549.912 772.079C549.688 771.526 549.557 771.289 549.084 771.079C547.962 770.462 546.8 770.165 546.559 768.569C545.241 766.557 543.878 764.873 542.249 763.075C540.474 762.219 538.973 761.263 537.101 762.856C534.622 767.909 534.725 773.231 535.828 778.195C537.05 783.694 535.909 787.588 531.355 790.704C530.276 791.442 529.429 792.521 528.354 793.709C527.252 796.278 525.857 798.2 523.135 799.154C521.421 800.393 520.009 801.656 518.489 803.176C517.606 806.364 515.094 807.522 512.552 809.09C509.089 812.269 505.871 815.257 502.548 818.515C500.87 822.266 498.391 824.879 494.677 826.486C490.481 830.082 486.631 833.841 482.629 837.431C481.706 838.259 481.215 840.1 479.034 839.302C478.34 838.954 478.059 838.662 477.869 837.955C477.843 837.487 477.825 837.334 477.657 837.005C476.849 836.202 476.017 835.691 476.084 834.347C472.133 821.946 473.756 809.841 476.358 797.372C475.557 794.873 475.874 792.92 477.559 790.909C478.721 787.955 479.618 785.226 480.516 782.153C480.393 780.995 480.331 780.19 481.14 779.312C481.694 778.449 481.999 777.759 482.3 776.775C482.103 775.253 482.086 774.079 483.48 773.061C484.143 771.634 484.59 770.411 485.102 768.868C484.48 765.596 485.257 762.78 486.12 759.627C492.777 751.055 501.445 745.578 510.468 740.637C514.317 738.529 518.468 736.974 522.729 734.974C523.356 734.194 524.027 734.239 524.891 734.007Z" fill="#020202"/>
    <path d="M710.044 256.811C706.202 250.597 701.032 245.842 696.518 240.55C684.396 226.335 672.01 212.345 659.761 198.239C656.249 194.194 652.845 190.054 649.237 185.775C656.402 179.556 663.681 173.287 670.899 166.949C673.499 164.666 674.577 167.086 675.805 168.491C687.462 181.833 699.06 195.225 710.676 208.602C728.217 228.803 745.714 249.044 763.361 269.153C765.516 271.608 765.585 272.818 762.966 274.931C756.875 279.846 751.01 285.05 745.219 290.319C743.174 292.179 741.86 292.655 740.06 290.091C738.455 287.806 736.408 285.832 734.36 283.479C732.729 281.073 735.049 279.026 734.438 276.949C734.125 276.675 733.854 276.642 733.543 276.763C732.006 277.361 730.9 279.908 729.046 278.556C727.414 277.366 728.516 275.273 728.854 273.577C729.278 271.45 730.134 269.356 729.345 266.791C726.838 267.48 726.428 270.196 724.228 271.241C723.718 271.323 723.508 271.313 723.014 271.168C721.24 268.835 722.519 266.777 723.06 264.686C723.818 261.753 725.515 259.001 724.972 255.362C720.943 256.656 721.103 260.951 718.327 263.11C715.307 263.491 714.246 261.092 712.31 259.516C711.424 258.583 710.704 257.904 710.044 256.811Z" fill="#241A01"/>
    <path d="M94.0702 635.14C93.6412 634.108 93.294 633.383 92.7674 632.491C91.0941 631.898 90.498 630.857 90.6572 629.05C85.3684 618.232 83.6901 606.825 85.2165 595.457C88.5837 570.379 105.341 550.269 131.585 544.792C151.62 540.612 169.705 545.348 184.847 559.113C207.032 579.28 210.897 613.073 192.779 637.924C182.862 651.525 169.317 659.677 153.063 662.374C145.068 663.7 136.501 663.273 128.016 660.862C125.852 660.986 124.177 660.708 122.533 659.267C122.147 658.391 121.713 658.16 120.814 658.188C117.001 657.801 114.423 655.727 111.814 653.128C111.257 652.525 110.881 652.178 110.261 651.735C107.299 651.607 105.669 649.98 104.435 647.513C103.294 645.993 102.13 644.771 100.708 643.364C98.4916 643.549 98.427 641.787 97.7431 640.456C97.7681 640.162 97.6283 640.125 97.6998 640.114C95.5595 639.332 94.2786 637.837 94.0702 635.14Z" fill="white"/>
    <path d="M723.545 271.145C724.965 269.298 726.139 267.625 727.416 266.033C728.124 265.151 728.908 263.972 730.269 264.572C731.432 265.086 731.132 266.388 730.997 267.321C730.477 270.91 729.811 274.478 729.152 278.33C731.405 277.929 731.798 275.865 733.164 274.955C733.915 274.455 734.675 273.876 735.56 274.342C736.537 274.857 736.277 275.887 736.063 276.686C735.535 278.662 734.875 280.602 734.215 282.897C731.692 287.818 729.329 292.447 727.88 297.802C726.919 301.602 724.831 304.532 723.031 307.942C722.827 308.181 722.848 308.143 722.87 308.142C722.773 308.273 722.653 308.404 722.298 308.658C719.558 313.419 717.596 318.29 715.749 323.216C714.058 327.728 714.893 332.135 716.175 336.918C716.068 337.437 715.894 337.587 715.47 337.974C707.209 341.59 699.296 345.197 690.928 348.358C688.526 345.873 688.621 342.667 687.314 339.632C685.68 332.74 683.917 326.237 682.285 319.337C682.083 318.271 682.171 317.574 682.605 316.575C681.081 308.584 679.415 300.92 677.616 292.9C677.024 292.042 676.93 291.462 677.264 290.548C676.918 286.634 676.355 283.003 675.975 279.352C675.824 277.896 675.974 276.176 677.601 275.591C679.211 275.012 679.889 276.551 680.589 277.637C681.785 279.491 682.9 281.397 684.292 283.484C685.133 283.919 685.487 284.359 685.581 285.273C685.681 288.448 687.092 290.892 688.45 293.286C690.416 296.75 692.148 296.723 693.883 293.084C697.533 285.428 700.701 277.565 703.154 269.146C704.154 265.866 705.318 262.916 706.132 259.873C706.614 258.068 707.545 257.084 709.612 256.615C711.239 255.899 711.394 257.287 712.14 257.994C714.263 264.358 712.414 270.085 711.304 275.099C713.173 272.158 713.689 267.42 716.941 263.763C718.575 261.132 719.839 258.629 721.311 256.255C722.183 254.85 722.943 252.536 725.173 253.54C727.196 254.45 726.53 256.706 726.138 258.327C725.203 262.184 723.969 265.968 722.855 270.111C723.13 271.769 721.771 272.662 721.902 274.227C722.005 272.876 722.589 272.069 723.545 271.145Z" fill="#FE6B6B"/>
    <path d="M388.227 880.034C397.648 873.717 406.001 866.252 414.033 857.962C416.581 858.768 416.817 860.847 417.125 863.21C417.344 864.268 417.589 864.986 418.02 865.926C422.476 871.554 424.436 878.019 426.464 884.713C426.355 885.024 426.41 885.439 426.571 885.574C428.887 887.016 429.367 889.129 429.394 891.74C429.677 894.659 429.86 897.258 429.374 900.256C429.052 905.967 425.969 909.207 421.058 911.309C420.251 911.41 419.765 911.524 419.093 911.805C418.125 913.742 416.647 913.399 414.861 913.113C413.875 912.99 413.241 912.945 412.293 912.957C410.898 913.359 409.842 913.416 408.622 912.506C405.369 910.746 402.402 909.14 400.076 906.176C398.509 905.513 397.937 904.476 397.856 902.821C397.519 901.454 397.126 900.395 396.566 899.108C394.167 897.684 393.799 895.505 393.542 892.986C393.62 892.663 393.525 892.237 393.378 892.075C391.06 889.164 388.89 886.414 389.032 882.301C388.739 881.47 388.584 880.935 388.227 880.034Z" fill="#F8F7FA"/>
    <path d="M977.811 401.58C990.327 413.515 997.151 427.737 998.398 444.757C999.836 464.383 993.443 481.224 980.066 495.207C970.983 504.702 959.687 510.687 946.615 513.653C936.076 516.044 925.597 515.861 915.598 513.053C900.329 508.764 887.73 499.971 878.737 486.451C873.079 477.945 868.842 468.689 867.903 458.705C866.072 439.232 870.38 421.397 883.886 406.142C895.431 393.101 909.535 386.216 926.63 384.517C946.173 382.575 963.024 388.485 977.811 401.58Z" fill="white"/>
    <path d="M363.229 234.998C358.114 224.543 363.703 214.285 370.322 210.218C381.217 203.525 395.631 207.548 400.268 220.632C404.327 232.084 396.944 243.955 384.72 246.639C375.625 248.637 365.525 242.017 363.229 234.998Z" fill="white"/>
    <mask id="path-16-inside-1_18_279" fill="white">
    <path d="M372.237 552.971C360.413 555.124 348.388 557.082 336.102 559.235C332.232 559.747 328.624 560.063 324.851 560.393C330.292 545.137 333.714 529.547 339.652 514.459C340.288 515.402 341.129 516.582 341.419 517.884C342.743 523.833 346.114 526.934 352.433 526.403C354.933 526.192 356.243 527.381 356.151 530.013C355.952 535.728 358.899 538.906 364.368 539.915C366.635 540.334 367.071 541.513 366.593 543.682C365.115 550.387 365.189 550.403 372.237 552.971Z"/>
    </mask>
    <path d="M372.237 552.971C360.413 555.124 348.388 557.082 336.102 559.235C332.232 559.747 328.624 560.063 324.851 560.393C330.292 545.137 333.714 529.547 339.652 514.459C340.288 515.402 341.129 516.582 341.419 517.884C342.743 523.833 346.114 526.934 352.433 526.403C354.933 526.192 356.243 527.381 356.151 530.013C355.952 535.728 358.899 538.906 364.368 539.915C366.635 540.334 367.071 541.513 366.593 543.682C365.115 550.387 365.189 550.403 372.237 552.971Z" fill="black" stroke="#241A01" stroke-width="1.77833" mask="url(#path-16-inside-1_18_279)"/>
    <path d="M678.282 678.683C678.473 680.875 681.967 682.313 678.744 684.753C678.083 685.093 677.714 685.052 677.186 684.531C676.642 683.569 676.472 682.77 675.885 681.827C656.813 659.576 637.489 637.947 618.096 615.941C610.401 606.93 602.389 598.632 595.117 589.69C593.262 587.41 590.992 586.106 588.042 585.572C566.518 581.678 545.027 577.603 523.517 573.634C518.312 572.673 518.251 572.743 519.734 577.706C531.029 615.514 542.95 653.13 554.428 691.243C555.705 695.541 557.243 699.399 558.177 703.437C558.867 706.426 560.389 707.63 563.591 706.856C577.111 703.589 590.512 699.967 603.323 694.447C607.142 692.801 610.628 690.582 614.013 688.18C617.635 685.61 618.892 682.378 618.257 677.843C616.841 667.737 617.557 657.78 621.978 648.35C622.541 647.149 622.938 645.852 624.003 644.961C624.739 644.344 625.584 644.167 626.465 644.603C627.426 645.078 627.504 645.963 627.35 646.878C627.152 648.056 626.553 649.097 626.127 650.198C622.552 659.455 620.429 668.873 623.1 678.786C624.469 683.869 621.787 687.325 618.387 690.4C613.485 694.835 607.491 697.458 601.519 700.032C590.349 704.847 578.666 708.073 566.851 710.83C560.97 712.203 560.821 712.318 562.747 718.234C563.8 721.469 564.615 724.771 565.704 728.335C566.459 732.026 569.388 730.368 571.553 731.194C572.253 731.503 572.559 731.805 572.753 732.509C570.269 733.3 567.828 733.761 565.064 734.33C561.819 734.22 562.55 731.402 561.369 729.53C558.155 717.495 554.105 706.079 550.709 694.098C538.564 654.896 526.769 615.956 514.701 577.099C511.837 567.877 512.664 566.963 522.099 568.788C544.453 573.11 566.889 576.993 589.252 581.274C592.892 581.971 595.591 583.557 597.844 586.203C605.037 594.648 612.585 602.782 619.979 611.497C629.602 622.919 639.455 633.69 649.083 644.66C658.516 655.409 667.9 666.203 677.496 676.808C677.897 677.251 678.152 677.785 678.282 678.683Z" fill="#05081D"/>
    <mask id="path-18-inside-2_18_279" fill="white">
    <path d="M713.9 596.753C704.036 601.656 694.861 595.007 691.703 588.154C687.955 580.019 690.734 570.823 698.275 566.157C702.413 563.597 706.68 563.944 711.411 565.085C712.494 575.539 713.237 585.973 713.9 596.753Z"/>
    </mask>
    <path d="M713.9 596.753C704.036 601.656 694.861 595.007 691.703 588.154C687.955 580.019 690.734 570.823 698.275 566.157C702.413 563.597 706.68 563.944 711.411 565.085C712.494 575.539 713.237 585.973 713.9 596.753Z" fill="white" stroke="black" stroke-width="1.77833" mask="url(#path-18-inside-2_18_279)"/>
    <path d="M429.875 504.635C422.011 495.907 414.472 487.315 406.797 478.487C412.244 476.263 417.371 473.132 423.531 471.596C425.339 471.431 425.865 472.648 426.601 473.496C433.537 481.483 440.446 489.492 447.462 497.769C447.266 498.974 446.544 499.568 445.692 499.772C440.395 501.035 435.617 503.896 429.875 504.635Z" fill="white"/>
    <path d="M598.422 811.745C596.494 813.682 594.881 815.543 593.177 817.677C592.23 820.065 591.635 822.383 588.773 823.294C587.337 824.69 586.19 825.97 584.905 827.506C583.842 831.279 582.119 834.158 578.301 835.748C577.752 836.228 577.446 836.516 577.051 837.001C575.964 840.824 573.748 843.485 570.245 845.508C569.428 846.246 568.876 846.811 568.229 847.601C568.031 849.213 567.276 850.123 565.772 850.84C563.754 853.004 562.006 855.011 560.186 857.288C559.93 859.434 558.92 860.667 556.909 861.499C556.266 862.036 555.891 862.405 555.397 863.016C555.741 865.374 554.061 865.893 552.493 866.846C551.681 867.605 551.106 868.19 550.432 869.006C549.414 872.554 547.367 875.019 544.236 876.893C543.369 877.489 542.812 878.09 542.107 878.962C542.392 881.57 540.482 882.771 539.223 883.966C535.839 887.178 534.264 892.054 529.512 894.383C528.399 894.953 528 896.341 526.495 895.626C525.454 893.174 527.068 892.306 528.913 891.223C530.778 889.214 532.379 887.403 534.123 885.319C534.725 881.524 537.37 879.566 539.998 877.553C541.131 876.78 541.994 875.86 543.005 874.658C542.647 872.022 544.647 870.935 545.82 869.605C549.897 864.984 553.017 859.495 558.435 855.692C559.369 854.88 560.02 854.2 560.789 853.26C561.298 849.626 563.947 847.968 566.501 845.916C567.059 845.769 567.258 845.626 567.432 845.202C569.481 840.35 572.538 836.537 576.975 833.459C577.225 833.274 577.375 833.181 577.384 833.094C579.566 827.574 583.966 823.759 587.535 819.373C589.335 817.161 590.729 814.353 593.944 813.047C594.507 812.629 594.788 812.356 595.112 811.882C596.635 807.067 600.134 804.046 603.899 800.938C604.211 800.886 604.221 800.795 604.248 800.757C605.552 796.871 608.135 794.079 611.708 791.719C612.356 791.206 612.732 790.84 613.226 790.233C612.907 787.288 615.348 786.3 616.605 784.639C619.342 781.022 621.977 777.309 625.549 774.358C625.805 774.548 625.82 774.399 625.889 774.371C625.279 772.494 626.994 772.198 628.229 771.422C629.593 770.395 630.616 769.317 631.783 767.992C631.741 763.254 635.723 761.694 638.355 758.844C647.104 749.624 654.674 739.79 662.584 730.241C674.286 716.117 686.105 702.089 697.954 688.089C698.731 687.171 699.237 685.153 702.018 686.431C679.62 713.372 657.372 740.134 635.005 767.167C634.214 769.602 633.294 771.573 630.761 772.665C630.219 773.148 629.907 773.439 629.527 773.939C628.084 777.496 626.128 780.377 622.681 782.448C622.138 782.901 621.85 783.171 621.494 783.633C619.796 789.093 615.541 792.499 612.109 796.406C610.735 797.971 609.695 800.084 607.286 801.087C606.199 802.021 605.424 802.884 604.582 803.988C603.675 807.552 601.552 809.879 598.422 811.745Z" fill="#02040F"/>
    <path d="M290.088 199.603C293.801 195.127 297.253 190.827 300.652 186.487C301.421 185.506 302.465 185.108 303.259 185.883C304.085 186.689 302.945 187.415 302.429 188.033C290.348 202.504 278.247 216.96 266.158 231.425C250.768 249.841 235.378 268.258 220.001 286.685C208.598 300.35 197.219 314.035 185.825 327.707C172.738 343.411 159.662 359.123 146.548 374.804C142.469 379.681 138.281 384.467 133.367 390.201C133.493 384.704 136.96 382.622 139.097 380.022C153.243 362.82 167.719 345.889 181.987 328.787C198.758 308.687 215.24 288.343 232.208 268.411C242.743 256.035 252.87 243.32 263.74 231.213C272.83 221.09 281.148 210.274 290.088 199.603Z" fill="#2A2A2A"/>
    <path d="M902.151 724.598C942.56 675.955 982.362 627.222 1022.75 578.981C1023.28 579.421 1023.8 579.861 1024.33 580.302C974.657 640.417 924.982 700.533 875.307 760.648C874.823 760.266 874.34 759.884 873.856 759.501C882.655 747.515 892.603 736.413 902.151 724.598Z" fill="#2A2A2A"/>
    <path d="M158.047 404.401C147.626 417.182 137.428 429.734 127.204 442.264C111.878 461.045 96.5402 479.815 81.1911 498.576C78.8615 501.424 76.4662 504.219 74.0455 506.989C73.5906 507.51 72.7439 508.123 72.1298 507.58C70.8655 506.463 72.2313 505.798 72.8463 505.112C79.6049 497.575 85.8292 489.573 92.1738 481.714C100.037 471.974 108.054 462.354 115.915 452.61C122.687 444.216 129.63 435.952 136.521 427.656C143.185 419.635 149.669 411.448 156.296 403.383C167.697 389.508 178.964 375.522 190.278 361.576C196.456 353.96 202.594 346.312 208.808 338.724C209.766 337.554 210.69 335.892 213.276 337.099C194.864 359.542 176.56 381.851 158.047 404.401Z" fill="#2A2A2A"/>
    <path d="M609.353 761.109C608.705 761.64 608.309 761.995 607.798 762.596C608.071 765.057 606.346 765.831 604.665 766.831C604.082 766.929 603.884 767.124 603.711 767.616C603.259 770.313 601.692 771.918 599.324 773.202C599.013 773.25 598.985 773.354 598.967 773.404C598.66 776.221 596.594 777.789 594.577 779.364C594.326 779.168 594.284 779.321 594.219 779.366C594.448 781.365 592.91 781.973 591.36 782.808C590.758 782.912 590.55 783.102 590.36 783.595C590.095 786.765 587.636 788.297 586.011 790.286C581.847 795.384 578.123 800.886 572.669 805.187C572.358 805.246 572.34 805.343 572.32 805.389C570.722 809.825 567.62 813.015 563.778 815.89C563.47 815.916 563.455 816.011 563.434 816.055C562.314 820.286 559.054 822.985 556.348 825.989C551.647 831.206 547.748 837.11 542.267 841.934C541.823 842.027 541.695 842.106 541.458 842.381C541.794 842.843 541.931 843.317 541.64 843.649C535.471 850.685 530.153 858.455 523.006 864.935C522.693 864.952 522.896 864.997 522.792 864.995C520.025 870.172 516.571 874.701 511.613 878.385C510.946 878.917 510.535 879.275 510.01 879.884C510.447 882.584 508.188 883.22 506.72 884.583C506.28 884.676 506.153 884.754 505.918 885.029C506.477 885.671 506.273 886.246 505.892 886.676C500.955 892.248 496.495 898.22 491.486 903.729C490.985 904.279 490.287 904.55 489.365 905.036C488.81 905.47 488.524 905.745 488.194 906.225C486.983 909.98 484.805 912.727 481.319 914.802C480.419 915.246 479.805 915.551 478.928 915.86C477.571 914.693 478.222 913.815 479.47 912.865C479.791 912.746 479.77 912.684 479.796 912.664C479.861 910.794 481.058 909.855 482.803 908.985C483.356 908.536 483.67 908.264 484.057 907.787C484.084 905.965 484.852 904.874 486.607 904.223C487.467 903.631 488.021 903.039 488.728 902.179C488.371 900.286 489.721 899.926 490.929 899.154C491.72 898.468 492.247 897.916 492.867 897.153C494.507 892.912 497.251 889.805 500.836 887.054C501.149 887.004 501.119 886.944 501.145 886.923C502.943 882.281 506.677 879.13 510.003 875.646C510.27 875.818 510.307 875.672 510.378 875.647C510.409 872.902 512.629 872.121 514.669 870.786C516.145 869.182 517.384 867.774 518.712 866.103C518.927 862.881 521.113 861.6 523.544 860.125C523.786 859.928 524.018 859.819 524.053 859.696C524.047 858.326 524.626 857.334 525.394 856.428C528.852 852.35 531.975 847.974 536.375 844.407C536.687 844.357 536.657 844.3 536.681 844.278C537.061 841.309 539.401 839.889 541.675 838.127C541.974 838.065 541.806 838.014 541.893 838.012C542.079 836.186 543.24 835.212 545.004 834.354C545.882 833.516 546.519 832.851 547.284 831.936C547.205 829.77 548.604 829.074 550.208 828.142C550.593 827.859 550.723 827.775 550.964 827.487C552.194 823.389 554.701 820.611 558.346 818.369C558.972 817.834 559.341 817.468 559.83 816.862C562.428 810.848 566.602 806.453 571.643 802.376C572.199 801.915 572.505 801.636 572.894 801.159C574.076 796.442 577.779 793.753 580.532 790.441C584.532 785.631 587.998 780.335 593.216 776.297C594.012 775.778 594.494 775.275 595.073 774.525C596.309 770.369 599.49 767.873 601.869 764.859C605.217 760.619 608.234 756.041 612.955 752.66C615.288 751.123 615.288 751.123 615.856 752.834C616.19 754.649 614.976 755.055 613.769 755.79C612.972 756.521 612.414 757.091 611.768 757.891C611.542 759.466 610.829 760.389 609.353 761.109Z" fill="black"/>
    <path d="M932.684 733.555C931.753 734.373 931.106 735.043 930.344 735.974C930.57 737.186 930.042 737.72 929.01 738.151C928.216 738.665 927.72 739.183 927.102 739.944C926.986 742.186 925.851 743.338 923.844 744.217C923.275 744.638 922.982 744.891 922.612 745.333C922.552 747.545 921.322 748.645 919.374 749.588C918.82 750.01 918.544 750.263 918.192 750.695C918.073 752.839 916.931 753.98 914.97 754.881C904.94 766.629 895.127 778.16 885.437 789.793C874.048 803.466 862.763 817.225 851.445 830.956C850.626 831.949 849.624 832.87 848.533 831.766C847.677 830.901 849.015 830.324 849.515 829.719C859.214 817.962 868.898 806.193 878.646 794.478C892.328 778.033 906.102 761.664 919.758 745.198C930.476 732.274 941.057 719.237 951.731 706.278C960.384 695.771 969.061 685.283 977.798 674.846C978.825 673.619 979.71 671.573 982.318 672.837C968.065 690.143 953.86 707.39 939.536 724.891C938.599 728.939 935.691 731.101 932.684 733.555Z" fill="#2A2A2A"/>
    <mask id="path-26-inside-3_18_279" fill="white">
    <path d="M732.891 375.574C725.253 379.633 715.404 375.606 711.789 367.587C708.263 359.765 711.336 351.313 719.683 346.363C724.295 355.919 728.581 365.601 732.891 375.574Z"/>
    </mask>
    <path d="M732.891 375.574C725.253 379.633 715.404 375.606 711.789 367.587C708.263 359.765 711.336 351.313 719.683 346.363C724.295 355.919 728.581 365.601 732.891 375.574Z" fill="white" stroke="black" stroke-width="1.77833" mask="url(#path-26-inside-3_18_279)"/>
    <path d="M872.246 335.943C865.793 332.364 863.199 326.491 862.586 320.114C861.913 313.11 867.629 306.054 874.572 303.66C883.479 300.59 893.642 305.051 896.864 313.446C900.251 322.268 896.276 332.059 887.652 335.768C882.712 337.892 877.624 338.112 872.246 335.943Z" fill="white"/>
    <path d="M101.65 269.359C96.2763 264.185 96.7105 257.597 98.6161 253.527C101.079 248.265 105.95 246.466 111.667 246.882C116.506 247.234 120.919 250.756 122.617 255.73C124.452 261.103 122.311 267.234 117.492 270.407C112.658 273.59 106.12 273.254 101.65 269.359Z" fill="white"/>
    <path d="M588.669 147.35C603.798 160.615 601.716 180.616 584.086 189.419C574.83 194.04 563.571 193.166 555.095 183.55C545.507 172.672 547.775 151.954 562.022 145.181C571.075 140.878 580.008 141.133 588.669 147.35Z" fill="#FDFDFD"/>
    <path d="M544.129 912.559C544.69 912.107 544.974 911.827 545.308 911.344C546.1 908.334 547.606 906.098 550.496 904.563C553.144 901.648 555.491 898.844 557.98 895.755C556.811 895.038 557.684 894.312 558.022 893.901C565.271 885.076 572.372 876.13 579.713 867.379C580.089 866.931 580.709 866.773 581.513 866.357C582.662 865.218 583.527 864.223 584.5 862.961C584.409 861.222 585.214 860.109 586.072 859.113C593.076 850.983 599.748 842.583 606.479 834.229C607.045 833.527 607.879 833.152 608.931 832.576C609.483 832.097 609.784 831.808 610.174 831.325C610.262 829.216 611.367 827.788 612.508 826.467C617.882 820.245 622.764 813.624 628.132 807.399C629.09 806.288 629.992 805.063 632.002 805.547C632.163 806.363 632.07 806.978 631.829 807.879C630.536 811.86 628.239 814.705 624.852 817.024C623.179 818.668 621.817 820.264 620.319 822.125C620.454 824.718 618.633 825.605 616.875 826.805C615.567 828.045 614.565 829.228 613.496 830.662C613.124 833.181 611.758 834.608 609.532 835.74C608.966 836.264 608.636 836.589 608.229 837.135C602.717 846.799 595.628 854.936 587.808 862.769C586.974 863.383 586.453 863.972 585.803 864.827C585.789 866.795 584.751 867.735 583.126 868.527C582.415 868.993 582.011 869.419 581.541 870.059C579.845 874.706 576.905 878.113 572.888 881.048C572.258 881.577 571.895 881.945 571.414 882.55C571.644 885.037 569.84 885.878 568.218 887.013C567.918 886.992 567.899 887.087 567.873 887.127C566.151 890.816 564.005 894.148 560.772 896.672C560.528 896.458 560.531 896.602 560.466 896.632C558.936 900.542 556.422 903.554 552.659 905.93C551.192 907.572 549.966 909.015 548.645 910.721C547.993 913.876 546.203 915.844 543.497 917.471C540.806 920.295 538.404 922.988 535.708 925.764C533.481 925.529 533.861 924.142 534.574 923.266C537.525 919.636 539.695 915.3 544.129 912.559Z" fill="black"/>
    <path d="M158.005 327.889C167.233 316.547 176.383 305.511 185.558 294.495C186.144 293.792 186.675 292.463 187.952 293.695C188.955 294.662 187.968 295.245 187.455 295.86C177.09 308.294 166.703 320.71 156.343 333.148C143.631 348.412 130.948 363.7 118.238 378.966C111.747 386.761 105.231 394.535 98.6972 402.295C98.3657 402.689 97.7636 402.855 97.2783 403.132C96.2133 401.443 97.1997 400.472 98.0714 399.461C109.333 386.405 119.983 372.84 131.461 359.954C139.644 350.767 147.053 340.893 154.84 331.352C155.767 330.216 156.897 329.246 158.005 327.889Z" fill="#2A2A2A"/>
    <path d="M678.504 678.818C667.556 667.009 656.819 655.045 646.15 643.02C637.435 633.198 628.802 623.304 620.019 613.171C619.966 611.885 620.487 611.102 621.411 610.255C635.484 625.722 649.316 641.318 663.123 656.936C668.807 663.365 674.44 669.84 680.201 676.575C679.785 677.449 679.264 678.043 678.504 678.818Z" fill="#122AC1"/>
    <path d="M175.851 849.037C169.823 844.131 166.526 838.332 167.284 830.248C166.736 828.707 166.545 827.557 167.829 826.425C174.082 814.788 183.883 811.287 195.518 816.843C196.761 816.508 197.093 817.213 197.621 818.042C199.261 820.218 200.761 822.163 202.413 824.342C205.271 825.649 205.289 827.741 204.495 830.415C204.326 831.788 204.314 832.826 204.431 834.149C204.62 835.347 204.771 836.264 204.238 837.439C202.19 841.802 200.056 845.67 195.989 848.44C195.467 850.223 194.436 850.807 192.602 850.524C191.915 850.455 191.526 850.531 190.915 850.809C189.98 851.83 189.013 851.624 187.761 851.604C186.392 851.452 185.368 851.351 184.034 851.3C180.593 852.812 178.077 851.813 175.851 849.037Z" fill="white"/>
    <path d="M570.23 221.413C575.129 217.415 580.435 217.831 583.34 222.154C586.524 226.891 585.34 231.46 580.123 234.569C575.714 237.197 568.876 233.637 568.647 228.53C568.541 226.166 567.46 223.545 570.23 221.413Z" fill="#FAFAFA"/>
    <path d="M712.103 784.271C705.415 793.522 687.168 793.412 678.436 784.906C665.889 772.684 669.778 753.237 682.079 745.52C691.664 739.507 704.774 741.038 713.66 749.924C713.797 750.392 713.743 750.62 713.376 751.001C711.022 751.519 709.811 750.048 708.388 749.046C699.315 742.658 687.02 743.79 679.658 751.691C672.559 759.31 672.233 772.094 678.92 780.694C685.16 788.72 697.365 790.94 706.623 785.729C707.9 785.011 708.989 783.924 710.881 783.764C711.439 783.861 711.654 783.94 712.103 784.271Z" fill="white"/>
    <path d="M580.451 908.544C579.365 908.428 578.624 908.314 577.602 908.244C575.309 909.147 573.962 908.41 572.947 906.236C572.409 905.186 572.014 904.427 571.405 903.523C569.863 902.293 569.134 901.014 570.243 899.2C571.152 897.865 571.674 896.593 572.313 895.044C574.024 890.937 576.523 890.107 582.177 891.929C582.792 892.56 583.201 892.861 583.857 893.235C585.103 893.061 585.57 893.611 585.865 894.759C587.561 898.62 587.963 902.115 585.232 905.733C584.347 907.996 582.933 908.893 580.451 908.544Z" fill="white"/>
    <path d="M300.869 538.969C296.41 544.593 289.887 545.52 286.708 541.313C284.575 538.488 284.511 532.495 286.59 530.062C288.83 527.441 294.051 526.712 297.321 528.566C301.084 530.699 302.27 533.999 300.869 538.969Z" fill="white"/>
    <path d="M764.184 487.157C769.616 483.699 774.919 484.505 777.693 488.905C780.083 492.694 778.832 497.916 774.594 500.13C771.555 501.717 767.995 501.941 765.101 499.887C761.628 497.422 761.391 492.517 764.184 487.157Z" fill="#F2F2F2"/>
    <path d="M677.139 683.786C677.661 684.091 677.845 684.374 678.254 684.777C669.843 694.802 658.989 701.825 647.562 707.881C625.618 719.511 602.242 727.205 577.535 732.015C577.037 731.792 576.912 731.601 576.789 731.066C577.836 728.462 580.059 728.442 582.036 728.007C604.34 723.095 625.795 715.859 646.08 705.218C655.956 700.038 664.941 693.691 673.235 686.296C674.331 685.318 675.285 684.149 677.139 683.786Z" fill="#2A2A2A"/>
    <path d="M867.862 707.889C867.389 703.617 869.36 701.156 872.884 700.245C876.778 699.238 880.78 701.349 881.851 704.688C882.994 708.253 882.151 711.557 878.741 713.224C874.088 715.498 868.536 715.044 867.862 707.889Z" fill="white"/>
    <path d="M372.518 844.114C377.694 842.771 382.572 843.485 387.326 845.153C389.834 846.033 390.845 847.212 387.931 849.17C384.648 851.376 381.543 853.844 378.105 856.246C377.034 854.369 376.218 852.445 375.231 850.269C372.769 848.835 372.356 846.744 372.518 844.114Z" fill="#FDFBFF"/>
    <path d="M707.793 496.246C707.711 498.587 708.727 500.366 709.284 502.514C710.858 510.032 712.227 517.314 713.644 524.586C713.953 526.177 714.329 527.735 713.142 529.467C710.966 524.641 710.144 519.457 709.503 513.819C706.995 510.673 708.003 507.098 706.94 503.676C705.473 493.067 701.135 483.519 699.215 473.328C703.614 480.291 704.769 488.435 707.793 496.246Z" fill="#2A2A2A"/>
    <path d="M632.25 805.408C630.225 805.704 629.655 807.509 628.679 808.699C622.671 816.018 616.727 823.39 610.513 830.937C606.246 826.293 610.947 824.109 613.484 821.683C615.02 820.215 616.236 818.844 616.977 816.875C617.752 814.818 619.168 813.651 621.299 812.458C623.983 810.956 625.659 807.63 627.725 805.055C629.272 803.127 630.747 801.176 632.25 805.408Z" fill="#356579"/>
    <path d="M612.893 752.55C607.407 759.701 601.546 766.81 595.428 774.099C594.992 773.874 594.873 773.429 594.626 773.073C591.952 769.23 599.475 769.656 597.462 767.445C594.093 763.744 596.834 762.288 599.19 761.21C602.985 759.472 604.205 754.873 608.344 753.676C609.732 753.275 610.944 752.265 612.893 752.55Z" fill="#356579"/>
    <path d="M489.441 905.204C494.522 898.601 499.948 892.007 505.592 885.319C507.107 885.586 507.999 886.206 507.25 887.719C506.587 889.058 506.196 890.307 506.764 891.885C507.21 893.123 506.397 894.587 505.025 894.21C501.068 893.123 500.717 894.717 501.571 897.983C502.005 899.646 501.466 901.283 499.412 901.671C495.999 902.316 492.909 903.798 489.441 905.204Z" fill="#356579"/>
    <path d="M542.311 842.009C548.946 833.431 555.942 824.914 563.175 816.248C564.327 818.227 563.671 820.598 564.973 822.842C566.026 824.658 564.259 826.289 562.149 825.635C560.159 825.018 558.797 825.899 557.863 827.025C555.373 830.027 551.598 831.692 550.187 835.966C549.185 839.003 546.368 841.494 542.311 842.009Z" fill="#356579"/>
    <path d="M587.663 863.118C594.21 854.434 600.927 846.074 607.898 837.535C607.926 841.005 606.243 844.012 603.765 846.53C601.757 848.571 600.093 850.599 600.214 853.7C600.279 855.366 599.375 856.806 598.186 857.957C595.663 860.401 590.764 859.569 589.671 864.125C589.594 864.445 588.328 864.081 587.663 863.118Z" fill="#356579"/>
    <path d="M593.874 812.885C588.798 819.494 583.37 826.087 577.667 832.842C577.164 830.938 576.914 828.895 574.901 827.638C574.253 827.233 573.664 826.481 574.223 825.845C574.587 825.43 575.673 825.238 576.219 825.465C578.908 826.587 579.495 825.133 581.363 823.254C585.051 819.542 587.481 813.909 593.874 812.885Z" fill="#356579"/>
    <path d="M572.715 805.397C578.161 798.218 583.963 791.19 590.026 783.981C589.729 786.619 594.506 785.486 593.625 787.908C592.941 789.789 590.022 788.419 588.577 789.83C588.474 789.93 588.244 789.971 588.221 790.073C586.809 796.34 579.142 797.531 577.339 803.514C576.715 805.584 575.027 805.985 572.715 805.397Z" fill="#356579"/>
    <path d="M558.343 855.538C553.666 861.709 548.615 867.859 543.358 874.192C539.795 870.958 539.859 870.248 543.702 868.199C544.22 867.923 545.083 867.711 545.18 867.319C546.252 862.983 551.036 861.756 552.801 858.322C554.133 855.73 555.642 855.341 558.343 855.538Z" fill="#356579"/>
    <path d="M544.043 912.375C541.744 917.058 537.004 920.243 535.237 925.639C535.591 927.16 534.849 928.004 534.04 928.919C533.189 929.881 533.298 932.464 531.252 931.276C529.334 930.162 529.625 927.841 530.706 926.172C532.756 923.008 534.822 919.878 536.609 916.541C538.041 913.867 540.163 911.785 544.043 912.375Z" fill="#356579"/>
    <path d="M571.528 802.189C568.065 806.895 564.237 811.596 560.179 816.46C559.249 816.311 558.399 815.752 558.713 815.053C559.776 812.685 561.799 810.545 559.608 807.72C559.435 807.496 560.301 805.934 560.943 805.697C564.319 804.448 567.228 801.787 571.528 802.189Z" fill="#356579"/>
    <path d="M426.685 884.879C423.661 878.943 420.967 872.863 418.239 866.465C420.403 865.816 421.997 866.63 422.548 868.811C423.253 871.601 424.842 874.078 426.73 875.863C430.083 879.033 428.813 881.729 426.685 884.879Z" fill="#356579"/>
    <path d="M625.444 774.313C622.472 780.12 617.699 784.549 613.573 789.832C611.076 788.808 612.158 785.426 609.433 784.702C610.411 783.003 611.384 783.901 612.28 784.134C614.657 784.751 616.002 784.483 616.434 781.433C616.993 777.479 621.62 773.959 625.444 774.313Z" fill="#356579"/>
    <path d="M743.807 429.896C743.616 423.959 743.408 418.361 743.4 412.379C744.617 412.272 744.966 413.037 745.033 413.989C745.69 423.283 746.465 432.575 745.471 441.895C745.392 442.637 745.301 443.367 744.456 443.82C742.482 442.542 743.928 440.631 743.661 438.67C743.057 435.592 744.179 432.923 743.807 429.896Z" fill="#2A2A2A"/>
    <path d="M529.631 894.579C533.357 889.582 537.442 884.586 541.744 879.411C544.359 881.149 543.991 884.068 543.63 886.34C543.256 888.684 540.498 888.403 538.447 888.361C536.906 888.33 535.5 888.392 535.417 890.513C535.28 894.041 532.955 894.764 529.631 894.579Z" fill="#356579"/>
    <path d="M562.125 729.095C563.132 730.865 563.762 732.433 564.566 734.219C564.655 735.877 564.22 737.161 562.528 737.122C561.093 737.089 561.263 735.794 561.17 734.802C560.96 732.556 559.82 731.532 557.635 732.459C555.419 733.4 552.924 732.14 550.59 733.797C549.293 732.761 548.212 731.418 547.052 729.801C550.817 726.686 555.196 728.385 559.761 728.139C560.744 728.349 561.265 728.576 562.125 729.095Z" fill="#356579"/>
    <path d="M607.332 801.188C611.612 795.498 616.252 789.839 621.159 784.002C622.18 786.69 620.821 789.351 620.546 792.116C620.458 793.003 619.639 794.315 618.878 794.556C614.601 795.912 611.278 798.769 607.332 801.188Z" fill="#356579"/>
    <path d="M713.62 750.315C722.776 759.346 722.747 773.781 713.255 783.263C712.044 781.544 712.901 780.326 713.679 779.068C718.687 770.977 718.972 762.849 713.846 754.682C713.225 753.691 712.58 752.694 712.808 751.123C713.099 750.693 713.244 750.58 713.62 750.315Z" fill="white"/>
    <path d="M536.31 844.225C532.66 849.309 528.633 854.26 524.347 859.392C523.471 858.234 522.696 856.939 524.123 855.559C524.627 855.071 525.298 854.118 525.127 853.669C523.406 849.156 526.054 848.976 529.327 849.18C530.359 849.245 530.876 848.452 530.927 847.445C531.098 844.082 533.375 843.882 536.31 844.225Z" fill="#356579"/>
    <path d="M582.393 891.915C578.859 891.385 575.607 891.687 572.678 894.609C570.128 893.574 570.794 891.367 571.105 889.68C571.569 887.163 569.942 887.538 568.261 887.142C568.9 885.702 569.882 884.412 571.08 882.955C572.608 883.343 572.627 884.493 572.755 885.689C573.124 889.151 575.331 890.468 578.49 889.791C580.484 889.364 581.943 889.083 582.393 891.915Z" fill="#356579"/>
    <path d="M578.384 836.002C580.149 833.336 582.238 830.733 584.547 827.946C586.323 831.074 584.46 834.66 585.594 838.075C585.876 838.924 584.32 839.49 583.243 839.456C582.009 839.417 580.494 839.917 579.959 838.162C579.71 837.341 579.744 836.399 578.384 836.002Z" fill="#356579"/>
    <path d="M511.723 878.567C514.964 874.133 518.571 869.708 522.433 865.138C523.186 868.115 522.042 871.027 521.537 874.02C517.195 873.063 516.605 879.889 511.723 878.567Z" fill="#356579"/>
    <path d="M576.846 833.275C574.151 837.087 571.077 840.899 567.739 844.865C567.233 842.147 568.625 839.326 567.507 836.372C567.035 835.127 568.034 834.291 569.516 834.162C571.841 833.96 574.151 833.58 576.846 833.275Z" fill="#356579"/>
    <path d="M563.878 816.069C566.254 812.52 569.038 809.125 572.061 805.581C574.085 809.191 571.511 812.36 570.403 815.47C569.684 817.488 566.424 816.189 563.878 816.069Z" fill="#356579"/>
    <path d="M509.921 875.598C507.998 879.896 504.635 883.111 501.43 886.779C500.629 885.466 500.36 883.748 501.478 882.772C503.571 880.947 504.508 879.573 502.078 877.183C501.066 876.189 502.198 874.673 503.619 875.328C505.715 876.294 507.603 875.263 509.921 875.598Z" fill="#356579"/>
    <path d="M549.706 772.187C553.16 770.355 555.008 766.995 558.113 764.634C559.489 767.598 557.065 770.171 557.111 773.233C557.143 775.436 551.903 775.034 549.706 772.187Z" fill="#356579"/>
    <path d="M570.332 845.684C572.14 842.977 574.3 840.275 576.711 837.385C577.593 838.351 578.452 839.439 578.81 840.672C579.782 844.013 578.441 845.593 574.984 845.04C573.384 844.784 572.168 845.883 570.332 845.684Z" fill="#356579"/>
    <path d="M572.964 881.225C575.402 877.678 578.184 874.147 581.22 870.444C582.481 872.084 582.998 873.728 580.752 875.175C579.982 875.67 579.167 876.819 579.167 877.669C579.169 882.247 576.529 882.145 572.964 881.225Z" fill="#356579"/>
    <path d="M500.771 886.872C498.596 890.197 496.043 893.389 493.226 896.762C493.169 894.051 490.453 893.939 488.599 892.919C490.06 891.35 491.605 892.062 492.962 891.931C494.237 891.808 495.313 891.637 495.397 890.053C495.575 886.71 497.86 886.535 500.771 886.872Z" fill="#356579"/>
    <path d="M723.107 308.068C723.39 304.477 725.148 301.328 727.652 298.271C730.933 300.295 730.88 302.249 727.719 304.294C726.144 305.312 724.822 306.722 723.107 308.068Z" fill="#1FD08C"/>
    <path d="M603.893 800.751C601.376 804.375 598.541 807.863 595.431 811.516C595.07 810.509 595.114 809.309 594.872 808.17C594.385 805.886 592.874 803.452 597.565 804.409C599.96 804.897 600.7 800.621 603.893 800.751Z" fill="#356579"/>
    <path d="M486.011 759.433C487.173 762.295 486.638 765.182 485.382 768.288C483.519 767.84 482.223 766.209 479.796 766.64C481.221 763.991 483.081 761.42 486.011 759.433Z" fill="#356579"/>
    <path d="M552.788 906.129C554.904 902.999 557.39 899.87 560.138 896.701C561.924 901.773 558.737 905.938 552.788 906.129Z" fill="#356579"/>
    <path d="M420.9 911.54C424.509 908.736 427.636 905.65 429.176 900.89C432.012 903.231 430.247 905.529 428.625 907.515C426.721 909.846 424.535 912.055 420.9 911.54Z" fill="#356579"/>
    <path d="M446.392 818.027C448.901 813.687 451.761 809.374 454.845 804.878C455.995 805.114 456.623 805.991 456.107 806.786C453.765 810.394 451.303 813.927 448.768 817.403C448.43 817.866 447.434 817.849 446.392 818.027Z" fill="#356579"/>
    <path d="M544.087 877.235C545.892 874.458 547.858 872.029 550.078 869.418C552.668 873.067 548.432 875.469 548.045 878.809C547.89 880.148 545.403 878.655 544.087 877.235Z" fill="#356579"/>
    <path d="M558.208 818.191C556.246 821.12 553.889 824.039 551.303 827.121C550.725 827.026 550.069 826.764 550.073 826.513C550.121 823.682 552.353 821.654 552.925 818.87C553.222 817.425 556.106 818.377 558.208 818.191Z" fill="#356579"/>
    <path d="M372.317 843.7C373.401 845.646 374.13 847.513 374.959 849.699C371.028 850.023 369.162 846.105 365.677 844.568C367.694 844.027 369.829 843.824 372.317 843.7Z" fill="#356579"/>
    <path d="M494.495 826.686C496.882 823.925 499.378 821.466 502.158 818.896C503.247 823.901 499.887 827.418 494.495 826.686Z" fill="#356579"/>
    <path d="M540.116 877.356C538.402 880.025 536.537 882.349 534.468 884.859C532.286 884.043 532.264 881.577 533.55 881.262C536.375 880.57 535.277 874.304 540.116 877.356Z" fill="#356579"/>
    <path d="M638.285 758.686C637.396 762.21 633.605 763.86 632.131 767.545C628.675 764.26 628.672 763.545 632.753 762.221C634.954 761.507 635.085 758.142 638.285 758.686Z" fill="#356579"/>
    <path d="M111.628 653.245C114.521 654.445 117.409 656.018 120.418 657.874C115.42 660.046 111.94 658.275 111.628 653.245Z" fill="#356579"/>
    <path d="M481.372 914.988C483.221 912.213 485.41 909.486 487.874 906.594C489.016 909.432 487.225 911.858 486.244 914.391C485.296 916.841 483.327 915.444 481.372 914.988Z" fill="#356579"/>
    <path d="M388.711 882.278C390.331 885.093 391.768 888.181 393.219 891.591C387.407 889.275 385.917 886.308 388.711 882.278Z" fill="#356579"/>
    <path d="M566.429 845.79C564.967 848.091 563.144 850.369 561.114 852.823C559.401 852.84 558.341 852.231 558.635 850.492C558.832 849.321 559.268 847.739 560.442 847.771C562.683 847.831 563.959 845.7 566.429 845.79Z" fill="#356579"/>
    <path d="M430.419 839.597C431.993 836.992 433.65 834.743 435.58 832.363C435.866 833.957 436.08 835.708 435.851 837.399C435.392 840.795 433.39 841.409 430.419 839.597Z" fill="#356579"/>
    <path d="M560.923 896.692C562.252 893.037 565.059 890.439 567.603 887.312C568.416 890.756 564.76 893.037 564.925 896.656C564.965 897.539 562.608 897.201 560.923 896.692Z" fill="#356579"/>
    <path d="M624.935 817.128C626.779 814.223 629.018 811.374 631.47 808.344C632.09 808.537 632.818 808.883 632.852 809.288C633.033 811.475 627.662 817.019 624.935 817.128Z" fill="#356579"/>
    <path d="M417.364 863.355C416.266 861.846 415.432 860.144 414.451 858.143C415.687 856.218 417.07 854.593 418.727 852.856C418.544 856.217 418.086 859.689 417.364 863.355Z" fill="#356579"/>
    <path d="M168.999 816.605C166.04 813.543 168.687 812.808 170.621 811.8C171.663 811.257 172.755 811.032 172.847 812.646C172.985 815.072 172.459 817.114 168.999 816.605Z" fill="#356579"/>
    <path d="M104.12 647.367C106.197 648.542 107.934 649.869 109.844 651.418C108.309 653.853 106.276 653.09 104.579 651.885C103.159 650.877 101.901 649.358 104.12 647.367Z" fill="#356579"/>
    <path d="M467.453 785.302C468.073 783.482 469.01 781.667 470.061 779.556C470.174 779.261 470.414 779.408 470.555 779.403C472.367 780.773 473.592 782.385 472.448 784.609C471.291 786.86 469.383 785.384 467.453 785.302Z" fill="#356579"/>
    <path d="M285.368 852.867C286.153 856.153 285.341 859.253 283.768 862.504C281.121 859.045 282.407 855.88 285.368 852.867Z" fill="#356579"/>
    <path d="M611.64 791.56C609.579 794.533 607.177 797.493 604.525 800.586C603.673 796.633 606.255 793.259 611.64 791.56Z" fill="#356579"/>
    <path d="M257.31 871.271C259.993 870.225 262.836 870.531 266.014 870.778C263.986 873.971 260.907 874.231 257.31 871.271Z" fill="#356579"/>
    <path d="M932.743 733.717C934.571 730.976 936.743 728.25 939.166 725.334C940.562 727.428 941.39 729.505 937.767 730.418C935.872 730.896 935.777 734.187 932.743 733.717Z" fill="#356579"/>
    <path d="M457.138 802.064C458.139 799.781 459.513 797.536 461.125 795.119C463.326 798.667 461.758 801.581 457.138 802.064Z" fill="#356579"/>
    <path d="M429.636 891.915C428.492 890.156 427.677 888.25 426.797 886.026C428.375 885.792 430.389 885.187 431.178 887.258C431.803 888.897 431.763 890.642 429.636 891.915Z" fill="#356579"/>
    <path d="M598.472 811.854C600.062 809.403 602.017 806.985 604.244 804.398C604.765 809.63 603.846 810.869 598.472 811.854Z" fill="#356579"/>
    <path d="M248.444 896.965C250.059 895.837 249.093 894.72 248.782 893.341C252.836 893.012 252.238 895.576 251.484 898.122C251.244 898.929 250.78 899.857 249.678 899.709C248.207 899.511 248.559 898.256 248.444 896.965Z" fill="#356579"/>
    <path d="M541.589 837.955C540.39 840.047 538.806 842.03 536.964 844.135C535.945 838.632 536.449 837.915 541.589 837.955Z" fill="#356579"/>
    <path d="M543.566 917.623C544.819 915.515 546.43 913.429 548.295 911.164C550.104 915.248 548.883 917.007 543.566 917.623Z" fill="#356579"/>
    <path d="M285 842.458C284.508 844.117 285.482 845.302 285.546 846.916C283.497 847.57 281.424 847.61 281.451 844.878C281.47 843.013 282.059 840.973 285 842.458Z" fill="#356579"/>
    <path d="M175.749 849.035C178.197 849.601 180.443 851.012 183.421 851.256C181.085 854.78 177.833 853.984 175.749 849.035Z" fill="#356579"/>
    <path d="M523.431 859.928C522.296 861.787 520.807 863.645 519.06 865.673C517.073 861.374 517.875 860.266 523.431 859.928Z" fill="#356579"/>
    <path d="M622.763 782.628C624.598 779.927 626.771 777.222 629.202 774.333C629.56 778.64 626.973 781.115 622.763 782.628Z" fill="#356579"/>
    <path d="M604.552 767.163C605.34 765.609 606.309 764.392 607.48 763.008C609.736 764.016 609.57 765.829 608.533 767.37C607.578 768.79 606.05 768.76 604.552 767.163Z" fill="#356579"/>
    <path d="M630.841 772.89C631.805 771.138 633.078 769.418 634.619 767.569C636.501 772.138 635.48 773.637 630.841 772.89Z" fill="#356579"/>
    <path d="M523 799.419C524.447 797.482 526.062 795.835 527.955 794.081C528.313 799.318 527.571 800.158 523 799.419Z" fill="#356579"/>
    <path d="M204.659 830.648C203.804 828.903 203.27 827.056 202.651 824.893C204.715 824.36 206.377 825.128 207.115 827.206C207.782 829.084 206.147 829.717 204.659 830.648Z" fill="#356579"/>
    <path d="M372.024 870.507C373.492 872.167 374.906 874.179 376.372 876.493C371.219 875.952 370.725 875.293 372.024 870.507Z" fill="#356579"/>
    <path d="M248.07 881.245C247.83 878.281 249.123 875.862 251.47 873.638C252.064 876.683 252.654 880.009 248.07 881.245Z" fill="#356579"/>
    <path d="M706.805 503.807C708.505 506.255 708.491 509.639 709.416 513.094C709.027 513.667 708.665 513.89 708.111 514.202C707.571 510.937 707.224 507.581 706.805 503.807Z" fill="white"/>
    <path d="M393.322 892.788C394.485 894.53 395.349 896.396 396.306 898.572C392.131 897.755 391.188 896.086 393.322 892.788Z" fill="#356579"/>
    <path d="M528.798 891.025C528.27 892.313 527.365 893.602 526.378 895.18C524.437 895.569 523.619 894.659 523.931 892.857C524.44 889.916 526.837 891.43 528.798 891.025Z" fill="#356579"/>
    <path d="M594.662 779.392C595.166 776.949 597.062 775.538 598.711 773.605C600.008 777.031 599.331 779.495 594.662 779.392Z" fill="#356579"/>
    <path d="M93.8443 635.176C95.18 636.412 96.3717 637.99 97.6674 639.836C92.6858 640.717 92.372 640.363 93.8443 635.176Z" fill="#356579"/>
    <path d="M550.122 827.937C549.593 829.089 548.723 830.234 547.633 831.532C545.694 830.999 544.574 829.659 545.498 827.984C546.613 825.962 548.327 828.27 550.122 827.937Z" fill="#356579"/>
    <path d="M512.655 809.282C514.146 807.423 515.984 805.565 518.101 803.569C518.705 807.327 516.734 809.113 512.655 809.282Z" fill="#356579"/>
    <path d="M377.251 878.613C378.413 879.687 379.267 880.898 380.224 882.372C378.796 883.024 377.182 883.503 376.038 881.956C375.056 880.627 375.76 879.573 377.251 878.613Z" fill="#356579"/>
    <path d="M514.54 870.59C513.593 872.25 512.28 873.91 510.708 875.596C508.486 871.574 510.47 870.446 514.54 870.59Z" fill="#356579"/>
    <path d="M628.649 821.884C628.115 824.215 626.8 824.798 624.989 824.011C624.197 823.667 624.163 822.437 624.805 822.224C626.014 821.823 626.884 818.539 628.649 821.884Z" fill="#356579"/>
    <path d="M273.32 871.758C274.583 871.121 275.847 870.831 277.436 870.541C277.89 872.632 277.15 874.401 275.027 874.785C273 875.152 273.46 873.294 273.32 871.758Z" fill="#356579"/>
    <path d="M550.443 904.427C549.163 906.565 547.528 908.677 545.626 910.965C544.835 907.42 546.027 904.903 550.443 904.427Z" fill="#356579"/>
    <path d="M352.461 835.728C353.689 837.142 354.793 838.898 355.928 840.962C352.499 841.106 350.36 840.022 352.461 835.728Z" fill="#356579"/>
    <path d="M380.245 882.982C381.592 882.975 382.551 882.116 383.936 881.727C384.154 883.025 385.097 884.837 383.15 885.463C381.536 885.982 380.257 885.304 380.245 882.982Z" fill="#356579"/>
    <path d="M552.63 867.025C553.119 865.87 553.983 864.719 555.061 863.413C556.505 863.794 557.982 864.485 557.291 866.025C556.458 867.885 554.463 866.727 552.63 867.025Z" fill="#356579"/>
    <path d="M583.133 868.689C583.617 867.514 584.414 866.461 585.442 865.252C586.881 865.704 588.262 866.287 587.177 868.006C586.253 869.469 584.975 869.863 583.133 868.689Z" fill="#356579"/>
    <path d="M599.366 773.405C600.379 771.553 601.745 769.856 603.378 767.99C604.054 770.908 603.805 773.546 599.366 773.405Z" fill="#356579"/>
    <path d="M616.944 826.911C617.63 825.49 618.692 824.117 619.968 822.567C621.951 825.364 621.53 826.036 616.944 826.911Z" fill="#356579"/>
    <path d="M477.474 790.705C477.453 792.602 477.081 794.52 476.558 796.721C474.349 794.649 473.865 792.473 477.474 790.705Z" fill="#356579"/>
    <path d="M588.852 823.435C589.843 821.689 591.203 819.968 592.825 818.098C593.123 820.716 593.429 823.671 588.852 823.435Z" fill="#356579"/>
    <path d="M572.786 906.296C574.142 906.64 575.479 907.336 577.068 908.16C576.823 909.544 576.279 910.71 574.548 910.096C572.863 909.498 572.614 908.182 572.786 906.296Z" fill="#356579"/>
    <path d="M743.679 429.803C743.863 432.292 743.903 435.026 743.813 438.022C743.498 438.32 743.312 438.356 742.863 438.283C742.911 435.465 743.222 432.757 743.679 429.803Z" fill="#FB6A69"/>
    <path d="M472.713 776.418C473.021 775.308 473.676 774.195 474.566 772.938C475.882 772.948 476.92 773.256 476.565 774.648C476.095 776.488 474.516 776.39 472.713 776.418Z" fill="#356579"/>
    <path d="M609.652 835.938C610.501 834.377 611.705 832.815 613.169 831.083C613.765 833.594 613.872 836.118 609.652 835.938Z" fill="#356579"/>
    <path d="M570.28 899.106C570.792 900.346 570.954 901.556 571.153 903.071C568.998 903.532 568.11 902.042 567.837 900.306C567.595 898.769 569.025 899.165 570.28 899.106Z" fill="#356579"/>
    <path d="M591.203 783.13C591.93 781.712 592.803 780.604 593.915 779.453C595.285 782.19 595.217 784.136 591.203 783.13Z" fill="#356579"/>
    <path d="M122.343 659.357C124.001 659.426 125.682 659.829 127.505 660.527C125.465 662.416 123.607 662.496 122.343 659.357Z" fill="#356579"/>
    <path d="M506.773 884.656C507.436 883.237 508.467 881.876 509.696 880.325C511.609 882.729 511.253 883.321 506.773 884.656Z" fill="#356579"/>
    <path d="M486.775 903.915C486.139 905.232 485.366 906.241 484.361 907.416C482.874 904.019 483.487 903.046 486.775 903.915Z" fill="#356579"/>
    <path d="M414.647 913.331C415.759 912.717 417.007 912.399 418.581 912.026C418.603 915.188 417.372 916.097 414.647 913.331Z" fill="#356579"/>
    <path d="M397.584 902.569C398.491 903.495 399.071 904.476 399.748 905.732C395.963 905.752 395.548 905.211 397.584 902.569Z" fill="#356579"/>
    <path d="M580.462 908.686C581.587 907.774 583.068 907.006 584.841 906.129C585.512 909.75 583.896 910.413 580.462 908.686Z" fill="#356579"/>
    <path d="M537.267 762.994C537.993 759.118 539.64 759.016 541.86 762.636C540.554 762.984 539.124 763.007 537.267 762.994Z" fill="#356579"/>
    <path d="M408.393 912.618C409.418 912.405 410.444 912.535 411.724 912.84C411.855 914.132 411.443 914.95 410.126 914.936C408.79 914.922 408.412 914.109 408.393 912.618Z" fill="#356579"/>
    <path d="M420.976 850.987C421.679 849.591 422.754 848.216 424.09 846.708C424.242 848.656 425.136 851.416 420.976 850.987Z" fill="#356579"/>
    <path d="M479.453 912.625C479.395 913.593 478.999 914.44 478.634 915.575C477.467 915.81 476.176 915.556 476.256 914.119C476.351 912.435 477.758 912.344 479.453 912.625Z" fill="#356579"/>
    <path d="M97.6538 640.529C98.5924 641.017 99.4166 641.871 100.346 642.952C100.081 643.979 99.6903 644.936 98.5873 644.368C97.1349 643.619 97.4138 642.201 97.6538 640.529Z" fill="#356579"/>
    <path d="M248.202 889.33C247.744 888.353 247.624 887.328 247.568 885.999C250.681 886.999 250.797 887.459 248.202 889.33Z" fill="#356579"/>
    <path d="M278.901 867.129C278.019 868.425 276.477 868.741 274.545 868.875C274.646 865.79 276.376 865.845 278.901 867.129Z" fill="#356579"/>
    <path d="M90.4387 628.923C91.3006 629.747 91.8477 630.76 92.4914 632.048C90.0023 632.606 88.4807 632.073 90.4387 628.923Z" fill="#356579"/>
    <path d="M557.02 861.677C557.624 860.407 558.608 859.147 559.852 857.722C560.345 859.68 560.79 861.943 557.02 861.677Z" fill="#356579"/>
    <path d="M923.953 744.395C924.53 743.094 925.492 741.804 926.717 740.351C927.289 742.339 927.809 744.621 923.953 744.395Z" fill="#356579"/>
    <path d="M928.822 738.477C929.1 737.586 929.489 737.024 930.053 736.348C931.599 736.844 931.983 737.827 931.039 739.02C930.365 739.873 929.542 739.817 928.822 738.477Z" fill="#356579"/>
    <path d="M556.965 734.822C558.174 734.894 558.943 735.266 559.036 736.285C559.106 737.057 558.417 737.291 557.877 737.157C556.722 736.871 555.572 736.427 556.965 734.822Z" fill="#356579"/>
    <path d="M436.8 831.389C437.179 830.294 437.887 829.211 438.814 827.956C440.438 829.778 440.264 830.111 436.8 831.389Z" fill="#356579"/>
    <path d="M192.439 850.707C193.287 849.851 194.271 849.325 195.527 848.72C195.804 850.894 195.502 852.731 192.439 850.707Z" fill="#356579"/>
    <path d="M546.299 768.397C547.32 769 548.037 769.759 548.816 770.774C547.537 770.647 544.476 772.266 546.299 768.397Z" fill="#356579"/>
    <path d="M483.373 772.868C483.378 773.944 483.06 775.032 482.52 776.3C480.85 774.925 480.34 773.565 483.373 772.868Z" fill="#356579"/>
    <path d="M482.695 908.81C482.128 909.998 481.214 911.188 480.061 912.51C479.085 910.325 479.794 908.959 482.695 908.81Z" fill="#356579"/>
    <path d="M915.065 755.057C915.665 753.769 916.631 752.486 917.857 751.039C918.505 753.093 918.332 754.952 915.065 755.057Z" fill="#356579"/>
    <path d="M919.468 749.752C920.071 748.46 921.045 747.162 922.277 745.693C922.978 747.787 922.745 749.62 919.468 749.752Z" fill="#356579"/>
    <path d="M372.046 860.18C371.625 860.923 371.152 861.331 370.442 861.781C370.536 860.671 368.55 859.319 370.311 858.415C371.212 857.952 371.816 858.895 372.046 860.18Z" fill="#356579"/>
    <path d="M475.843 834.124C476.596 834.816 477.051 835.555 477.506 836.562C476.378 836.803 475.171 836.887 474.587 835.629C474.171 834.731 474.82 834.394 475.843 834.124Z" fill="#356579"/>
    <path d="M544.898 834.181C544.323 835.375 543.401 836.568 542.23 837.886C541.306 835.706 541.985 834.31 544.898 834.181Z" fill="#356579"/>
    <path d="M628.159 771.359C627.877 772.413 627.185 773.353 626.226 774.319C624.754 772.27 625.03 771.052 628.159 771.359Z" fill="#356579"/>
    <path d="M613.864 755.954C614.147 755.11 614.763 754.271 615.582 753.268C617.305 755.041 617.176 755.274 613.864 755.954Z" fill="#356579"/>
    <path d="M167.825 826.35C167.952 827.353 167.713 828.332 167.367 829.595C165.477 828.589 164.862 827.367 167.825 826.35Z" fill="#356579"/>
    <path d="M473.404 845.466C473.639 844.164 474.262 843.774 475.194 844.343C475.409 844.474 475.529 845.146 475.388 845.402C474.931 846.234 474.28 846.674 473.404 845.466Z" fill="#356579"/>
    <path d="M565.565 754.951C564.699 754.254 563.855 753.194 562.958 751.844C565.221 751.309 565.828 752.573 565.565 754.951Z" fill="#356579"/>
    <path d="M522.216 809.418C521.248 809.976 520.598 809.944 520.494 808.954C520.405 808.109 520.904 807.602 521.752 807.692C522.744 807.796 522.769 808.451 522.216 809.418Z" fill="#356579"/>
    <path d="M490.846 899.023C490.564 899.88 489.935 900.741 489.093 901.757C487.279 899.958 487.42 899.708 490.846 899.023Z" fill="#356579"/>
    <path d="M586.005 894.745C585.392 894.615 584.889 894.174 584.245 893.521C584.476 892.425 585.141 891.727 586.066 892.206C587.139 892.761 586.413 893.672 586.005 894.745Z" fill="#356579"/>
    <path d="M477.61 837.802C478.14 837.982 478.42 838.324 478.719 838.898C478.368 839.678 478 840.439 477.228 839.754C476.614 839.21 476.912 838.535 477.61 837.802Z" fill="#356579"/>
    <path d="M565.871 851.001C566.21 850.049 566.918 849.1 567.88 847.989C568.267 849.341 568.554 850.948 565.871 851.001Z" fill="#356579"/>
    <path d="M481.08 779.158C481.247 779.902 481.104 780.664 480.739 781.618C479.237 780.801 478.975 779.89 481.08 779.158Z" fill="#356579"/>
    <path d="M609.464 761.282C609.795 760.342 610.489 759.399 611.432 758.288C611.799 759.605 612.097 761.196 609.464 761.282Z" fill="#356579"/>
    <path d="M258.246 868.251C257.62 868.71 256.872 868.857 255.836 868.986C255.849 867.227 256.534 866.453 258.246 868.251Z" fill="#356579"/>
    <path d="M287.715 858.993C287.461 858.283 287.537 857.526 287.699 856.496C289.407 856.983 290.028 857.84 287.715 858.993Z" fill="#356579"/>
    <path d="M187.71 851.717C188.282 851.361 189.147 851.168 190.352 850.993C190.416 853.221 189.191 852.494 187.71 851.717Z" fill="#356579"/>
    <path d="M204.334 837.665C204.091 836.814 204.15 835.912 204.385 834.722C204.74 835.49 206.573 836.507 204.334 837.665Z" fill="#356579"/>
    <path d="M197.767 817.948C197.227 817.951 196.693 817.629 195.995 817.134C196.088 816.491 196.243 815.816 196.952 815.963C197.847 816.148 197.699 816.967 197.767 817.948Z" fill="#356579"/>
    <path d="M572.956 732.901C572.392 732.517 572.073 732.196 571.458 731.697C571.902 730.52 572.882 730.282 574.38 730.836C574.799 731.322 574.88 731.582 574.804 732.219C574.166 732.718 573.684 732.841 572.956 732.901Z" fill="#2A2A2A"/>
    <path d="M841.337 277.814C841.072 277.475 840.992 277.006 841.013 276.379C841.706 276.581 841.973 277.032 841.337 277.814Z" fill="black"/>
    <path d="M567.819 798.275C568.025 799 567.771 799.26 567.209 799.15C567.092 799.127 566.935 798.962 566.917 798.844C566.831 798.277 567.107 798.039 567.819 798.275Z" fill="#356579"/>
    <path d="M574.975 732.594C574.62 732.339 574.593 732.083 574.541 731.441C575.01 730.504 575.647 730.3 576.702 730.36C577.063 730.69 577.086 730.948 577.136 731.595C576.542 732.186 575.922 732.389 574.975 732.594Z" fill="#05081D"/>
    <path d="M713.04 783.463C713.074 783.881 712.926 784.136 712.557 784.457C712.22 784.395 712.103 784.269 711.811 783.951C711.756 783.606 711.877 783.452 712.243 783.139C712.611 783.086 712.734 783.193 713.04 783.463Z" fill="white"/>
    <path d="M722.239 308.738C722.22 308.608 722.392 308.448 722.735 308.222C722.772 308.358 722.613 308.543 722.239 308.738Z" fill="#1FD08C"/>
    <path d="M429.667 504.784C435.065 501.686 440.98 499.986 447.224 498.153C455.002 506.453 462.54 514.781 469.818 523.329C471.752 525.6 472.814 525.568 474.958 523.672C487.03 512.992 499.237 502.466 511.554 491.626C513.399 489.956 515.153 490.922 516.731 491.444C524.587 494.041 532.592 496.168 540.384 498.959C547.566 501.532 553.293 506.014 557.725 512.627C558.4 514.032 558.217 515.083 557.541 516.083C557.324 516.405 557.007 516.672 556.953 517.09C557.543 517.094 557.767 516.45 558.585 516.268C572.555 535.242 584.966 555.164 599.069 573.91C601.643 577.332 597.854 578.307 596.179 580.429C592.698 581.856 589.499 581.019 586.315 580.455C560.601 575.902 534.978 570.866 509.353 565.844C509.07 565.789 508.815 565.607 508.251 565.233C491.874 563.887 475.814 562.559 459.729 561.707C441.403 560.738 419.653 569.903 407.713 591.844C397.419 610.759 400.278 629.188 408.801 647.544C416.919 665.027 428.26 680.283 441.992 694.189C441.672 696.811 441.672 696.811 439.979 698.666C440.884 697.835 441.691 696.568 443.507 696.269C445.759 698.16 443.714 699.211 442.874 700.321C437.266 707.733 431.574 715.081 425.78 722.748C422.721 726.897 419.791 730.748 416.509 735.061C415.862 729.451 415.281 724.417 414.597 719.033C413.099 716.904 412.984 714.617 412.095 712.63C409.431 706.675 406.776 705.674 400.636 708.714C397.928 711.847 399.399 715.545 398.096 718.732C395.907 718.163 394.825 716.659 393.384 715.668C391.43 714.325 389.192 713.881 387.117 714.934C384.913 716.053 384.5 718.335 384.663 720.662C384.843 723.224 385.834 725.504 387.226 727.619C391.369 733.91 396.192 739.62 401.847 744.611C402.829 745.478 404.061 746.099 404.67 747.724C405.679 749.017 405.747 749.861 404.8 751.035C398.788 758.489 393.035 766.16 385.987 772.715C384.215 774.362 382.243 775.563 379.418 775.7C367.326 742.551 359.447 708.528 356.279 673.529C353.289 640.49 354.242 607.688 364.869 575.798C367.394 568.222 370.554 560.914 374.469 553.596C387.065 551.246 399.577 549.173 412.101 547.17C427.654 544.683 443.217 542.254 459.647 539.663C449.376 527.764 439.58 516.416 429.667 504.784Z" fill="#356579"/>
    <path d="M557.978 513.655C550.516 503.762 540.178 499.3 528.795 496.435C523.244 495.039 517.825 493.122 512.028 491.403C506.748 489.486 501.756 487.676 496.84 485.681C495.452 485.118 493.244 484.62 493.793 482.523C494.276 480.68 496.297 481.599 497.667 481.404C498.771 481.248 499.955 481.857 501.627 480.679C499.549 479.646 497.79 478.772 495.711 477.85C494.822 477.824 494.313 477.669 493.779 477.04C492.601 474.949 488.717 474.545 489.786 472.101C490.961 469.416 493.955 471.368 496.185 471.575C497.192 471.668 498.215 471.591 499.807 471.591C497.252 468.728 493.97 468.267 491.259 466.807C488.659 465.407 484.099 464.386 485.276 460.992C486.502 457.458 490.449 460.235 493.023 460.825C498.124 461.996 503.102 463.707 508.874 465.415C507.133 461.603 503.838 460.582 501.682 458.408C499.903 456.615 496.07 455.211 497.586 452.472C499.327 449.323 502.502 451.881 504.976 452.872C508.666 454.352 512.339 455.875 516.338 457.413C517.51 457.42 518.367 457.324 519.503 457.696C524.587 459.664 529.368 461.566 534.337 462.865C537.994 463.821 538.635 463.047 537.381 459.392C535.954 455.226 534.019 451.26 532.164 446.912C531.936 445.924 531.975 445.266 532.411 444.33C532.725 442.241 532.31 439.985 535.735 440.653C536.893 440.815 537.53 441.292 538.434 441.901C543.21 446.479 546.769 451.683 550.844 456.854C551.942 458.639 552.882 460.165 554.417 461.633C560.65 471.112 567.306 479.94 573.075 489.362C573.992 490.859 575.221 492.191 575.468 494.313C575.228 494.664 575.062 494.707 574.653 494.835C569.664 499.203 565.797 504.226 562.101 509.407C561.001 510.949 560.023 512.656 557.978 513.655Z" fill="#FE6B6B"/>
    <path d="M625.812 262.658C636.989 253.159 647.929 243.868 658.87 234.577C659.279 235.067 659.688 235.557 660.096 236.047C576.944 306.78 493.792 377.513 410.639 448.246C410.224 447.761 409.808 447.277 409.393 446.793C445.385 416.151 481.37 385.5 517.373 354.869C553.431 324.191 589.507 293.533 625.812 262.658Z" fill="white"/>
    <path d="M677.13 290.373C677.47 290.843 677.533 291.412 677.539 292.263C651.986 313.941 626.466 335.311 600.997 356.74C551.421 398.451 501.876 440.199 452.294 481.903C451.235 482.794 450.402 484.228 448.369 484.069C448.203 482.04 449.918 481.391 451.018 480.465C501.143 438.25 551.282 396.053 601.43 353.866C626.561 332.724 651.711 311.603 677.13 290.373Z" fill="white"/>
    <path d="M563.48 347.803C587.814 327.126 611.914 306.661 636.45 285.826C635.842 289.531 447.212 450.239 442.864 450.429C482.992 416.291 523.119 382.153 563.48 347.803Z" fill="white"/>
    <path d="M591.227 268.019C529.002 320.899 467.006 373.56 404.996 426.204C404.821 426.353 404.442 426.262 404.158 426.28C404.89 423.402 593.138 262.895 597.628 261.553C596.168 264.55 593.459 265.844 591.227 268.019Z" fill="white"/>
    <path d="M538.001 442.244C537.194 441.861 536.704 441.504 536.145 440.924C584.796 399.299 633.514 357.894 682.49 316.369C682.837 316.843 682.927 317.438 682.991 318.336C681.588 322.772 677.638 324.512 674.683 326.989C654.075 344.263 633.732 361.849 613.207 379.219C592.231 396.972 571.232 414.701 550.441 432.674C546.552 436.036 542.837 439.679 538.001 442.244Z" fill="white"/>
    <path d="M532.298 444.125C532.652 444.61 532.731 445.189 532.766 446.06C532.809 448.308 531.182 448.994 529.987 449.963C526.525 452.772 523.443 456.056 519.244 458.261C518.281 458.067 517.633 457.952 516.822 457.642C521.779 453.036 526.9 448.627 532.298 444.125Z" fill="white"/>
    <path d="M685.777 285.358C684.767 285.472 684.572 284.943 684.542 283.983C686.959 282.23 688.69 279.711 692.281 278.346C690.81 282.042 687.969 283.185 685.777 285.358Z" fill="#241A01"/>
    <path d="M493.436 476.981C494.171 476.966 494.661 477.149 495.27 477.567C493.767 478.963 492.635 480.802 490.313 481.442C489.846 478.92 492.15 478.455 493.436 476.981Z" fill="white"/>
    <path d="M700.521 382.471C707.902 400.116 709.243 417.732 702.29 435.475C700.323 440.493 698.15 445.884 690.882 445.797C688.495 445.142 688.301 443.155 687.618 441.604C684.929 435.495 683.09 429.077 680.927 422.777C680.249 420.802 679.526 418.857 677.857 417.466C665.718 407.346 663.471 393.965 665.291 379.263C665.49 377.65 665.824 376.051 666.023 374.434C666.064 374.097 665.958 373.845 665.341 373.457C657.977 379.113 649.595 383.616 640.166 384.048C631.899 384.427 628.79 388.869 626.973 396.044C625.776 399.462 625.466 402.686 625.191 406.269C624.592 412.599 625.5 418.357 628.417 423.622C631.567 429.307 636.292 432.613 643.097 432.301C644.703 432.228 646.335 432.221 648.19 433.01C650.867 435.944 650.39 439.629 651.745 443.094C653.346 448.936 653.353 448.987 659.116 448.193C664.531 447.447 669.932 446.718 675.668 448.066C678.456 448.891 681.181 448.051 683.618 449.764C674.404 450.43 665.092 449.632 655.724 452.058C649.076 454.059 642.887 456.438 635.868 456.878C620.866 452.677 607.78 446.108 599.094 432.873C596.508 428.934 595.795 424.396 594.954 419.542C593.772 402.804 600.058 392.485 615.34 386.269C621.61 383.719 626.642 380.502 630.593 374.423C637.876 363.215 649.63 359.685 662.859 359.42C678.491 358.301 688.83 366.665 697.874 377.51C699.03 378.897 699.676 380.55 700.521 382.471Z" fill="#030201"/>
    <path d="M676.237 448.117C668.885 448.626 661.837 448.895 654.814 450.149C649.804 451.043 652.068 446.16 650.887 443.633C653.945 438.098 658.596 434.196 662.072 428.986C662.338 428.55 662.446 428.377 662.72 427.946C663.113 427.347 663.348 427.011 663.787 426.44C666.736 423.828 669.596 421.578 672.306 419.156C666.446 424.366 660.261 429.085 652.728 432.376C651.314 433.004 650.18 433.508 648.594 433.38C631.623 434.523 623.426 425.816 623.977 407.038C624.609 406.421 625.046 406.034 625.51 405.684C629.978 402.314 630.092 400.91 626.112 396.397C626.44 392.202 628.395 388.907 630.406 385.633C631.14 384.44 632.016 383.715 633.581 383.683C646.031 383.431 656.844 378.803 666.513 371.182C666.834 370.929 667.294 370.853 668.047 370.55C667.163 375.873 665.936 380.878 665.768 386.051C665.37 398.297 669.071 408.759 678.77 416.638C680.649 418.164 681.383 420.116 682.006 422.24C684.293 430.04 687.022 437.678 690.452 445.422C685.881 446.479 681.2 447.215 676.237 448.117Z" fill="#FB6A69"/>
    <path d="M595.485 418.896C598.238 438.652 612.895 446.814 628.766 453.804C630.642 454.63 632.616 455.232 634.818 456.179C633.082 459.641 629.211 459.298 626.375 460.946C624.984 461.755 623.279 461.799 621.514 462.604C619.151 463.519 617.429 464.766 616.077 466.901C615.873 469.723 615.177 471.938 612.349 473.262C598.769 471.97 585.956 468.363 572.863 466.322C568.061 465.574 563.294 464.608 558.47 464C556.969 463.811 555.598 463.394 554.079 462.265C552.304 461.153 551.483 459.716 550.619 457.988C550.605 456.172 551.848 455.526 552.82 454.645C565.363 443.286 578.491 432.596 591.04 421.243C592.248 420.151 593.462 419.072 595.485 418.896Z" fill="#356579"/>
    <path d="M553.853 462.394C573.518 464.414 592.864 469.189 612.854 472.538C613.705 473.434 613.927 474.323 613.772 475.196C612.351 483.181 612.491 491.36 610.535 499.63C610.226 501.331 610.146 502.706 609.985 504.487C609.157 505.447 608.278 505.739 607.398 505.603C599.091 504.32 590.634 503.77 582.386 500.417C580.017 498.461 577.967 496.706 575.655 494.787C568.252 483.976 561.11 473.331 553.853 462.394Z" fill="#FDFBFF"/>
    <mask id="path-205-inside-4_18_279" fill="white">
    <path d="M718.992 434.967C711.35 431.011 707.752 424.802 708.759 417.731C709.738 410.854 714.84 405.346 721.44 404.038C728.637 402.611 735.264 405.489 738.879 411.609C742.204 417.238 741.817 424.277 737.896 429.518C733.644 435.2 727.211 437.132 718.992 434.967Z"/>
    </mask>
    <path d="M718.992 434.967C711.35 431.011 707.752 424.802 708.759 417.731C709.738 410.854 714.84 405.346 721.44 404.038C728.637 402.611 735.264 405.489 738.879 411.609C742.204 417.238 741.817 424.277 737.896 429.518C733.644 435.2 727.211 437.132 718.992 434.967Z" fill="white" stroke="black" stroke-width="1.77833" mask="url(#path-205-inside-4_18_279)"/>
    <mask id="path-206-inside-5_18_279" fill="white">
    <path d="M688.808 505.706C694.322 511.916 695.474 518.84 692.225 525.064C689.11 531.03 682.718 534.47 676.085 533.75C669.295 533.012 663.838 528.23 662.018 521.419C660.353 515.192 663.052 508.112 668.541 504.308C674.787 499.979 681.65 500.381 688.808 505.706Z"/>
    </mask>
    <path d="M688.808 505.706C694.322 511.916 695.474 518.84 692.225 525.064C689.11 531.03 682.718 534.47 676.085 533.75C669.295 533.012 663.838 528.23 662.018 521.419C660.353 515.192 663.052 508.112 668.541 504.308C674.787 499.979 681.65 500.381 688.808 505.706Z" fill="white" stroke="black" stroke-width="1.77833" mask="url(#path-206-inside-5_18_279)"/>
    <mask id="path-207-inside-6_18_279" fill="white">
    <path d="M646.58 583.322C653.256 589.141 655.223 595.494 652.692 602.392C650.383 608.686 644.451 612.908 637.792 612.995C631.189 613.082 625.204 609.308 622.613 603.423C619.944 597.362 621.283 590.095 625.938 585.376C630.419 580.833 637.545 579.352 643.545 581.751C644.498 582.132 645.39 582.662 646.58 583.322Z"/>
    </mask>
    <path d="M646.58 583.322C653.256 589.141 655.223 595.494 652.692 602.392C650.383 608.686 644.451 612.908 637.792 612.995C631.189 613.082 625.204 609.308 622.613 603.423C619.944 597.362 621.283 590.095 625.938 585.376C630.419 580.833 637.545 579.352 643.545 581.751C644.498 582.132 645.39 582.662 646.58 583.322Z" fill="white" stroke="black" stroke-width="1.77833" mask="url(#path-207-inside-6_18_279)"/>
    <path d="M508.045 565.317C515.659 565.148 523.008 567.488 530.502 568.887C552.063 572.914 573.537 577.41 595.581 580.71C604.441 590.316 612.949 599.94 621.56 609.841C621.617 611.136 621.289 612.016 620.162 612.763C612.258 604.268 604.552 595.687 596.997 586.975C594.762 584.398 592.353 583.017 588.847 582.397C565.139 578.2 541.475 573.752 517.835 569.188C514.083 568.464 513.518 568.958 514.669 572.671C524.64 604.857 534.452 637.092 544.302 669.315C546.721 677.227 549.105 685.149 551.532 693.414C551.215 694.048 550.824 694.19 550.104 693.981C545.788 681.502 541.743 669.203 537.493 656.643C534.729 654.324 534.609 651.161 533.6 648.061C533.523 647.535 533.503 647.324 533.556 646.482C531.86 636.841 528.36 628.355 525.608 619.647C519.906 601.604 513.98 583.632 508.045 565.317Z" fill="#2039D2"/>
    <mask id="path-209-inside-7_18_279" fill="white">
    <path d="M610.622 500.063C610.473 491.025 611.085 482.141 613.187 473.03C613.998 470.944 614.769 469.241 615.76 467.363C630 467.186 638.768 477.761 634.968 490.09C631.89 500.076 621.753 504.328 610.622 500.063Z"/>
    </mask>
    <path d="M610.622 500.063C610.473 491.025 611.085 482.141 613.187 473.03C613.998 470.944 614.769 469.241 615.76 467.363C630 467.186 638.768 477.761 634.968 490.09C631.89 500.076 621.753 504.328 610.622 500.063Z" fill="white" stroke="black" stroke-width="1.77833" mask="url(#path-209-inside-7_18_279)"/>
    <path d="M700.729 382.355C698.351 379.855 696.054 376.89 693.527 374.136C685.626 365.525 676.424 359.628 663.7 360.467C663.154 358.29 664.725 357.182 666.039 356.104C672.432 350.858 678.49 345.224 684.847 339.939C685.651 339.271 686.484 338.666 687.899 338.706C689.033 341.646 689.856 344.506 690.78 347.682C692.139 348.727 687.891 349.36 691.128 350.201C693.592 359.327 697.067 367.959 699.853 376.811C700.39 378.518 700.912 380.178 700.729 382.355Z" fill="#356579"/>
    <path d="M582.177 500.452C591.097 501.734 600.128 503.253 609.531 504.833C610.152 511.373 610.402 517.853 610.628 524.726C607.722 524.623 606.52 522.098 604.787 520.242C602.445 517.734 600.627 514.662 596.878 513.437C591.282 509.815 587.139 504.857 582.177 500.452Z" fill="#356579"/>
    <path d="M621.22 578.295C615.111 578.926 610.369 576.269 604.845 573.327C609.701 572.413 613.928 572.707 618.018 572.429C629.366 571.658 636.815 565.736 642.379 556.462C643.167 555.149 643.703 553.424 645.77 552.905C645.577 560.795 640.983 566.535 636.058 572.002C632.248 576.233 627.428 578.588 621.22 578.295Z" fill="#0D925F"/>
    <path d="M621.096 578.576C621.969 576.885 623.596 577.503 624.981 577.225C631.479 575.925 635.943 571.846 639.453 566.539C642.131 562.489 644.25 558.14 645.995 553.264C646.082 552.957 646.046 552.824 645.997 552.775C645.958 552.127 646.02 551.54 646.652 550.908C649.931 544.553 651.219 537.496 655.818 531.198C656.111 532.422 656.401 532.902 656.268 533.18C651.504 543.151 648.791 553.99 643.436 563.7C639.81 570.274 635.408 576.109 627.763 578.477C625.628 579.139 623.517 579.695 621.096 578.576Z" fill="#241A01"/>
    <path d="M621.619 462.724C625.119 459.513 630.192 458.86 634.811 456.511C641.613 454.989 648.135 453.558 655.025 452.165C644.907 457.724 634.06 462.103 621.619 462.724Z" fill="#1B9D6B"/>
    <path d="M596.726 513.746C598.119 510.567 599.256 513.186 600.027 513.962C603.507 517.462 606.798 521.151 610.381 524.946C612.926 528.86 616.39 531.881 617.655 536.365C610.715 528.872 604.777 520.523 596.726 513.746Z" fill="#241A01"/>
    <path d="M691.653 350.096C689.755 350.458 688.619 352.521 686.563 351.644C687.008 349.478 689.209 349.546 690.64 348.21C698.703 344.461 706.25 340.263 714.941 338.18C715.717 340.631 713.506 340.262 712.407 340.683C705.389 343.367 698.497 346.311 691.653 350.096Z" fill="#241A01"/>
    <path d="M557.62 513.956C561.848 508.378 565.982 503.059 570.251 497.852C571.213 496.679 571.89 494.984 574.102 494.882C573.59 498.25 570.573 499.953 568.742 502.542C565.612 506.968 562.33 511.287 558.997 515.925C557.761 517.638 556.64 519.078 555.236 520.883C554.248 517.575 557.018 516.349 557.62 513.956Z" fill="#241A01"/>
    <path d="M706.427 482.862C706.195 476.732 706.519 471.068 708.714 465.564C708.34 473.158 708.106 480.723 708.776 488.755C705.776 487.352 707.037 484.962 706.427 482.862Z" fill="#241A01"/>
    <path d="M646.61 550.882C646.743 551.318 646.563 551.85 646.165 552.554C645.672 552.065 645.704 551.466 646.61 550.882Z" fill="#FF7E06"/>
    <path d="M534.142 646.422C535.273 649.683 536.267 652.701 537.275 656.05C525.174 659.064 513.049 661.7 500.956 664.475C498.715 664.989 497.208 665.106 495.975 662.625C489.809 650.21 483.47 637.881 477.417 625.342C478.899 624.837 479.663 625.756 480.773 626.75C479.741 624.737 478.023 623.628 478.156 621.31C481.377 621.115 483.573 623.298 486.124 624.609C501.412 632.463 516.956 639.746 533.295 645.938C533.628 645.851 533.606 645.823 533.609 645.805C533.743 645.918 533.874 646.049 534.142 646.422Z" fill="#356579"/>
    <path d="M560.827 728.829C556.395 729.239 552.097 729.317 547.386 729.461C539.877 729.961 533.075 731.809 525.958 733.828C527.017 730.949 529.787 729.47 532.035 727.452C541.48 718.973 548.562 709.152 549.787 695.617C552.715 697.525 552.874 701.072 553.79 704.188C556.171 712.293 559.548 720.108 560.827 728.829Z" fill="#E04647"/>
    <path d="M443.923 696.041C441.573 698.277 439.342 700.242 437.111 702.207C437.49 698.674 440.408 697.233 442.165 694.595C450.764 687.063 458.892 679.318 468.421 673.299C472.917 670.459 477.499 667.814 482.543 666.062C483.829 665.616 485.097 664.582 487.194 666.231C469.908 672.336 456.748 683.731 443.923 696.041Z" fill="#241A01"/>
    <path d="M560.983 729.297C557.217 718.027 553.741 706.894 550.058 695.495C549.833 694.911 549.815 694.594 549.815 694.038C550.216 693.792 550.599 693.784 551.27 693.768C555.146 705.371 558.733 716.982 562.412 728.945C562.092 729.343 561.682 729.388 560.983 729.297Z" fill="#122AC1"/>
    <path d="M478.321 620.989C479.805 623.523 481.354 626.014 483.142 628.891C480.049 629.073 480.034 626.049 477.945 625.279C473.577 617.566 466.961 611.971 461.85 605.141C467.964 609.017 472.23 614.715 477.308 619.723C477.73 619.937 477.925 620.268 478.336 620.808C478.503 621.046 478.385 620.947 478.321 620.989Z" fill="#241A01"/>
    <path d="M524.873 733.91C524.661 734.247 524.128 734.52 523.285 734.787C523.319 734.163 523.842 733.847 524.873 733.91Z" fill="#E04647"/>
    <path d="M478.458 620.749C477.922 621.099 477.532 620.85 477.461 619.937C477.864 619.866 478.138 620.158 478.458 620.749Z" fill="#356579"/>
    <path d="M413.108 718.341C413.411 723.945 413.834 729.233 414.382 734.508C414.679 737.368 413.935 739.738 411.191 742.009C408.433 733.608 401.898 727.128 400.834 718.084C400.537 715.556 400.412 713.094 401.313 710.309C403.752 706.215 407.496 705.819 410.079 709.188C412.048 711.756 413.236 714.704 413.108 718.341Z" fill="#356579"/>
    <path d="M396.613 719.379C402.663 727.253 403.628 737.025 408.089 745.247C408.7 746.373 408.115 747.464 406.144 747.161C397.444 741.177 390.602 733.902 385.919 724.816C383.429 719.987 384.139 716.837 387.322 715.026C390.053 713.472 393.55 715.01 396.613 719.379Z" fill="#356579"/>
    <path d="M396.846 719.487C395.377 718.584 394.081 717.388 392.652 716.379C391.003 715.215 389.187 714.613 387.337 716.008C385.474 717.413 384.96 719.275 385.629 721.502C386.708 725.092 388.707 728.173 390.958 731.103C395.288 736.74 400.394 741.645 405.688 746.756C405.548 747.217 405.291 747.403 404.916 747.798C397.622 742.265 391.44 735.603 386.44 727.89C385.414 726.307 384.749 724.47 384.048 722.699C382.771 719.469 383.277 716.571 386.135 714.41C388.992 712.249 391.726 713.293 394.253 715.129C395.434 715.987 396.434 717.094 397.601 718.38C397.445 718.873 397.203 719.075 396.846 719.487Z" fill="#2A2A2A"/>
    <path d="M413.326 718.668C411.993 716.084 411.315 713.363 410.043 710.957C408.05 707.188 405.65 706.924 401.659 709.796C401.19 709.683 401.009 709.404 400.606 709.011C403.604 704.908 407.963 704.746 410.941 708.629C413.04 711.368 413.94 714.647 414.547 718.334C414.235 718.68 413.975 718.676 413.326 718.668Z" fill="#2A2A2A"/>
    <path d="M717.021 263.349C715.266 268.119 713.309 272.657 711.351 277.196C711.169 277.139 710.987 277.083 710.804 277.027C711.269 271.043 711.734 265.059 712.199 258.668C713.739 259.88 715.278 261.498 717.021 263.349Z" fill="#356579"/>
    <path d="M723.516 270.829C722.829 272.885 721.91 274.833 720.518 277.782C720.444 274.443 721.57 272.704 722.606 270.651C722.997 270.534 723.14 270.627 723.516 270.829Z" fill="#356579"/>
    <path d="M193.299 609.817C188.097 636.025 168.196 652.586 143.028 652.021C117.506 651.448 95.9941 629.795 95.6183 604.299C95.2253 577.629 115.273 555.875 141.238 554.027C170.322 551.958 197.288 576.564 193.299 609.817Z" fill="#1FD08C"/>
    <path d="M688.182 338.471C680.024 345.835 671.838 352.883 663.476 360.16C656.491 360.782 649.803 361.587 643.55 364.685C637.528 367.67 632.645 371.892 629.616 377.84C627.783 381.44 625.117 383.472 621.511 384.783C619.16 385.638 616.91 386.771 614.616 387.78C601.376 393.607 594.692 403.468 595.851 418.568C580.898 431.768 565.996 444.588 550.822 457.562C546.387 452.725 542.224 447.733 537.873 442.481C550.344 431.351 562.966 420.439 575.67 409.624C611.223 379.359 646.811 349.134 682.675 318.766C685.38 324.962 686.359 331.667 688.182 338.471Z" fill="#073A4D"/>
    <path d="M722.972 293.812C722.754 296.06 721.684 297.533 719.107 299.309C719.857 296.129 720.419 294.256 722.972 293.812Z" fill="#241A01"/>
    <path d="M716.137 291.661C715.133 293.277 714.975 295.491 712.044 295.804C713.148 293.621 713.04 291.174 716.137 291.661Z" fill="#241A01"/>
    <path d="M706.658 288.424C707.709 287.66 708.793 287.406 708.423 288.807C708.044 290.242 707.384 291.84 705.398 292.381C704.367 290.721 706.073 289.868 706.658 288.424Z" fill="#241A01"/>
    <path d="M719.643 278.702C719.713 278.567 719.779 278.544 719.845 278.522C719.843 278.639 719.841 278.755 719.839 278.871C719.773 278.852 719.706 278.833 719.643 278.702Z" fill="#1FD08C"/>
    <path d="M718.889 281.069C718.874 281.078 718.904 281.059 718.889 281.069V281.069Z" fill="#1FD08C"/>
    <path d="M907.651 392.419C946.773 375.953 988.283 398.82 995.199 440.343C1001.09 475.708 973.263 510.114 937.432 511.77C906.262 513.21 879.942 493.976 872.524 464.337C865.295 435.452 879.587 405.985 907.651 392.419Z" fill="#1FD08C"/>
    <path d="M386.659 232.253C383.534 234.725 380.531 235.089 377.466 232.946C374.761 231.053 373.877 228.355 374.553 225.204C375.208 222.154 377.293 220.382 380.261 219.765C383.286 219.136 385.896 220.188 387.577 222.703C389.685 225.858 389.459 229.077 386.659 232.253Z" fill="#1FD08C"/>
    <path d="M553.665 692.173C541.381 652.852 529.39 613.724 517.296 574.627C516.157 570.944 517.413 571.152 520.36 571.711C543.424 576.082 566.514 580.324 589.616 584.493C592.016 584.926 593.608 586.125 595.107 587.848C602.967 596.886 610.871 605.887 618.896 615.159C619.996 617.113 619.733 618.767 619.049 620.51C612.829 636.351 605.935 651.803 594.398 664.684C590.737 668.772 586.562 672.304 582.169 675.501C574.302 681.227 566.275 686.753 557.679 691.373C556.521 691.995 555.357 692.715 553.665 692.173Z" fill="#2039D2"/>
    <path d="M553.441 692.293C561.025 688.982 567.553 684.13 574.314 679.671C585.599 672.228 595.82 663.685 602.737 651.812C609.341 640.475 615.679 629.003 619.004 615.786C632.935 631.151 646.845 646.878 660.738 662.62C666.023 668.609 671.27 674.631 676.661 680.904C673.408 687.527 667.592 691.488 662 695.446C643.998 708.189 623.924 716.576 602.788 722.539C592.977 725.307 583.036 727.534 572.963 729.136C570.489 729.529 568.017 729.999 565.203 729.552C563.401 724.569 561.977 719.752 560.332 715.012C559.355 712.197 559.791 710.988 563.05 710.311C575.932 707.632 588.584 704.066 600.769 699.029C606.785 696.542 612.736 693.869 617.674 689.464C621.191 686.327 623.044 682.894 621.668 677.736C619.038 667.887 621.434 658.421 625.125 649.208C625.643 647.914 626.826 646.794 626.439 645.204C624.888 644.449 624.546 645.685 624.145 646.536C619.367 656.694 617.223 667.275 619.696 678.401C620.822 683.462 618.461 686.6 614.767 689.29C607.007 694.938 598.094 698.124 589.13 701.161C580.311 704.149 571.255 706.293 562.225 708.538C559.415 709.237 558.236 708.51 557.522 705.737C556.383 701.31 554.849 696.984 553.441 692.293Z" fill="#122AC1"/>
    <path d="M564.913 729.701C594.655 725.168 623.311 717.545 649.623 702.554C659.556 696.894 668.703 690.196 676.578 681.396C677.517 681.647 678.451 682.028 677.608 683.497C651.927 708.587 619.74 719.753 586.26 728.252C583.399 728.978 580.491 729.52 577.322 730.29C576.398 730.55 575.757 730.668 574.816 730.921C573.603 731.104 572.689 731.152 571.469 731.361C569.095 730.955 566.133 734.193 564.913 729.701Z" fill="#1FD08C"/>
    <path d="M884.028 333.035C875.44 333.888 869.642 330.429 867.781 323.619C866.014 317.15 869.102 310.546 875.188 307.782C881.732 304.809 889.332 307.416 892.625 313.763C895.974 320.219 893.845 327.774 887.589 331.486C886.584 332.082 885.466 332.488 884.028 333.035Z" fill="#1FD08C"/>
    <path d="M116.128 262.686C114.047 265.758 111.425 266.613 108.288 265.522C105.673 264.613 104.297 262.618 104.202 259.846C104.102 256.875 105.517 254.806 108.216 253.625C110.641 252.565 112.858 253.116 114.74 254.808C117.075 256.908 117.608 259.481 116.128 262.686Z" fill="#1FD08C"/>
    <path d="M596.299 163.989C597.13 176.268 590.41 186.051 579.605 188.776C569.12 191.42 558.318 186.266 553.825 176.477C548.31 164.457 554.15 150.388 566.501 145.942C578.809 141.51 592.381 148.716 595.736 161.469C595.924 162.183 596.056 162.911 596.299 163.989Z" fill="#1FD08C"/>
    <path d="M195.509 846.223C185.796 851.84 175.493 849.246 170.95 840.306C166.713 831.969 170.202 821.788 178.679 817.745C185.987 814.26 194.985 816.723 199.517 823.45C204.5 830.849 203.044 839.627 195.509 846.223Z" fill="#1FD08C"/>
    <path d="M712.667 782.733C712.242 783.082 712.03 783.233 711.743 783.595C698.468 795.504 678.761 789.496 673.734 773.989C670.607 764.344 673.945 753.881 682.054 747.973C690.32 741.952 701.492 742.053 709.733 748.251C710.673 748.958 711.51 749.801 712.674 750.694C721.018 762.523 720.985 772.223 712.667 782.733Z" fill="#1FD08C"/>
    <path d="M877.152 706.509C877.075 708.864 876.071 709.824 874.068 708.886C872.975 708.375 872.695 707.224 873.362 706.246C874.449 704.651 875.759 704.792 877.152 706.509Z" fill="#1FD08C"/>
    <path d="M519.188 458.417C523.338 454.345 527.749 450.508 532.441 446.511C535.465 450.889 537.298 455.835 539.035 460.805C540.269 464.339 539.294 465.424 535.532 464.425C530.021 462.961 524.616 461.112 519.188 458.417Z" fill="#073A4D"/>
    <path d="M522.793 478.904C521.724 478.066 520.142 478.217 520.069 476.464C522.002 475.49 523.214 477.241 524.706 477.77C525.327 477.99 525.597 478.534 525.057 479.11C524.388 479.825 523.729 479.239 522.793 478.904Z" fill="#241A01"/>
    <path d="M523.492 470.309C522.098 469.52 521.604 468.37 523.196 468.387C524.769 468.404 526.826 468.929 527.457 471.125C525.88 472.06 524.954 470.617 523.492 470.309Z" fill="#241A01"/>
    <path d="M519.791 485.542C518.21 484.435 517.753 483.313 519.893 483.604C521.223 483.785 522.999 484.287 523.902 486.112C522.405 487.468 521.28 485.952 519.791 485.542Z" fill="#241A01"/>
    <path d="M503.749 481.773C503.542 482.259 503.233 482.244 502.953 481.845C503.176 481.775 503.399 481.704 503.749 481.773Z" fill="#061115"/>
    <path d="M648.352 433.669C649.316 432.843 650.341 432.367 651.645 431.809C656.125 432.054 658.789 428.274 662.932 427.855C660.632 434.053 655.891 438.413 651.182 443.141C649.396 440.37 649.401 437.06 648.352 433.669Z" fill="#E04647"/>
    <path d="M625.749 396.379C628.965 396.59 630.44 398.823 630.185 401.348C629.901 404.163 628.098 406.455 624.457 406.748C623.836 403.264 624.595 399.936 625.749 396.379Z" fill="#E04647"/>
    <path d="M653.747 407.384C656.345 409.754 656.329 412.204 654.792 414.737C653.625 416.659 651.674 416.807 649.706 416.527C647.291 416.183 645.798 414.857 645.204 412.367C644.614 409.894 646.053 408.457 647.568 407.088C649.491 405.349 651.544 405.458 653.747 407.384Z" fill="#E04647"/>
    <path d="M663.221 428.005C659.377 429.033 656.713 433.042 652.059 432.026C660.314 428.103 667.612 422.867 674.021 416.318C672.892 419.957 671.596 421.316 664.429 426.982C664.045 427.421 663.83 427.62 663.426 427.93C663.236 428.041 663.233 428.014 663.221 428.005Z" fill="#241A01"/>
    <path d="M633.206 405.935C633.784 408.737 636.758 408.608 637.965 410.508C634.111 411.351 630.375 408.534 631.415 405.312C632.705 401.313 634.916 397.681 638.125 394.748C637.778 398.967 634.435 401.806 633.206 405.935Z" fill="#241A01"/>
    <path d="M649.47 400.603C647.725 398.663 648.717 397.595 650.394 396.89C651.257 396.526 652.31 396.715 652.501 397.747C652.877 399.782 651.7 400.651 649.47 400.603Z" fill="#241A01"/>
    <path d="M632.117 390.769C634.573 392.065 633.698 393.395 632.434 394.628C631.704 395.34 630.735 395.364 630.176 394.466C628.982 392.549 630.197 391.538 632.117 390.769Z" fill="#241A01"/>
    <path d="M663.469 428C663.418 427.794 663.6 427.547 664.022 427.262C664.075 427.468 663.889 427.713 663.469 428Z" fill="#E04647"/>
    <path d="M534.282 646.442C534.009 646.522 533.739 646.379 533.54 646.012C533.836 645.931 534.06 646.075 534.282 646.442Z" fill="#FE6B6B"/>
    <path d="M915.596 458.769C915.771 468.395 910.076 474.633 901.762 474.341C894.004 474.069 888.191 467.34 888.904 459.457C889.443 453.492 894.366 448.317 900.191 447.59C907.662 446.657 913.014 450.425 915.596 458.769Z" fill="#FAF4F4"/>
    </svg>
    