<svg  viewBox="0 0 1200 1200" fill="none" xmlns="http://www.w3.org/2000/svg">
    <g clip-path="url(#clip0_2_2)">
    <path d="M916.168 371.147L916.139 371.287L916.151 371.43C916.425 374.87 915.651 377.867 914.798 381.163C914.536 382.179 914.266 383.224 914.017 384.319C912.613 387.934 911.351 391.509 910.105 395.037C907.822 401.503 905.595 407.81 902.653 413.916C891.388 437.296 876.972 457.956 855.162 472.562C853.578 473.623 852.383 474.788 851.69 476.267C850.992 477.752 850.858 479.432 851.161 481.413C855.161 507.582 859.015 533.775 862.86 559.971C864.237 569.346 865.664 578.713 867.157 588.466C867.209 589.817 867.464 591.103 867.699 592.284C867.761 592.596 867.822 592.901 867.877 593.198C868.15 594.674 868.31 596.045 868.035 597.524L868.021 597.603L868.019 597.683C867.895 602.818 868.5 607.749 869.261 612.562C869.5 614.071 869.753 615.562 870.004 617.044C870.559 620.317 871.106 623.543 871.475 626.808C872.048 631.889 872.891 636.944 873.766 642.196C873.976 643.451 874.187 644.718 874.397 646L874.436 646.239L874.58 646.433C875.726 647.98 876.163 649.339 876.358 651.277L876.36 651.303L876.364 651.329C878.465 664.986 880.403 678.25 882.381 691.931C882.394 692.691 882.51 693.447 882.609 694.094C882.651 694.367 882.689 694.62 882.716 694.846C882.816 695.682 882.811 696.411 882.5 697.215L882.408 697.452L882.441 697.705C884.969 717.141 887.679 736.225 890.469 755.294C895.304 788.346 900.158 821.397 905.064 854.439C908 874.217 910.962 893.996 913.923 913.775C916.548 931.304 919.172 948.833 921.779 966.36C924.832 986.886 927.808 1007.42 930.811 1028.37C930.22 1028.77 929.653 1028.84 929.057 1028.78C928.664 1028.74 928.253 1028.64 927.796 1028.51C927.656 1028.47 927.504 1028.42 927.345 1028.37C927.025 1028.28 926.679 1028.17 926.359 1028.09C906.375 1023.02 886.482 1017.69 866.581 1012.36C851.139 1008.23 835.693 1004.09 820.196 1000.07C818.109 999.53 816.676 998.546 815.503 996.503C804.129 976.715 788.121 961.721 767.279 952.345C764.876 951.264 762.471 950.205 760.07 949.147C753.337 946.18 746.637 943.228 740.11 939.862C737.596 938.567 735.167 937.24 732.945 935.616C732.526 935.309 732.057 935.02 731.625 934.754C731.546 934.705 731.468 934.657 731.392 934.61C730.878 934.292 730.42 933.995 730.036 933.673C729.302 933.057 728.945 932.452 729.066 931.558C729.167 930.805 729.604 930.38 730.433 930.022C730.862 929.836 731.353 929.691 731.901 929.539C731.97 929.52 732.04 929.501 732.111 929.481C732.581 929.352 733.093 929.211 733.56 929.039C738.759 927.12 743.828 924.915 748.737 922.32L749.005 922.179C750.672 921.3 752.546 920.312 753.973 918.845C754.945 917.846 756.072 916.64 756.707 915.232C757.374 913.751 757.492 912.061 756.51 910.209C755.614 908.518 754.344 907.518 752.82 907.075C751.342 906.646 749.715 906.767 748.108 907.113C746.695 907.418 745.72 907.622 745.022 907.688C744.482 907.74 744.29 907.685 744.243 907.667C744.222 907.622 744.148 907.425 744.159 906.834C744.174 906.115 744.3 905.112 744.483 903.67C744.63 902.512 744.778 901.172 744.538 899.903C744.288 898.575 743.616 897.332 742.2 896.39C740.723 895.407 739.282 895.219 737.894 895.511C736.57 895.79 735.333 896.499 734.212 897.194C731.715 898.741 730.061 900.933 728.575 903.11C728.323 903.479 728.077 903.846 727.833 904.211C726.646 905.98 725.503 907.684 724.003 909.175C723.856 909.224 723.785 909.237 723.734 909.24C723.7 909.243 723.653 909.243 723.569 909.229C723.423 909.061 723.34 908.925 723.284 908.796C723.211 908.628 723.157 908.415 723.116 908.061C726.871 888.197 730.624 868.475 734.367 848.809C736.974 835.111 739.575 821.439 742.169 807.765C749.132 771.057 756.147 734.359 763.162 697.66C766.675 679.283 770.187 660.906 773.694 642.527C775.434 633.402 777.173 624.278 778.911 615.153C785.298 581.619 791.685 548.087 798.206 514.58C799.072 510.126 799.898 505.675 800.723 501.229C802.082 493.903 803.439 486.59 804.972 479.299C805.457 476.993 805.443 474.981 804.808 473.146C804.172 471.31 802.951 469.758 801.212 468.309C784.258 454.179 770.251 437.493 758.749 418.663C744.006 394.525 734.001 368.596 731.95 340.425C729.242 303.255 734.667 267.231 751.818 233.735C771.923 194.469 803.564 169.636 846.529 159.303C846.697 159.263 846.864 159.222 847.029 159.182C849.248 158.642 851.238 158.158 853.561 158.711C890.156 185.046 907.702 222.427 916.869 264.787C924.506 300.081 923.569 335.457 916.168 371.147Z" fill="#072B3A" stroke="#356579" stroke-width="2"/>
    <path d="M488.999 770.098C498.341 763.801 502.301 754.326 505.132 744.016C506.017 740.793 504.18 739.535 502.283 737.944C485.985 724.27 472.168 708.473 461.192 689.717C463.722 688.142 466.165 689.772 468.734 690.076C470.008 690.227 471.581 690.905 472.331 689.455C473.1 687.967 471.66 687.025 470.679 686.233C466.813 683.113 462.467 680.675 458.444 677.779C457.107 676.817 454.297 676.23 455.302 674.119C456.269 672.088 458.819 672.993 460.73 673.473C462.973 674.036 465.102 675.02 467.392 675.411C471.754 676.155 472.469 675.344 471.61 670.39C474.289 665.607 478.363 662.303 481.14 657.911C489.173 645.207 493.265 631.352 493.935 616.407C493.952 616.026 493.996 615.744 493.775 615.547C493.721 615.664 493.667 615.781 493.467 616.172C487.984 626.38 484.217 637.007 479.649 647.28C476.501 654.359 474.123 661.801 469.479 668.506C466.346 669.173 464.388 667.434 462.328 666.082C455.749 661.766 449.461 657.088 445.093 650.37C441.818 645.331 442.882 641.755 448.274 638.999C450.954 637.63 453.947 637.035 456.625 635.669C457.953 634.992 459.625 634.339 459.541 632.597C459.454 630.778 457.626 630.492 456.238 630.033C453.002 628.961 449.635 629.398 446.314 629.282C443.843 629.195 441.292 629.671 438.701 628.055C437.545 623.157 436.298 618.578 437.737 613.467C438.518 611.821 439.627 611.128 440.859 610.549C458.812 602.098 477.04 594.406 496.934 590.149C498.577 589.809 499.88 589.795 501.5 589.302C502.136 589.109 502.395 589.04 503.053 588.89C511.925 587.483 520.51 586.915 529.331 584.947C542.223 584.705 554.713 583.425 567.541 585.786C570.405 586.77 571.508 588.867 572.377 591.036C582.152 615.447 593.022 639.491 597.709 666.028C597.716 666.672 597.689 666.927 597.516 667.532C595.175 669.484 593.983 667.748 592.865 666.382C586.315 658.385 578.283 652.361 568.825 648.257C559.499 644.21 551.764 638.101 545.158 630.453C544.079 629.203 542.932 627.976 541.06 627.101C538.699 625.611 537.636 623.532 536.435 621.556C543.609 633.427 552.096 644.354 561.191 654.78C570.366 665.297 579.849 675.554 589.682 685.469C593.881 689.703 599.131 692.859 602.653 698.254C604.094 703.71 609.226 704.997 612.725 708.367C613.156 708.662 613.329 708.774 613.753 709.058C614.332 709.454 614.665 709.671 615.26 710.021C615.688 710.261 615.857 710.361 616.27 710.63C616.669 710.927 616.824 711.055 617.428 711.604C618.02 712.18 618.164 712.334 618.519 712.735C618.866 713.157 619.003 713.332 619.331 713.786C636.824 730.86 650.539 750.366 662.242 771.306C669.364 784.05 675.617 797.26 681.859 810.877C689.782 829.646 696.307 848.48 701.421 867.843C704.49 879.462 709.307 890.477 715.967 900.59C720.318 907.198 719.995 908.129 712.601 910.67C711.655 910.994 710.707 911.31 709.406 911.799C680.322 921.936 651.651 932.067 623.033 942.348C618.075 944.129 613.296 946.668 607.483 946.5C606.672 942.013 606.201 937.724 605.687 932.949C606.338 930.655 608.044 930.294 609.589 929.718C632.925 921.019 656.277 912.36 679.577 903.565C657.979 911.771 636.198 919.487 614.643 927.812C611.874 928.881 609.125 930.238 605.648 929.906C601.233 896.977 594.637 864.767 581.978 834.047C580.348 830.092 579.198 825.863 575.823 822.459C574.741 820.746 574.156 819.068 572.966 817.311C572.166 815.952 570.775 815.496 570.363 813.879C570.218 812.979 570.056 812.412 569.397 811.747C568.161 810.656 567.554 809.53 567.099 807.951C566.851 806.809 566.774 805.956 566.135 804.963C565.825 804.548 565.704 804.382 565.42 803.954C564.875 802.977 564.413 802.328 563.456 801.699C562.307 800.826 561.769 799.888 561.232 798.558C560.654 796.328 560.278 794.365 558.256 792.882C557.845 792.486 557.691 792.315 557.349 791.852C553.55 784.71 548.276 779.123 543.202 773.411C534.64 763.768 524.471 755.935 514 747.969C513.466 747.45 513.169 747.157 512.664 746.664C511.95 746.029 512.888 746.242 512.234 746.112C512.243 746.142 512.251 746.108 512.424 746.361C512.892 746.906 513.193 747.205 513.739 747.752C525.07 760.191 534.452 773.342 537.598 789.997C537.998 792.113 538.585 794.253 536.869 796.472C531.214 798.158 525.764 797.025 520.675 797.456C525.223 798.01 530.164 797.008 535.353 798.231C537.847 800.307 537.107 802.637 536.55 804.878C535.33 809.788 533.094 814.247 530.064 818.266C522.689 828.048 517.796 838.771 517.131 851.183C517.051 852.687 516.59 854.127 515.302 855.615C501.723 857.102 488.964 853.342 475.978 851.57C459.192 849.278 442.492 845.782 425.376 847.733C420.526 848.286 422.782 843.672 421.109 841.46C418.404 837.2 418.398 832.545 417.45 828.218C413.245 809.026 408.836 789.877 404.971 770.611C404.676 769.145 404.26 767.69 404.852 765.831C407.971 765.677 410.841 765.862 414.172 766.061C417.011 767.92 416.812 770.834 417.358 773.305C421.75 793.156 425.883 813.064 430.369 832.895C425.852 812.669 421.629 792.38 417.215 772.132C416.863 770.518 416.223 768.94 416.953 766.948C431.055 767.472 444.382 771.4 458.038 773.33C465.871 774.438 473.614 774.47 481.872 772.401C483.524 770.878 485.044 770.982 486.544 771.007C492.012 771.096 497.474 771.05 502.066 770.042C498.318 769.888 493.794 772.063 488.999 770.098Z" fill="#01C372"/>
    <path d="M690.373 831.696C687.86 824.794 685.176 817.92 682.391 811.025C682.545 811.26 682.685 811.566 682.842 811.98C682.887 812.098 682.94 812.243 682.997 812.4C683.112 812.717 683.246 813.086 683.375 813.393C685.916 819.428 688.196 825.54 690.373 831.696ZM700.593 864.317C699 858.049 697.188 851.863 695.205 845.724C696.937 850.811 698.68 855.911 700.521 861.004L700.605 861.236C701.168 862.796 701.752 864.412 702.545 866.233L705.326 865.11C702.661 857.979 700.191 850.761 697.721 843.543C693.504 831.217 689.285 818.89 684.099 806.997C683.614 805.885 683.364 804.63 683.229 802.894C684.511 794.148 686.42 785.763 688.333 777.364C689.032 774.292 689.732 771.219 690.402 768.125C691.447 763.295 692.492 758.465 693.538 753.632C698.33 731.479 703.133 709.28 708.049 686.821L708.055 686.793L708.06 686.765C708.193 686.023 708.344 685.288 708.496 684.548C708.828 682.933 709.165 681.291 709.334 679.492C713.928 661.134 717.816 642.8 721.686 624.557C723.419 616.386 725.148 608.232 726.935 600.103C730.03 586.023 733.089 571.938 736.148 557.855C741.895 531.392 747.64 504.936 753.624 478.527C754.487 474.72 754.58 471.447 753.588 468.42C752.595 465.391 750.576 462.795 747.568 460.223C736.538 450.792 728.308 438.817 721.164 425.996C706.185 399.112 698.189 370.051 695.336 339.553C691.621 299.822 696.689 261.246 711.87 224.192C713.78 219.529 716.055 215.092 718.418 210.483C719.528 208.318 720.658 206.115 721.778 203.834C722.27 203.169 722.713 202.503 723.126 201.874C723.182 201.789 723.237 201.705 723.292 201.621C723.672 201.041 724.028 200.5 724.402 199.977C725.247 198.795 726.122 197.807 727.31 197.036L727.569 196.868L727.741 196.611C740.402 177.672 755.608 162.047 776.279 152.778C800.423 141.952 824.067 143.353 847.336 156.143C846.862 156.53 846.304 156.787 845.658 156.988C845.058 157.174 844.409 157.302 843.676 157.438C843.612 157.45 843.547 157.462 843.482 157.474C842.826 157.595 842.099 157.73 841.397 157.921C815.377 165.034 792.468 177.703 773.969 197.538C752.915 220.112 740.293 247.145 733.865 277.063C728.228 303.298 726.525 329.798 731.658 356.428C738.467 391.747 754.785 422.363 778.195 449.311C784.458 456.521 791.131 463.401 798.615 469.468C800.318 470.849 801.403 472.245 801.984 473.775C802.563 475.302 802.695 477.1 802.259 479.378C798.28 500.182 794.312 520.987 790.344 541.792C785.153 569.012 779.961 596.232 774.745 623.449C770.985 643.071 767.259 662.691 763.532 682.311C759.035 705.987 754.539 729.661 749.985 753.333C745.967 774.214 741.988 795.097 738.009 815.978C732.835 843.128 727.663 870.275 722.406 897.414C722.166 898.653 721.97 899.844 721.774 901.034C721.452 902.981 721.131 904.927 720.621 907.075L720.6 907.165L720.59 907.257C720.114 911.56 719.378 915.433 718.53 919.292C718.325 920.225 718.082 920.845 717.847 921.229C717.619 921.602 717.463 921.652 717.439 921.659C717.412 921.667 717.247 921.709 716.84 921.517C716.423 921.32 715.869 920.929 715.175 920.259C712.549 917.725 710.363 915.432 710.09 911.872C710.588 911.613 711.209 911.401 711.948 911.201C712.364 911.088 712.792 910.985 713.24 910.878L713.269 910.871C713.7 910.768 714.152 910.66 714.59 910.542C715.463 910.306 716.425 909.994 717.226 909.481C718.073 908.938 718.809 908.122 719.044 906.918C719.24 905.916 719.009 904.95 718.667 904.126C718.323 903.298 717.813 902.485 717.288 901.732C716.892 901.164 716.45 900.581 716.03 900.026C715.894 899.846 715.761 899.67 715.632 899.498C715.085 898.769 714.599 898.095 714.225 897.462C708.095 887.069 703.555 875.973 700.593 864.317Z" fill="#F4F4F4" stroke="#1FD08C" stroke-width="3"/>
    <path d="M569.398 587.018C556.152 585.125 543.053 585.846 529.494 586.28C528.921 586.014 528.814 585.786 528.813 585.199C530.559 583.427 532.677 583.763 535.572 583.073C525.089 584.215 515.676 585.636 506.333 587.51C504.862 587.805 503.42 588.195 501.535 587.904C495.48 585.381 489.417 584.226 483.451 582.752C479.991 581.897 476.846 580.53 473.937 577.831C472.197 572.484 469.402 568.714 463.572 567.392C452.276 553.181 446.559 537.042 443.64 519.706C441.73 508.363 442.716 497.156 444.638 485.598C443.117 484.938 443.065 484.903 442.66 485.512C437.831 492.779 434.343 500.634 432.301 509.51C431.826 511.67 431.468 513.503 429.065 514.054C427.169 508.222 428.527 502.326 427.315 497.027C427.491 502.788 428.759 508.933 427.374 515.429C422.974 520.319 417.316 522.965 412.476 526.71C410.619 528.147 408.752 527.682 407.063 526.176C405.699 524.959 404.442 523.634 402.86 522.124C392.508 511.617 382.244 501.527 372.293 490.675C371.846 490.353 371.664 490.231 371.224 489.914C370.802 489.579 370.64 489.44 370.253 489.075C369.894 488.686 369.76 488.523 369.45 488.099C368.94 487.306 368.61 486.771 367.964 486.067C366.269 484.127 364.308 482.923 362.993 480.8C361.369 477.335 358.395 475.362 356.063 472.807C354.676 471.289 354.434 470.152 356.03 468.652C375.188 450.639 394.862 433.368 420.256 424.443C423.521 423.295 426.996 422.741 430.767 421.779C432.847 419.901 435.057 419.733 437.693 419.592C441.889 418.869 445.68 418.253 449.942 418.974C453.616 420.908 456.254 423.497 458.954 426.589C461.158 430.325 464.753 430.137 467.898 430.488C476.099 431.406 484.045 430.197 491.594 426.729C493.091 426.042 494.55 425.208 496.683 425.447C512.399 432.792 528.387 437.407 545.847 437.714C552.839 439.49 557.229 444.603 561.842 448.939C573.746 460.13 584.373 472.505 592.705 486.68C595.952 492.204 595.864 492.761 591.431 497.841C590.757 498.613 590.312 499.122 589.699 499.913C588.922 500.787 588.281 501.341 587.488 502.182C586.499 503.067 585.673 503.676 584.905 504.785C584.599 505.214 584.473 505.385 583.915 506.042C583.324 506.68 583.164 506.832 582.748 507.2C582.313 507.553 582.134 507.691 581.677 508.025C575.406 513.477 569.87 519.171 564.544 525.107C561.431 528.577 559.062 533.095 553.588 533.955C550.178 528.924 550.834 523.203 549.361 518.219C551.315 531.744 555.071 544.98 560.792 557.648C562.903 562.322 564.809 567.078 566.822 572.181C567.11 577.399 570.28 581.678 569.398 587.018Z" fill="#F4F4F4"/>
    <path d="M707.354 911.662C709.27 916.336 712.458 919.787 716.377 923.86C717.436 918.615 718.358 914.048 719.383 909.109C719.798 908.388 720.187 908.256 720.892 908.528C721.119 909.228 721.096 909.711 720.932 910.529C721.91 912.22 719.622 914.054 721.57 915.589C722.385 918.554 720.452 920.75 720.059 924.224C725.076 919.088 730.262 915.456 734.856 911.104C736.844 909.221 738.189 906.791 738.812 904.034C739.148 902.546 739.122 901.07 737.749 900.095C736.378 899.123 735.005 899.595 733.776 900.454C730.837 902.51 728.834 905.41 727.025 908.478C725.889 910.404 725.026 912.546 722.75 913.941C720.435 913.589 721.233 912.476 722.086 911.188C724.26 906.623 726.802 902.69 730.13 899.404C732.849 896.719 736.052 894.545 739.873 897.222C743.568 899.81 742.544 903.375 741.174 906.845C740.962 907.383 740.737 907.916 740.316 908.945C742.953 908.317 745.025 907.623 747.147 907.369C749.824 907.05 752.19 907.869 753.591 910.496C755.013 913.16 754.281 915.577 752.506 917.679C749.424 921.329 745.328 923.532 741.1 925.393C736.179 927.56 731.148 929.466 725.922 931.583C728.363 934.487 731.558 936.015 734.489 937.816C742.244 942.583 750.403 946.531 758.86 949.835C780.608 958.333 796.766 973.731 808.987 993.554C811.027 996.863 812.99 998.283 816.347 999.182C850.806 1008.41 885.234 1017.76 920.047 1027.09C926.615 1028.95 932.808 1030.79 939 1032.64C938.885 1033.09 938.77 1033.55 938.654 1034C932.877 1033.41 927.469 1030.93 921.384 1029.86C918.885 1030.99 916.938 1029.86 915.004 1029.34C880.615 1020.12 846.189 1011.03 811.945 1001.27C802.687 998.627 793.713 999.415 784.617 1000.31C759.998 1002.75 735.385 1005.26 710.783 1007.87C706.21 1008.35 701.62 1008.66 697.061 1009.31C690.84 1010.19 684.727 1010.06 678.907 1007.14C675.735 1005.55 672.34 1004.98 668.783 1004.77C663.759 1004.48 659.307 1005.13 655.904 1009.98C654.568 1011.17 653.788 1012.17 652.09 1012.29C639.591 1013.13 627.092 1014.02 614.618 1015.18C611.116 1015.5 610.327 1013.87 609.93 1010.94C607.471 992.806 607.472 974.652 609.308 956.479C609.634 953.255 610.19 950.055 610.75 946.485C632.47 938.356 654.076 930.578 675.691 922.823C686.119 919.082 696.563 915.386 707.354 911.662Z" fill="#020201"/>
    <path d="M362.761 480.662C365.399 481.67 366.874 483.803 368.794 485.922C369.495 486.529 369.461 487.163 369.971 487.77C370.203 487.92 370.08 487.942 370.084 487.88C370.209 488.156 370.41 488.442 370.913 488.808C371.147 488.934 371.068 488.868 371.108 488.836C379.663 500.65 386.116 513.497 389.98 527.961C389.566 531.461 386.81 532.611 384.815 534.399C383.247 535.805 381.847 537.353 380.433 539.347C380.071 539.779 379.918 539.943 379.516 540.332C378.762 540.984 378.255 541.41 377.624 542.187C370.751 549.908 365.159 557.992 362.446 568.186C363.909 565.468 363.518 562.087 366.985 560.916C368.189 562.195 368.228 563.543 368.227 564.87C368.216 574.735 372.41 582.981 378.635 590.161C390.701 604.079 405.167 615.213 420.445 625.381C424.468 628.059 428.425 629.168 433.105 627.645C434.798 627.094 436.646 626.567 438.775 627.66C444.715 628.095 450.392 627.284 455.961 628.47C458.325 628.973 461.348 629.279 461.746 632.316C462.173 635.573 459.087 636.079 456.877 637.026C454.443 638.07 451.915 638.893 449.482 639.938C443.479 642.518 442.626 645.286 446.646 650.595C452.344 658.121 459.896 663.499 468.39 668.143C469.381 668.335 470.025 668.486 470.916 668.932C471.347 669.28 471.499 669.443 471.749 669.926C473.084 671.961 475.109 673.663 473.729 675.945C472.321 678.273 469.806 676.967 467.788 676.8C463.64 676.456 459.981 673.552 455.332 674.163C461.29 678.273 467.013 682.151 472.646 686.157C473.917 687.061 475.73 688.218 474.584 690.158C473.676 691.696 471.823 691.976 470.123 691.613C467.372 691.024 464.659 690.257 461.469 689.453C459.043 688.44 457.077 687.54 454.787 686.568C454.464 686.497 454.131 686.765 453.921 687.027C455.448 689.063 457.228 690.797 458.902 692.628C459.677 693.477 460.454 694.547 459.627 695.741C458.881 696.819 457.672 696.84 456.475 696.617C452.019 695.787 448.032 693.712 443.599 691.802C443.014 691.869 442.206 691.121 442.457 692.396C443.4 694.887 447.612 696.644 445.338 699.209C442.659 702.231 439.94 698.734 437.655 697.134C411.197 678.608 384.768 659.974 360.266 638.924C340.29 621.763 321.859 602.868 308.347 579.953C296.955 560.633 301.396 536.971 318.102 521.904C333.059 508.414 347.684 494.555 362.761 480.662Z" fill="#FE6C6C"/>
    <path d="M404.724 765.322C410.449 790.41 415.797 815.328 421.074 840.67C418.499 841.575 416.445 842.952 413.976 844.647C419.781 849.555 427.034 852.399 431.358 858.729C428.642 860.436 427.446 858.347 426.004 857.188C421.905 853.891 417.874 850.507 412.331 849.173C416.324 854.6 418.448 861.122 423.238 865.974C424.409 867.16 425.75 868.157 427.229 868.924C429.013 869.849 430.949 870.931 432.658 868.99C434.1 867.351 433.354 865.581 432.382 863.927C431.566 862.535 430.141 861.384 430.765 859.205C435.205 860.425 438.036 865.817 436.546 869.536C434.821 873.84 431.172 874.462 424.83 871.357C424.175 871.425 423.871 871.623 423.597 872.108C424.572 880.146 423.588 882.978 419.506 884.207C415.605 885.383 412.2 882.762 409.125 876.134C406.125 869.666 404.684 862.687 402.736 855.136C396.491 861.895 392.205 869.116 388.138 876.494C379.53 892.109 366.293 902.43 350.134 910.095C350.134 906.12 350.053 902.68 350.146 899.245C350.843 873.612 351.62 847.982 352.247 822.348C352.347 818.221 353.174 814.461 355.473 811.035C357.571 807.908 358.365 804.378 358.756 800.69C359.078 797.654 358.609 795.108 355.551 793.621C353.458 792.603 353.103 790.821 353.257 788.615C353.859 779.979 354.497 771.337 354.739 762.687C354.831 759.37 356.272 758.995 358.999 758.977C374.418 758.877 389.478 761.287 404.724 765.322Z" fill="#030303"/>
    <path d="M674.345 1007.34L675.09 1006.03L674.345 1007.34C683.705 1012.69 693.498 1011.59 702.784 1010.55C703.998 1010.42 705.203 1010.28 706.398 1010.16L706.249 1008.67L706.398 1010.16C721.452 1008.66 736.516 1007.17 751.58 1005.69C768.64 1004 785.702 1002.32 802.752 1000.61C806.887 1000.2 810.849 1000.85 814.845 1001.89C816.831 1002.42 818.802 1003.03 820.81 1003.65L820.854 1003.67C822.866 1004.29 824.914 1004.93 826.986 1005.47C861.482 1014.45 895.91 1023.69 930.646 1033.01L930.878 1033.07C931.318 1035.45 931.676 1037.8 932.035 1040.16L932.037 1040.16C932.441 1042.82 932.847 1045.48 933.367 1048.12C933.539 1049 933.574 1049.59 933.533 1049.98C933.514 1050.17 933.48 1050.28 933.455 1050.34C933.433 1050.39 933.416 1050.4 933.412 1050.41L933.412 1050.41C933.408 1050.41 933.307 1050.51 932.892 1050.55C932.471 1050.6 931.867 1050.57 931.018 1050.44C916.363 1048.23 901.692 1046.12 887.028 1044.02C885.069 1043.74 883.11 1043.46 881.151 1043.17C867.063 1041.15 852.976 1039.13 838.889 1037.12C818.578 1034.21 798.269 1031.31 777.96 1028.38C740.053 1022.91 702.152 1017.4 663.928 1011.84C661.381 1011.47 658.832 1011.1 656.282 1010.73C656.792 1009.2 657.589 1008.2 658.572 1007.53C659.892 1006.63 661.76 1006.2 664.257 1006.26C665.134 1006.28 666.023 1006.26 666.874 1006.25C666.954 1006.24 667.033 1006.24 667.112 1006.24C668.049 1006.22 668.941 1006.21 669.809 1006.25C671.547 1006.32 673.051 1006.6 674.345 1007.34Z" fill="#F4F4F4" stroke="#1FD08C" stroke-width="3"/>
    <path d="M237.999 316.963C252.844 328.153 258.876 342.936 255.481 360.591C252.116 378.09 240.994 389.45 223.642 394.108C200.566 400.303 176.029 385.04 171.111 361.654C166.029 337.483 181.599 314.147 205.397 309.896C217.193 307.789 227.815 310.327 237.999 316.963Z" fill="white"/>
    <path d="M1095.46 632.542C1098.87 664.844 1076.03 695.034 1044.9 699.936C1012.13 705.094 980.848 684.511 974.103 653.357C966.93 620.23 985.99 588.209 1017.95 579.682C1054.79 569.857 1090.57 594.08 1095.46 632.542Z" fill="#F4F4F4"/>
    <path d="M439.217 375.287C422.852 355.323 423.733 331.388 441.497 312.626C451.89 301.648 464.049 293.648 479.642 290.908C485.122 289.669 483.931 293.531 484.269 296.562C483.816 299.059 483.236 301.065 481.505 302.454C484.197 301.499 486.375 299.378 488.915 297.894C490.498 296.969 492.105 296.122 493.873 295.618C495.687 295.101 497.501 294.809 498.94 296.438C500.329 298.009 500.146 299.827 499.428 301.589C497.457 306.423 494.159 310.39 490.854 314.329C489.47 315.979 487.888 317.461 486.736 319.745C477.758 327.715 470.379 336.789 461.739 344.612C457.548 348.407 453.498 352.351 448.986 355.767C447.195 357.123 446.13 358.514 447.515 360.784C449.085 363.358 447.723 364.542 445.41 365.703C441.137 367.847 440.914 371.114 444.658 374.06C446.96 375.871 449.745 376.379 452.559 376.855C458.827 377.916 459.677 379.197 458.417 385.884C453.03 387.046 449.706 383.165 445.303 381.07C443.075 379.164 440.399 378.263 439.217 375.287Z" fill="#030303"/>
    <path d="M537.227 796.556C536.207 782.162 529.992 770.235 521.683 759.18C518.807 755.354 515.934 751.527 513.032 747.348C519.88 749.803 525.216 754.93 530.682 759.597C540.536 768.011 549.312 777.571 556.805 788.225C557.498 789.211 558.109 790.149 557.864 791.781C552.756 790.362 551.094 785.077 547.311 781.959C545.984 780.866 545.201 779.14 543.616 778.201C553.294 787.931 561.508 798.744 567.913 810.886C569.136 813.204 570.879 815.353 570.605 818.528C561.47 832.599 551.454 845.25 535.669 851.879C529.324 854.543 522.838 856.33 515.47 856.038C515.812 840.617 521.105 827.066 530.538 815.011C533.96 810.638 535.65 805.45 535.994 799.46C536.308 798.227 537.726 798.068 537.227 796.556Z" fill="#08A259"/>
    <path d="M913.705 385.581C914.201 380.813 915.54 376.656 916.965 372.111C922.087 386.127 924.43 401.075 925.729 416.132C930.757 474.393 917.327 528.078 885.091 576.964C880.322 584.194 875.103 591.093 869.287 597.935C867.586 595.588 867.466 592.767 867.007 589.633C868.048 586.596 869.583 584.258 871.281 581.972C896.667 547.806 911.644 509.541 916.806 467.296C919.863 442.284 918.664 417.525 913.863 392.864C913.419 390.583 912.871 388.297 913.705 385.581Z" fill="#1FD08C"/>
    <path d="M280.577 941.414C295.085 952.381 300.733 969.377 295.422 985.461C290.071 1001.67 275.512 1012.38 258.533 1012.61C241.81 1012.84 226.799 1002.2 221.149 986.124C215.766 970.807 220.896 953.21 233.741 942.926C247.156 932.185 264.874 931.525 280.577 941.414Z" fill="#F4F4F4"/>
    <path d="M1026 887.691C1035.62 891.387 1040.39 897.948 1040.3 906.943C1040.21 914.901 1035.03 922.221 1027.54 924.944C1019.97 927.702 1011.49 925.57 1006.12 919.552C1000.47 913.236 999.568 904.296 1003.81 896.797C1008.11 889.219 1015.9 885.919 1026 887.691Z" fill="#F4F4F4"/>
    <path d="M483.139 297.834C482.577 295.216 485.204 291.874 480.429 290.875C501.759 261.062 529.286 238.044 561.502 220.462C564.123 219.032 566.789 217.685 569.734 216.111C573.381 216.145 574.951 218.214 575.475 221.624C570.394 225.982 564.338 228.072 558.894 231.266C540.114 242.285 522.916 255.356 507.601 270.774C500.112 278.314 493.13 286.403 486.786 294.988C485.827 296.287 485.145 297.963 483.139 297.834Z" fill="#1FD08C"/>
    <path d="M233.402 721.597C236.714 725.315 239.793 728.768 243.176 732.564C239.576 732.234 55.1347 530.403 51.6717 523.646C52.0143 523.325 52.3569 523.003 52.6995 522.682C72.6565 544.614 92.6249 566.535 112.567 588.481C132.622 610.55 152.649 632.646 172.693 654.726C192.848 676.931 213.009 699.131 233.402 721.597Z" fill="#0F0F0F"/>
    <path d="M1048.82 231.826C1065.74 219.874 1085.95 222.001 1098.53 236.823C1110.31 250.708 1109.64 271.523 1097.01 284.615C1082.84 299.301 1059.88 299.531 1045.61 285.13C1031.52 270.915 1031.82 248.076 1046.3 234.025C1047.01 233.33 1047.79 232.693 1048.82 231.826Z" fill="#F4F4F4"/>
    <path d="M726.434 195.694C725.502 197.7 724.146 199.655 722.533 201.79C719.26 203.965 716.102 202.559 713.08 202.163C699.233 200.348 685.351 198.94 671.381 199.57C659.607 200.101 647.904 201.584 635.801 203.259C631.764 202.523 629.366 200.384 628.097 196.612C660.76 189.645 693.366 189.367 726.434 195.694Z" fill="#1FD08C"/>
    <path d="M405.794 202.942C402.77 189.452 409.744 177.163 421.842 174.06C434.181 170.894 446.397 177.753 450.089 189.92C453.68 201.754 447.144 214.337 435.365 218.265C422.802 222.454 410.973 216.463 405.794 202.942Z" fill="#1FD08C"/>
    <path d="M202.971 735.023C220.251 754.406 237.293 773.527 254.335 792.648C253.782 793.134 253.23 793.621 252.677 794.108C199.954 735.049 147.231 675.99 94.5074 616.93C95.0401 616.438 95.5728 615.947 96.1055 615.455C107.794 628.508 119.49 641.554 131.168 654.616C143.159 668.029 155.13 681.459 167.113 694.879C178.984 708.175 190.859 721.468 202.971 735.023Z" fill="#0F0F0F"/>
    <path d="M1102.01 851.995C1069.6 817.281 1037.42 782.836 1005.25 748.39C1005.77 747.901 1006.3 747.412 1006.82 746.924C1056.01 799.541 1105.19 852.158 1154.37 904.775C1153.87 905.275 1153.37 905.775 1152.88 906.275C1147.37 900.427 1141.87 894.584 1136.37 888.729C1130.68 882.657 1125 876.573 1119.31 870.495C1113.62 864.417 1107.93 858.341 1102.01 851.995Z" fill="#252423"/>
    <path d="M597.096 205.092C575.708 181.681 554.335 158.613 532.956 135.551C525.821 127.855 518.665 120.179 511.535 112.479C510.444 111.301 509.438 110.044 508.393 108.823C508.867 108.393 509.34 107.962 509.814 107.531C539.656 139.558 569.498 171.585 599.674 203.791C602.831 204.834 604.176 207.5 606.598 209.406C617.839 220.751 627.978 232.647 638.863 243.849C640.661 245.699 644.219 248.501 641.733 250.772C639.072 253.204 636.968 249.067 635.181 247.262C623.845 235.809 613.402 223.509 601.806 211.813C600.43 209.257 598.162 207.793 597.096 205.092Z" fill="#252423"/>
    <path d="M962.974 212.069C954.174 217.231 946.327 217.022 939.469 211.646C933.256 206.776 930.443 198.53 932.483 191.162C934.701 183.149 941.21 177.681 949.674 176.719C957.81 175.794 966.094 180.615 969.399 188.199C973.072 196.626 970.915 204.976 962.974 212.069Z" fill="#F4F4F4"/>
    <path d="M575.02 221.83C573.581 219.717 572.1 217.961 570.326 216.064C560.867 205.625 551.701 195.328 542.535 185.03C543.003 184.605 543.472 184.179 543.94 183.754C553.353 194.011 562.767 204.268 572.481 214.732C575.366 215.338 576.21 217.916 578.378 219.402C590.807 233.069 603.227 246.272 615.356 259.743C623.816 269.14 632.316 278.508 640.99 287.707C644.646 291.586 647.787 295.911 651.667 299.589C653.104 300.953 654.844 302.909 653.102 304.757C651.128 306.853 649.411 304.58 648.149 303.248C639.912 294.554 631.945 285.609 623.895 276.742C614.614 266.519 605.223 256.395 595.996 246.125C588.9 238.228 581.201 230.852 575.02 221.83Z" fill="#252423"/>
    <path d="M876.461 651.13C875.983 649.55 875.771 648.239 875.551 646.595C889.693 643.235 900.902 647.501 906.941 658.211C916.957 675.974 905.216 696.316 883.62 697.92C882.95 696.58 882.687 695.229 882.41 693.536C883.641 691.424 885.652 691.816 887.377 691.48C897.756 689.456 905.429 680.025 904.565 670.287C903.548 658.812 895.203 651.274 883.648 651.273C881.338 651.272 879.042 651.946 876.461 651.13Z" fill="#F4F4F4"/>
    <path d="M475.183 890.129C485.988 883.869 496.755 885.186 503.889 893.383C510.562 901.052 511.031 912.46 504.762 920.464C499.656 926.984 492.759 929.994 484.583 928.667C475.832 927.246 469.636 922.048 467.253 913.445C464.718 904.289 467.397 896.411 475.183 890.129Z" fill="#1FD08C"/>
    <path d="M438.958 375.311C440.961 376.353 442.833 377.75 444.877 379.413C445.847 381.104 445.494 382.573 445.204 384.033C443.141 394.415 440.768 404.744 440.183 415.366C440.092 417.019 439.612 418.625 438.364 420.34C436.005 420.977 433.962 421.321 431.54 421.655C432.143 406.057 434.629 390.719 438.958 375.311Z" fill="#1FD08C"/>
    <path d="M266.94 885.156C266.16 878.899 268.258 874.292 273.437 871.42C277.856 868.971 282.381 869.296 286.618 872.086C290.991 874.966 293.259 880.467 291.919 885.562C290.599 890.586 287.375 893.983 282.168 895.083C276.792 896.218 271.602 894.06 268.798 889.582C268.02 888.339 267.578 886.887 266.94 885.156Z" fill="#F4F4F4"/>
    <path d="M627.896 196.007C629.912 198.107 631.634 200.01 633.656 202.061C635.727 202.826 637.195 203.887 638.449 205.265C647.967 215.715 657.47 226.178 667.359 236.282C667.941 236.877 668.448 237.551 668.814 238.302C669.399 239.501 670.173 240.844 668.957 241.97C667.699 243.135 666.424 242.243 665.409 241.381C662.488 238.898 659.764 236.186 657.233 233.324C648.415 223.356 639.216 213.746 629.825 203.833C628.454 201.282 626.192 199.816 625.157 197.11C615.651 186.37 606.147 175.975 596.642 165.58C597.116 165.138 597.589 164.697 598.063 164.255C607.909 174.773 617.755 185.291 627.896 196.007Z" fill="#252423"/>
    <path d="M256.562 656.758C259.067 662.95 258.374 667.218 254.551 670.767C250.901 674.155 246.114 674.74 241.659 672.253C237.239 669.785 235.434 665.878 236.06 660.971C236.639 656.431 239.339 653.364 243.677 652.015C248.899 650.39 253.127 652.083 256.562 656.758Z" fill="#F4F4F4"/>
    <path d="M1083.26 789.744C1081.51 787.819 1080 786.156 1078.49 784.494C1079 784.042 1079.51 783.591 1080.02 783.139C1100.84 805.524 1121.67 827.908 1142.49 850.292C1141.97 850.81 1141.45 851.328 1140.93 851.846C1134.7 845.123 1128.48 838.391 1122.24 831.68C1115.79 824.735 1109.3 817.82 1102.84 810.875C1096.38 803.93 1089.95 796.963 1083.26 789.744Z" fill="#252423"/>
    <path d="M164.823 257.945C169.416 252.803 173.97 251.695 178.574 254.329C182.532 256.593 184.553 261.561 183.249 265.82C181.503 271.526 175.964 274.53 170.369 272.806C164.494 270.996 162.235 265.278 164.823 257.945Z" fill="#F4F4F4"/>
    <path d="M605.035 929.991C624.795 922.616 644.3 915.438 663.799 908.246C669.417 906.174 675.008 904.027 680.641 901.999C681.603 901.653 682.68 900.597 684.626 902.814C658.223 912.678 632.244 922.384 605.955 932.276C602.424 932.933 599.696 935.327 595.622 935.056C598.213 931.725 602.108 932.07 605.035 929.991Z" fill="#0F0F0F"/>
    <path d="M417.112 766.286C422.267 790.317 427.313 813.979 432.36 837.64C431.682 837.791 431.005 837.941 430.328 838.092C425.19 814.309 420.052 790.527 414.773 766.409C413.346 759.708 412.058 753.342 410.77 746.976C411.212 746.867 411.654 746.758 412.096 746.649C414.858 752.737 414.938 759.621 417.112 766.286Z" fill="#0F0F0F"/>
    <path d="M1032.06 318.263C1031.62 325.083 1027.94 328.663 1022.45 328.062C1017.6 327.532 1014.11 323.033 1014.93 318.112C1015.6 314.087 1018.02 311.542 1022.11 310.902C1026.88 310.156 1029.9 312.348 1032.06 318.263Z" fill="#F4F4F4"/>
    <path d="M578.067 220.289C576.129 218.624 574.578 217.048 572.904 215.206C580.353 210.949 588.393 208.073 596.722 204.884C598.725 206.448 600.366 208.15 602.047 210.165C602.027 210.975 601.943 211.575 601.479 211.753C593.828 214.691 586.532 218.583 578.067 220.289Z" fill="#1FD08C"/>
    <path d="M624.761 196.892C626.874 198.541 628.593 200.316 630.491 202.381C630.122 203.796 629.155 204.481 628.008 204.745C620.753 206.417 613.739 209.094 605.877 209.96C603.698 208.131 601.936 206.314 600.091 204.233C607.932 200.967 616.171 199.069 624.761 196.892Z" fill="#1FD08C"/>
    <path d="M570.707 819.078C564.339 804.421 555.297 791.984 544.546 780.695C543.236 779.32 541.237 778.359 541.049 774.457C547.872 779.958 552.275 786.171 557.506 791.998C557.799 792.153 557.824 792.119 557.831 792.132C559.852 793.395 560.706 795.456 561.78 797.769C562.473 798.917 562.965 799.8 563.713 800.85C564.809 801.673 565.146 802.657 565.765 803.821C565.912 804.089 565.954 803.986 565.923 804.034C566.862 804.69 567.193 805.731 567.731 806.994C568.333 808.43 568.856 809.557 569.623 810.876C570.415 811.375 570.738 811.842 570.851 812.75C571.336 814.3 571.454 815.888 573.632 815.63C572.566 818.17 575.737 819.917 575.713 822.751C575.875 823.054 575.789 822.975 575.733 822.986C576.632 828.801 580.449 833.759 580.401 839.925C576.396 833.441 574.869 825.809 570.707 819.078Z" fill="#0F0F0F"/>
    <path d="M488.394 769.853C493.661 770.479 498.376 769.015 503.177 768.855C504.459 768.812 506.586 767.113 506.821 769.446C506.99 771.128 504.544 770.76 503.167 771.034C496.428 772.372 489.613 772.111 482.611 772.083C476.373 770.296 469.72 770.718 464.043 767.127C472.095 767.514 479.895 770.113 488.394 769.853Z" fill="#191919"/>
    <path d="M876.154 651.285C889.061 647.207 900.503 652.451 904.724 663.935C908.592 674.457 903.669 686.18 893.362 691.197C890.125 692.772 886.729 693.236 882.801 693.207C880.302 679.366 878.207 665.538 876.154 651.285Z" fill="#1FD08C"/>
    <path d="M723.684 910.408C724.297 911.2 723.107 912.041 724.229 913.113C724.655 913.864 724.523 914.408 723.829 915.001C720.017 914.674 722.463 912.211 722.263 910.451C722.728 910.303 722.996 910.412 723.684 910.408Z" fill="#241A01"/>
    <path d="M540.691 626.37C546.384 627.341 548.189 632.89 552.188 636C556.781 639.571 561.068 643.504 566.495 645.743C578.243 650.591 587.935 658.111 596.282 667.947C598.746 669.012 598.753 671.152 599.337 673.429C600.292 680.001 602.022 686.043 601.93 692.703C599.983 695.561 598.674 693.531 597.504 692.413C579.997 675.682 563.218 658.274 548.566 638.935C545.615 635.04 541.895 631.615 540.691 626.37Z" fill="#08A259"/>
    <path d="M598.448 674.565C597.775 672.378 597.35 670.56 596.762 668.38C596.633 667.773 596.668 667.528 596.768 666.918C615.595 672.801 634.689 677.484 654.44 679.353C672.36 681.049 690.232 680.802 708.558 678.896C709.124 681.083 709.007 683.209 708.028 685.607C706.393 687.446 704.355 687.715 702.396 687.886C693.796 688.641 685.124 689.569 676.554 689.225C661.299 688.612 646.016 687.611 630.982 684.512C622.018 682.664 613.142 680.478 604.387 677.819C602.348 677.2 600.166 676.732 598.448 674.565Z" fill="#1FD08C"/>
    <path d="M540.613 625.855C545.768 634.98 552.523 642.531 558.999 650.24C571.911 665.613 585.877 680.013 600.826 693.892C602.889 693.75 603.957 695.001 604.965 695.997C612.663 703.602 621.399 710.032 629.04 717.726C650.699 739.534 666.41 765.241 679.067 792.992C680.507 796.149 682.262 799.237 682.56 803.158C691.139 825.119 698.455 847.192 705.361 869.428C696.255 849.726 690.694 828.657 681.883 808.459C679.825 808.883 680.053 807.106 679.731 806.313C669.349 780.78 656.106 756.916 638.799 735.371C632.547 727.589 625.609 720.468 618.289 713.192C618.048 712.92 618.015 712.988 618.052 712.979C617.807 712.787 617.556 712.569 617.187 712.115C617.037 711.916 617.014 711.987 617.05 711.976C616.812 711.77 616.56 711.552 616.173 711.114C616.017 710.917 616.004 710.988 616.035 710.97C615.583 710.566 614.978 710.492 614.206 710.093C613.993 709.884 614.006 709.996 614.061 709.988C610.362 706.326 605.714 703.65 602.305 699.119C588.481 685.652 574.989 672.336 562.508 658.033C553.525 647.739 544.995 637.097 537.562 625.623C536.115 623.389 534.089 621.246 534.165 617.652C537.686 619.692 538.312 623.225 540.613 625.855Z" fill="#191919"/>
    <path d="M617.862 713.243C626.292 718.432 632.424 726.094 638.672 733.566C657.2 755.727 670.565 780.93 681.664 807.795C681.475 808.707 681.242 809.28 680.873 810.296C673.099 794.528 665.487 778.314 656.185 762.949C645.293 744.958 632.774 728.264 617.862 713.243Z" fill="#F4F4F4"/>
    <path d="M438.681 612.946C434.355 614.942 430.336 616.681 426.318 618.42C429.147 614.148 433.841 613.087 437.996 610.505C439.041 608.676 440.458 607.881 441.999 607.188C459.067 599.507 476.328 592.355 494.496 587.619C496.444 587.111 498.346 586.658 500.735 587.196C513.938 585.018 526.691 582.216 539.852 582.52C536.847 584.827 533.175 584.11 529.44 585.009C520.395 587.558 511.431 588.003 502.302 589.778C501.954 590.015 502.003 589.998 502.027 589.99C500.973 590.856 499.653 590.285 498.154 590.758C477.283 595.666 457.966 603.718 438.681 612.946Z" fill="#191919"/>
    <path d="M470.938 669.385C470.026 669.204 469.491 668.903 468.844 668.401C474.086 658.826 477.479 648.571 481.913 638.784C485.321 631.261 488.012 623.418 492.31 616.047C494.019 616.507 493.988 617.74 493.883 618.878C492.165 637.521 486.233 654.375 472.884 668.056C472.419 668.532 471.886 668.925 470.938 669.385Z" fill="#08A259"/>
    <path d="M470.852 669.742C475.422 663.054 481.064 657.188 484.593 649.754C489.559 639.292 492.045 628.258 492.731 616.361C493.166 614.42 492.385 612.605 493.645 611.209C499.7 621.295 487.56 654.79 472.136 670.046C471.613 670.157 471.378 670.068 470.852 669.742Z" fill="#0F0F0F"/>
    <path d="M536.645 796.362C538.121 796.586 539.858 796.122 539.808 797.625C539.745 799.527 537.871 798.666 536.37 798.99C529.38 798.354 522.647 799.32 516.072 798.172C516.068 797.591 516.063 797.011 516.059 796.431C522.763 796.431 529.466 796.431 536.645 796.362Z" fill="#0F0F0F"/>
    <path d="M553.698 615.969C547.338 614.891 541.395 613.852 534.384 612.626C538.733 610.789 555.07 613.158 559.617 615.669C557.835 617.78 555.875 615.677 553.698 615.969Z" fill="#0F0F0F"/>
    <path d="M627.323 884.903C626.806 883.741 625.727 882.979 626.557 881.942C627.103 881.258 627.797 881.577 628.165 882.214C631.993 888.857 636.212 895.301 638.658 902.695C633.831 897.551 631.061 891.126 627.323 884.903Z" fill="#0F0F0F"/>
    <path d="M529.028 661.001C523.039 663.66 517.401 666.192 511.764 668.724C511.533 668.208 511.303 667.692 511.073 667.177C517.925 662.853 525.728 660.505 533.665 656.486C533.203 660.055 530.79 659.898 529.028 661.001Z" fill="#0F0F0F"/>
    <path d="M455.49 812.666C459.6 819.551 463.433 826.23 467.198 832.791C465.64 834.1 465.088 833.329 464.701 832.654C461.315 826.759 457.957 820.849 454.632 814.92C454.125 814.016 453.15 812.833 455.49 812.666Z" fill="#0F0F0F"/>
    <path d="M575.731 708.758C574.088 715.05 573.898 721.286 571.698 726.992C571.139 726.871 570.58 726.75 570.021 726.629C571.504 718.865 572.987 711.101 574.469 703.337C576.596 704.964 575.877 706.689 575.731 708.758Z" fill="#0F0F0F"/>
    <path d="M586.24 782.796C585.744 781.243 584.619 780.19 585.749 777.378C590.249 785.232 593.79 792.447 596.41 800.16C591.752 795.244 589.817 788.751 586.24 782.796Z" fill="#0F0F0F"/>
    <path d="M501.23 701.744C500.38 700.463 498.688 699.978 499.779 697.195C505.63 703.329 511.102 709.066 516.574 714.802C516.128 715.245 515.682 715.687 515.235 716.13C510.176 711.921 506.052 706.723 501.23 701.744Z" fill="#0F0F0F"/>
    <path d="M661.21 828.942C659.841 831.569 658.831 830.737 659.152 828.832C660.381 821.556 661.942 814.337 663.378 807.096C664.032 807.204 664.686 807.312 665.341 807.421C663.999 814.472 662.657 821.523 661.21 828.942Z" fill="#0F0F0F"/>
    <path d="M517.974 619.82C517.973 613.646 517.973 607.945 517.973 602.245C518.431 602.244 518.889 602.243 519.347 602.242C520.342 610.023 520.037 617.835 519.228 625.692C517.527 624.106 518.198 622.111 517.974 619.82Z" fill="#030303"/>
    <path d="M502.396 589.988C510.435 586.996 519.344 586.224 528.597 585.063C529.022 585.297 529.021 585.486 529.024 585.958C520.298 587.481 511.568 588.721 502.396 589.988Z" fill="#6323ED"/>
    <path d="M602.114 699.206C606.827 701.664 610.337 705.921 614.336 709.66C609.795 706.884 604.564 704.836 602.114 699.206Z" fill="#F4F4F4"/>
    <path d="M561.999 797.659C560.015 796.771 559.212 794.612 557.896 792.474C561.275 792.195 561.449 794.899 561.999 797.659Z" fill="#08A259"/>
    <path d="M576.266 822.821C573.845 820.867 572.115 818.564 573.41 815.335C574.82 817.777 575.738 820.182 576.266 822.821Z" fill="white"/>
    <path d="M565.949 803.725C564.854 803.61 564.323 802.719 563.989 801.337C565.529 801.034 566.034 801.96 565.949 803.725Z" fill="#08A259"/>
    <path d="M567.87 806.92C566.82 806.712 566.25 805.816 565.918 804.405C567.607 804.041 568.04 805.063 567.87 806.92Z" fill="#08A259"/>
    <path d="M571.104 812.892C570.529 812.582 570.218 812.117 569.888 811.361C570.873 811.171 572.156 811.024 571.104 812.892Z" fill="#08A259"/>
    <path d="M498.2 590.9C498.84 590.021 500.128 590.25 501.687 590.036C500.891 590.275 499.73 590.568 498.2 590.9Z" fill="#6323ED"/>
    <path d="M614.101 710.266C614.813 708.973 615.213 710.065 615.933 710.607C615.248 712.065 614.797 710.937 614.101 710.266Z" fill="#F4F4F4"/>
    <path d="M615.863 711.305C616.364 711.07 616.711 711.224 617.071 711.671C616.534 712.343 616.075 712.252 615.863 711.305Z" fill="#F4F4F4"/>
    <path d="M616.878 712.287C617.389 712.061 617.741 712.207 618.091 712.661C617.539 713.274 617.083 713.168 616.878 712.287Z" fill="#F4F4F4"/>
    <path d="M511.945 745.857C511.876 745.853 511.749 745.712 511.621 745.57C511.709 745.62 511.798 745.669 511.945 745.857Z" fill="#08A259"/>
    <path d="M512.998 747.002C512.663 746.915 512.399 746.729 512.103 746.221C512.004 745.995 512 746 511.997 746.002C512.323 746.096 512.589 746.279 512.899 746.773C513.005 746.995 513 747 512.998 747.002Z" fill="#08A259"/>
    <path d="M603.652 519.589C607.319 518.486 610.605 520.132 614.066 520.344C628.466 521.225 642.599 520.056 656.506 516.106C661.688 514.635 664.978 511.815 666.86 506.488C670.293 496.773 674.374 487.262 680.086 478.605C681.348 476.693 682.507 473.596 685.649 474.662C688.607 475.666 688.099 478.661 688.126 481.13C688.193 487.338 686.598 493.33 685.548 499.377C684.21 507.087 686.13 509.366 693.833 507.768C703.033 505.859 711.386 501.661 719.711 497.454C721.477 496.562 723.331 495.768 725.231 495.238C726.87 494.78 728.665 494.921 729.701 496.574C730.831 498.377 729.703 499.806 728.445 500.936C725.276 503.781 722.011 506.518 718.21 509.793C722.634 510.03 725.434 507.668 728.651 506.753C730.565 506.208 732.371 505.266 734.295 504.777C736.711 504.162 739.776 501.503 741.529 504.294C743.615 507.613 739.864 509.585 737.786 511.469C734.223 514.698 729.971 517.002 725.425 519.479C727.47 520.442 729.064 519.566 730.72 519.364C733.075 519.076 736.472 517.455 737.558 519.915C738.805 522.742 735.354 524.375 733.265 525.758C729.559 528.212 725.593 530.275 721.601 532.58C723.658 533.662 725.373 532.084 727.202 532.092C729.243 532.102 731.985 530.993 732.694 533.916C733.313 536.465 730.756 537.098 728.975 537.831C720.21 541.439 711.468 545.116 702.614 548.497C680.871 556.799 659.269 565.767 636.436 570.536C620.223 573.922 603.724 576.807 586.931 574.117C579.892 572.989 573.654 569.942 566.754 566.753C565.851 566.657 565.65 566.515 565.185 566.111C562.251 561.406 559.984 556.789 558.833 551.311C561.827 538.653 567.917 527.779 574.445 517.126C576.527 513.728 578.669 510.337 581.641 507.104C581.837 506.786 581.919 506.86 581.872 506.89C582.164 506.783 582.454 506.577 582.791 506.05C582.887 505.797 582.939 505.904 582.88 505.915C583.21 505.762 583.516 505.498 583.81 504.846C584.655 503.626 585.442 502.71 586.497 501.643C588.862 502.182 589.129 504.345 590.428 506.066C590.721 506.474 590.839 506.634 591.136 507.029C591.434 507.416 591.554 507.569 591.851 507.951C592.138 508.337 592.249 508.494 592.507 508.896C592.844 509.473 593.042 509.799 593.438 510.344C593.764 510.712 593.902 510.856 594.258 511.218C594.625 511.585 594.775 511.734 595.149 512.118C599.202 517.218 603.249 521.868 608.971 526.05C606.614 523.73 603.678 523.022 603.652 519.589Z" fill="#FE6C6C"/>
    <path d="M497.633 413.712C498.259 416.023 498.647 418.074 499.13 420.502C499.41 422.039 498.746 422.796 497.89 423.335C486.533 430.48 474.44 433.062 461.321 429.157C460.519 428.919 459.786 428.533 458.97 427.572C456.082 425.021 453.048 423.233 450.817 420.013C450.241 418.687 450.464 417.704 450.999 416.865C456.915 407.573 458.625 397.418 457.441 386.255C458.342 379.159 458.339 379.181 451.811 378.134C450.343 377.899 448.885 377.526 447.463 377.083C443.515 375.854 440.457 373.564 440.439 369.102C440.419 364.384 444.601 364.771 447.65 364.112C447.65 363.592 447.779 363.14 447.631 363.015C443.378 359.417 444.978 357.285 448.83 354.242C461.899 343.918 473.309 331.792 484.992 319.59C498.989 329.774 512.267 340.346 516.125 358.353C518.975 371.659 511.571 386.854 498.975 393.082C498.422 393.162 498.198 393.239 497.671 393.503C488.913 394.67 480.738 392.678 472.987 391.588C473.728 391.956 475.159 391.952 476.674 392.789C483.902 399.677 490.779 406.434 497.633 413.712Z" fill="#FD6B6B"/>
    <path d="M500.921 586.947C479.634 592.824 459.022 600.742 438.594 610.192C435.433 582.653 432.638 555.055 429.808 527.46C429.657 525.987 429.217 524.543 428.735 522.517C427.714 519.419 427.343 516.89 428.882 514.165C430.415 512.705 430.976 511.165 431.118 509.063C433.523 507.644 433.331 505.174 434.14 503.284C437.104 496.359 439.354 489.048 445.384 483.578C447.024 490.726 443.706 497.473 443.846 504.682C444.258 525.786 450.074 545.069 461.437 562.767C462.331 564.161 463.177 565.586 464.196 567.36C463.838 569.028 462.566 569.623 461.69 570.586C458.95 573.599 458.817 577.4 461.374 579.825C463.815 582.139 467.387 581.997 470.261 579.458C471.123 578.696 471.732 577.685 472.961 576.816C479.773 581.203 487.443 582.323 494.878 584.178C496.905 584.683 499.067 585.118 500.921 586.947Z" fill="#CDCBD0"/>
    <path d="M501.935 421.775C516.768 425.476 531.064 429.587 544.24 436.844C545.109 437.322 545.95 437.851 546.994 438.648C530.166 439.788 514.599 433.969 498.974 428.43C498.034 428.097 497.195 427.496 496.931 425.992C497.359 422.999 499.503 422.357 501.935 421.775Z" fill="#1F546A"/>
    <path d="M402.846 520.626C398.563 523.635 394.155 526.34 389.413 529.156C386.806 517.471 380.618 507.341 375.253 496.867C373.974 494.371 372.488 491.982 371.123 489.174C376.357 492.178 379.892 497.285 384.246 501.541C390.524 507.679 396.574 514.05 402.846 520.626Z" fill="#E14548"/>
    <path d="M581.515 506.879C579.906 513.028 575.169 517.615 572.123 523.221C567.307 532.081 562.904 541.085 559.679 551.093C555.079 546.801 554.504 540.712 553.799 534.433C563.088 525.065 572.141 516.019 581.515 506.879Z" fill="#E14548"/>
    <path d="M553.846 533.762C555.185 539.866 557.148 545.371 559.359 551.177C561.528 556.123 563.499 560.753 565.746 565.594C566.202 566.106 566.401 566.396 566.77 566.889C566.919 567.106 566.847 567.018 566.795 567.04C569.484 574.816 574.589 581.388 577.408 589.189C572.523 584.704 570.48 578.281 566.364 572.921C564.726 567.652 561.953 563.146 559.844 558.366C554.196 545.566 550.427 532.243 548.237 518.457C547.999 516.954 547.282 515.271 549.228 513.045C550.793 520.248 552.224 526.831 553.846 533.762Z" fill="#191919"/>
    <path d="M429.109 513.5C428.921 516.506 428.669 519.051 428.488 521.773C427.492 529.575 427.226 537.335 425.071 544.778C424.645 544.736 424.219 544.694 423.793 544.653C424.791 535.283 425.789 525.913 426.716 516.061C427.646 507.53 426.064 499.516 426.545 491.421C429.4 498.386 428.902 505.754 429.109 513.5Z" fill="#191919"/>
    <path d="M502.494 421.582C500.607 422.984 498.934 424.065 497.067 425.38C486.378 430.975 475.433 433.714 463.664 430.976C461.678 430.514 458.886 430.921 458.536 427.529C473.107 432.317 486.368 429.811 499.006 421.167C501.331 419.42 503.436 417.961 505.896 416.258C506.497 419.39 503.876 419.855 502.494 421.582Z" fill="#191919"/>
    <path d="M473.259 576.321C470.581 581.906 466.778 583.77 462.627 581.887C459.105 580.289 457.438 575.8 459.05 572.138C459.968 570.054 461.548 568.66 464.038 567.846C470.761 568.065 472.62 569.79 473.259 576.321Z" fill="#CDCBD0" fill-opacity="0.741176"/>
    <path d="M534.447 546.343C537.673 543.461 540.929 543.017 544.226 545.21C546.744 546.884 547.908 549.399 547.349 552.492C546.76 555.753 544.769 557.778 541.596 558.586C538.756 559.308 536.275 558.362 534.479 556.222C531.941 553.199 532.039 549.888 534.447 546.343Z" fill="#F4F4F4"/>
    <path d="M400.781 461.705C401.535 456.116 404.314 453.166 408.44 453.547C412.586 453.93 415.238 456.368 415.486 460.523C415.732 464.663 413.481 467.581 409.334 468.227C404.712 468.947 401.791 466.694 400.781 461.705Z" fill="#F4F4F4"/>
    <path d="M505.463 460.872C499.976 457.903 498.353 454.032 500.568 450.038C502.632 446.316 507.16 444.98 510.788 447.133C513.813 448.928 515.113 451.722 514.297 455.114C513.259 459.435 510.255 461.308 505.463 460.872Z" fill="#F4F4F4"/>
    <path d="M472.631 515.784C474.557 511.412 477.8 510.189 481.796 511.148C485.048 511.927 486.751 514.377 487.025 517.685C487.369 521.83 483.97 525.562 479.847 525.691C475.052 525.841 472.087 521.996 472.631 515.784Z" fill="#F4F4F4"/>
    <path d="M566.715 494.501C569.034 498.836 568.121 502.272 564.512 504.745C561.215 507.004 557.87 506.442 555.126 503.581C552.499 500.84 552.401 497.632 554.334 494.496C557.007 490.162 561.978 490.093 566.715 494.501Z" fill="#F4F4F4"/>
    <path d="M603.804 519.243C604.913 523.393 609.751 523.975 611.391 527.658C603.549 524.907 598.948 518.494 594.002 511.924C593.608 511.555 593.473 511.439 593.142 511.139C592.947 510.956 592.986 511.049 593.036 511.037C592.596 510.6 592.533 509.979 592.166 509.174C591.985 508.933 591.987 509.011 592.026 509.013C591.81 508.788 591.565 508.551 591.19 508.09C591.051 507.876 591.033 507.974 591.082 507.976C589.696 505.732 588.595 503.355 588.371 500.284C588.793 499.393 589.122 498.891 589.738 498.294C592.534 505.383 595.862 512.088 601.597 517.721C602.345 518.327 602.936 518.512 603.712 518.941C603.892 519.195 603.824 519.214 603.804 519.243Z" fill="#191919"/>
    <path d="M445.798 483.221C440.015 490.11 437.082 498.099 434.269 506.161C433.833 507.411 434.303 509.667 431.433 508.878C433.998 499.728 437.126 490.897 442.944 483.318C444.246 481.622 444.285 481.652 445.798 483.221Z" fill="#191919"/>
    <path d="M588.272 500.046C589.435 502.34 590.405 504.783 591.254 507.602C588.828 506.704 588.496 504.091 586.968 501.822C587.204 501.06 587.642 500.628 588.272 500.046Z" fill="#F4F4F4"/>
    <path d="M370.18 487.634C369.823 487.541 369.442 487.162 369.004 486.504C369.35 486.6 369.753 486.974 370.18 487.634Z" fill="#E14548"/>
    <path d="M371.115 488.641C370.848 488.738 370.549 488.542 370.169 488.082C370.419 487.994 370.752 488.17 371.115 488.641Z" fill="#E14548"/>
    <path d="M583.612 504.706C583.707 504.914 583.546 505.285 583.103 505.792C583 505.575 583.178 505.222 583.612 504.706Z" fill="#E14548"/>
    <path d="M582.611 505.872C582.711 506.113 582.535 506.43 582.092 506.833C581.995 506.595 582.165 506.271 582.611 505.872Z" fill="#E14548"/>
    <path d="M378.985 540.107C379.771 540.144 380.981 539.824 381.252 540.193C382.077 541.318 380.775 541.775 380.117 542.339C374.438 547.205 369.821 552.861 366.907 560.167C364.141 563.758 364.23 568.189 362.306 572.058C359.864 566.427 367.241 551.305 376.999 541.293C377.526 540.528 378.104 540.531 378.836 540.213C379.064 540.064 378.979 540.065 378.985 540.107Z" fill="#191919"/>
    <path d="M434.114 673.386C432.409 672.162 430.096 672.042 429.608 669.221C432.18 669.381 433.877 670.597 435.325 672.009C436.268 672.929 435.21 673.313 434.114 673.386Z" fill="#241A01"/>
    <path d="M428.689 679.979C426.649 679.009 424.35 678.765 423.495 676.411C427.635 676.588 428.098 676.891 428.689 679.979Z" fill="#241A01"/>
    <path d="M441.757 665.07C438.937 666.218 437.496 664.32 435.384 662.333C438.585 661.541 440.098 663.301 441.757 665.07Z" fill="#241A01"/>
    <path d="M442.601 692.407C441.732 692.201 441.09 691.777 440.449 691.353C441.233 691.319 442.017 691.284 443.024 691.483C443.108 691.874 442.969 692.031 442.601 692.407Z" fill="white"/>
    <path d="M378.788 539.851C378.912 540.787 378.407 540.991 377.443 540.973C377.247 540.175 377.852 539.879 378.788 539.851Z" fill="#FDFDFD"/>
    <path d="M452.861 685.75C452.336 686.148 451.716 686.264 451.504 685.423C451.927 685.435 452.349 685.448 452.861 685.75Z" fill="white"/>
    <path d="M453.904 687.095C453.425 687.057 453.137 686.825 452.901 686.317C452.952 686.041 452.984 686.014 453 686C453.362 686.042 453.708 686.099 454.259 686.326C454.341 686.631 454.219 686.766 453.904 687.095Z" fill="white"/>
    <path d="M190.819 348.842C194.084 335.575 203.239 328.741 215.795 329.843C226.395 330.773 235.223 339.852 235.939 350.56C236.838 364 226.295 375.144 212.823 374.993C199.258 374.842 189.433 363.37 190.819 348.842Z" fill="#1FD08C"/>
    <path d="M1024.35 588.028C1053.76 582.68 1079.68 602.193 1085.09 628.39C1090.87 656.332 1072.65 684.674 1045.26 689.987C1015.62 695.736 987.935 677.103 982.962 648.052C978.182 620.132 995.143 595.295 1024.35 588.028Z" fill="#1FD08C"/>
    <path d="M291.108 982.731C285.16 1000.32 269.768 1010.06 252.866 1007.26C235.852 1004.45 223.908 990.3 223.989 973.056C224.075 954.674 239.12 939.526 257.649 939.166C275.866 938.812 291.443 953.306 292.281 971.473C292.45 975.122 292.45 978.798 291.108 982.731Z" fill="#1FD08C"/>
    <path d="M1012.3 910.126C1011.36 903.352 1012.82 899.873 1017.19 898.102C1021.19 896.486 1024.76 897.411 1027.61 900.522C1031.24 904.484 1030.61 910.51 1026.42 913.76C1021.75 917.373 1016.7 916.193 1012.3 910.126Z" fill="#FDFDFD"/>
    <path d="M1103.9 256.479C1104.34 273.448 1096.12 286.066 1081.72 291.024C1068.14 295.695 1053.43 291.158 1044.75 279.622C1036.68 268.912 1035.93 254.503 1042.83 243.029C1049.65 231.702 1062.96 225.282 1075.52 227.266C1089.54 229.481 1100.07 239.172 1103.09 252.639C1103.35 253.774 1103.61 254.908 1103.9 256.479Z" fill="#1FD08C"/>
    <path d="M431.392 178.071C441.309 181.383 446.574 187.361 446.629 195.858C446.679 203.596 443.193 209.587 436.117 213.13C429.362 216.513 421.262 215.394 415.683 210.453C409.617 205.081 407.706 197.218 410.626 189.644C413.353 182.568 419.828 178.039 427.493 177.881C428.652 177.857 429.813 177.971 431.392 178.071Z" fill="#FDFDFD"/>
    <path d="M962.892 186.214C967.606 193.264 967.833 199.336 963.847 204.984C960.359 209.927 954.075 212.289 948.026 210.932C942.029 209.586 937.444 204.523 936.399 198.092C935.427 192.114 938.779 185.743 944.442 182.8C950.652 179.573 956.845 180.646 962.892 186.214Z" fill="#1FD08C"/>
    <path d="M473.117 896.247C479.695 889.303 486.974 887.323 494.434 890.203C501.287 892.848 505.894 899.341 506.092 906.667C506.312 914.802 502.756 920.709 495.441 924.227C488.146 927.735 479.557 925.923 474.088 919.892C468.081 913.268 467.659 904.938 473.117 896.247Z" fill="#FDFDFD"/>
    <path d="M285.411 888.449C281.812 891.444 278.263 891.924 274.676 889.385C271.896 887.417 270.547 884.559 271.258 881.176C271.995 877.67 274.23 875.324 277.822 874.496C281.29 873.696 284.104 875.048 286.101 877.704C288.712 881.175 288.418 884.784 285.411 888.449Z" fill="#F4F4F4"/>
    <path d="M242.596 667.61C240.204 664.824 239.429 662.108 241.323 659.131C242.898 656.654 245.181 655.57 248.124 655.996C250.897 656.398 252.516 658.151 253.465 660.637C254.494 663.334 253.518 665.659 251.6 667.41C248.944 669.834 245.905 669.768 242.596 667.61Z" fill="#1FD08C"/>
    <path d="M167.95 262.173C169.039 258.654 171.205 257.247 174.453 257.673C177.069 258.015 178.675 259.638 179.051 262.179C179.574 265.71 177.817 268.219 174.438 268.672C170.228 269.235 167.945 266.903 167.95 262.173Z" fill="#F4F4F4"/>
    <path d="M1021.47 317.42C1024.02 316.173 1025.83 316.453 1026.19 319.168C1026.46 321.177 1025.22 322.449 1023.23 322.159C1020.61 321.777 1020.18 319.992 1021.47 317.42Z" fill="#F4F4F4"/>
    <path d="M612.62 385.166C610.602 376.644 612.282 371.423 617.918 367.79C622.746 364.677 629.251 364.898 633.776 368.329C638.364 371.806 640.513 377.796 638.813 383.404C637.202 388.717 633.645 392.195 628.022 393.175C621.397 394.329 616.786 391.965 612.62 385.166Z" fill="#1FD08C"/>
    <path d="M497.919 413.507C493.961 412.848 492.09 409.28 489.391 406.747C485.198 402.813 481.295 398.569 477.157 394.135C481.186 391.903 485.339 393.995 489.496 393.825C491.748 393.733 494.027 394.299 496.606 393.298C497.231 393.052 497.513 393.057 498.222 393.073C498.42 399.737 498.193 406.39 497.919 413.507Z" fill="#E14548"/>
    <path d="M603.874 518.844C603.015 519.801 602.645 519.008 602.012 518.226C602.535 518.091 603.195 518.292 603.874 518.844Z" fill="#FE6C6C"/>
    <path d="M687.104 517.855C688.316 515.994 687.368 513.805 688.916 512.428C692.226 518.93 681.717 534.319 672.047 536.375C678.216 531.264 684.333 526.113 687.104 517.855Z" fill="#191919"/>
    <path d="M692.298 533.117C697.428 533.066 702.149 532.724 706.424 535.569C699.633 535.285 692.886 534.747 685.173 536.509C687.31 533.031 689.821 533.669 692.298 533.117Z" fill="#241A01"/>
    <path d="M592.062 509.233C592.353 509.421 592.721 509.908 593.087 510.711C592.77 510.528 592.455 510.03 592.062 509.233Z" fill="#F4F4F4"/>
    <path d="M717.3 510.676C717.309 510.44 717.511 510.388 717.712 510.336C717.639 510.511 717.566 510.686 717.3 510.676Z" fill="#FFFEFE"/>
    <path d="M567.01 566.797C566.637 566.884 566.354 566.662 566.047 566.122C566.382 566.032 566.741 566.259 567.01 566.797Z" fill="#FFFEFE"/>
    <path d="M591.064 508.179C591.364 508.041 591.677 508.206 592.027 508.693C591.736 508.837 591.407 508.659 591.064 508.179Z" fill="#F4F4F4"/>
    <path d="M593.12 511.025C593.281 510.826 593.516 510.926 593.698 511.464C593.559 511.506 593.409 511.314 593.12 511.025Z" fill="#F4F4F4"/>
    <path d="M715.409 511.358C715.676 511.342 715.773 511.439 715.869 511.536C715.659 511.515 715.449 511.493 715.409 511.358Z" fill="#FFFEFE"/>
    <path d="M496.513 392.98C496.857 395.834 494.719 394.911 493.271 394.971C488.11 395.186 483.01 394.432 477.476 393.806C474.242 392.406 470.575 393.027 468.368 389.909C477.568 391.659 486.766 392.859 496.513 392.98Z" fill="#241A01"/>
    <path d="M499.655 349.419C505.858 355.024 505.449 359.388 498.766 361.985C498.666 361.716 498.399 361.329 498.493 361.195C502.974 354.809 502.942 354.856 496.542 349.737C494.675 348.244 492.24 347.29 490.818 344.397C494.978 344.449 496.685 347.728 499.655 349.419Z" fill="#241A01"/>
    <path d="M478.32 353.785C477.228 352.295 476.081 350.947 477.884 349.776C478.985 349.061 480.051 349.937 480.912 350.725C481.949 351.674 482.696 352.953 481.936 354.195C480.969 355.775 479.695 354.766 478.32 353.785Z" fill="#191919"/>
    <path d="M498.649 342.002C497.369 340.187 495.676 338.306 498.202 336.977C499.69 336.195 500.841 337.93 501.273 339.337C501.852 341.221 501.948 343.064 498.649 342.002Z" fill="#241A01"/>
    <path d="M460.876 576.704C461.118 570.693 464.694 568.121 468.601 570.704C470.578 572.012 471.459 573.926 470.99 576.281C470.608 578.196 469.494 579.625 467.513 580.075C464.629 580.73 462.243 580.117 460.876 576.704Z" fill="#1F546A"/>
    <path d="M537.145 555.745C534.382 553.248 534.044 550.613 535.997 547.959C537.56 545.835 539.858 545.375 542.244 546.509C544.637 547.646 545.766 549.769 545.095 552.285C544.035 556.261 541.371 557.554 537.145 555.745Z" fill="#1F546A"/>
    <path d="M408.023 455.782C412.153 456.216 413.595 458.48 413.169 461.977C412.843 464.649 411.047 466.076 408.436 466.179C405.637 466.29 403.504 464.971 403.035 462.12C402.469 458.676 403.921 456.338 408.023 455.782Z" fill="#1F546A"/>
    <path d="M512.251 453.137C512.136 456.934 510.346 458.898 506.978 458.871C504.141 458.848 502.35 457.11 501.945 454.273C501.532 451.378 502.901 449.282 505.637 448.558C509.112 447.639 511.416 449.138 512.251 453.137Z" fill="#1F546A"/>
    <path d="M481.485 513.228C484.576 514.842 485.661 517.104 484.589 520.028C483.689 522.486 481.727 523.588 479.064 523.335C476.569 523.098 475.158 521.575 474.519 519.328C473.462 515.611 476.04 513.216 481.485 513.228Z" fill="#1F546A"/>
    <path d="M557.966 503.19C554.906 500.771 554.233 498.082 556.457 495.246C557.987 493.294 560.186 492.527 562.641 493.749C565.147 494.996 566.552 497.095 565.658 499.79C564.516 503.233 562.025 504.794 557.966 503.19Z" fill="#1F546A"/>
    <path d="M616.53 383.028C615.571 376.203 617.481 372.308 622.27 370.596C626.457 369.099 631.271 370.769 633.551 374.51C636.282 378.99 634.934 384.762 630.499 387.581C625.622 390.681 620.473 389.11 616.53 383.028Z" fill="#F4F4F4"/>
    </g>
    <defs>
    <clipPath id="clip0_2_2">
    <rect width="1200" height="1200" fill="white"/>
    </clipPath>
    </defs>
    </svg>
    