<svg xmlns="http://www.w3.org/2000/svg" data-name="Layer 1" width="846.67004" height="497.80337" viewBox="0 0 846.67004 497.80337" xmlns:xlink="http://www.w3.org/1999/xlink"><path d="M313.74006,257.809a25.66667,25.66667,0,0,0-25.6377,25.63769V562.17127a25.66668,25.66668,0,0,0,25.6377,25.6377H891.46467a25.66667,25.66667,0,0,0,25.63769-25.6377V283.44666A25.66666,25.66666,0,0,0,891.46467,257.809Z" transform="translate(-176.66498 -201.09832)" fill="#fff"/><path d="M891.46467,588.809H313.74006a26.668,26.668,0,0,1-26.6377-26.6377V283.44666a26.668,26.668,0,0,1,26.6377-26.63769H891.46467a26.668,26.668,0,0,1,26.63769,26.63769V562.17127A26.668,26.668,0,0,1,891.46467,588.809Zm-577.72461-330a24.66537,24.66537,0,0,0-24.6377,24.63769V562.17127a24.66538,24.66538,0,0,0,24.6377,24.6377H891.46467a24.66537,24.66537,0,0,0,24.63769-24.6377V283.44666A24.66536,24.66536,0,0,0,891.46467,258.809Z" transform="translate(-176.66498 -201.09832)" fill="#3f3d56"/><path d="M176.665,532.21069a1.18647,1.18647,0,0,0,1.19006,1.19h844.29a1.19,1.19,0,0,0,0-2.38H177.855A1.18651,1.18651,0,0,0,176.665,532.21069Z" transform="translate(-176.66498 -201.09832)" fill="#ccc"/><path d="M848.65424,219.13887c-2.42692-18.59978-45.32926-17.41328-49.38014.08608-2.149-1.344-7.6151-.41373-9.65378,1.1311s-3.34526,3.81585-4.62472,6.0204c-1.74633,3.062-3.55682,6.23354-3.94332,9.74441-.40322,3.50408.9738,7.47361,4.15053,9.0339,2.52012,1.24338,8.06567.40374,10.8361-.15291,1.93321-.38435,3.55582-.721,4.933-1.0511a9.47428,9.47428,0,0,0-.90152-6.41525A7.68965,7.68965,0,0,1,805.347,241.439c.21715.41871,8.07715,59.5855,8.07715,59.5855a34.14394,34.14394,0,0,0,6.47573.16162,74.297,74.297,0,0,0,.72332-22.07656,64.33424,64.33424,0,0,1,5.36885,13.24912,78.6534,78.6534,0,0,1,1.82211,7.82022c18.70606-3.49791,43.99269-15.546,48.60648-36.00359q-.038-.099-.07645-.19794a2.9059,2.9059,0,0,1,4.78372-3.10718c.56394.58039,1.067,1.0765,1.4914,1.46091C880.97968,249.26651,871.06988,237.51023,848.65424,219.13887Z" transform="translate(-176.66498 -201.09832)" fill="#2f2e41"/><polygon points="398.857 473.567 388.37 468.084 405 424.121 420.479 432.214 398.857 473.567" fill="#a0616a"/><path d="M533.20506,674.13544a5.29792,5.29792,0,0,0,2.23593,7.14174l20.8529,10.90054,7.47233-5.55376-2.479,8.159,7.8653,4.11873,11.64879-27.6625-2.65554-1.59094L567.328,663.13208l-3.49369-2.09513-3.92393,7.50513-22.66708,2.79452A5.289,5.289,0,0,0,533.20506,674.13544Z" transform="translate(-176.66498 -201.09832)" fill="#2f2e41"/><polygon points="388.113 311.722 380.485 302.674 412.533 268.29 423.791 281.644 388.113 311.722" fill="#a0616a"/><path d="M525.81687,496.296a5.29792,5.29792,0,0,0-.63678,7.45643l15.16785,17.98892,9.01949-2.30839-5.38556,6.61135,5.71826,6.7918,21.26153-21.18621-1.85473-2.4785-7.54221-10.12915-2.43934-3.26267-6.47506,5.45875-22.0358-6.00239A5.289,5.289,0,0,0,525.81687,496.296Z" transform="translate(-176.66498 -201.09832)" fill="#2f2e41"/><path d="M901.19661,478.91611s32.38616,69.31912-101.72943,50.64018c0,0-71.45446-79.18781-69.39008-88.71558,0,0-30.41185-30.90259-28.92373-31.46518s2.40611-1.78452-.05289-1.67355-2.459-3.5495-2.459-3.5495-54.96128,59.603-101.23992,89.17957l-16-18s6.23992-19.5191,9.23992-19.5191,4.03394.721,4.517-3.13951-1.906-7.17545,1.28854-7.518,69.40237-77.72218,69.40237-77.72218,7.14325-25.48687,28.96768-20.55361,135.23,97.13406,135.23,97.13406Z" transform="translate(-176.66498 -201.09832)" fill="#2f2e41"/><path d="M846.58277,531.80243l-177.1812-1.47038-77,122L570.64149,640.813l4.82369-2.036s-1.4603-16.95646.32864-21.24911,7.11076-3.00129,7.11076-3.00129l44.89283-103.52875a43.43477,43.43477,0,0,1,44.694-29.42261c37.14648-5.41748,97.44629-1.08887,160.0918,4.22705Z" transform="translate(-176.66498 -201.09832)" fill="#2f2e41"/><path d="M744.00023,324.17135a13.09822,13.09822,0,0,1,11.01188,14.5774,12.56608,12.56608,0,0,1-.46,2.02574L790.959,368.39l-7.51294,23.40381-45.78293-43.22188a13.06187,13.06187,0,0,1-8.07424-13.75137,12.50016,12.50016,0,0,1,14.0718-10.70016Q743.8308,324.14355,744.00023,324.17135Z" transform="translate(-176.66498 -201.09832)" fill="#a0616a"/><path d="M904.6128,325.8952l-13.09,36.24-51.19,72.34s-.42-.18-1.18-.5c-4.4-1.9-20.38-8.88-35.41-16.81-14.11-7.45-27.4-15.74-29.46-21.44q-.33-.9-.6-1.74v-.01a37.51139,37.51139,0,0,1-1.79-8.96c-.17-2.35-.02-3.61-.34-3.76-.25-.11-.77.43-1.92,1.65-.08.08-.15.16-.23.23-4.16,4.17005-9.27,3.63-8.02,1.65,1.28-2.03.61-1.99-1.27-4.11-1.4-1.58-5.95-7.76-8.19-10.81-.77-1.05-1.26-1.73-1.26-1.73l.76995-1.21,2.13-3.34,10.13-15.88.56-.87s20.82,4.81,23.59,9.38c2.78,4.57-4.19,4.42,2.78,4.57,6.97.15,14.08-9.33,8.99.1-5.09,9.42005-3.75,12.71,2.55,11.22,2.56-.61,6.61,1.32,10.51,3.82v.01a82.53159,82.53159,0,0,1,7.05,5.12994c2.41,1.94,4.04,3.41,4.04,3.41l39.54-80.22,4.38-8.88a22.668,22.668,0,0,1,13.26-11.5l1.37,2.39A271.15657,271.15657,0,0,1,904.6128,325.8952Z" transform="translate(-176.66498 -201.09832)" fill="#1fd08c"/><path d="M906.80274,440.91522c12.12006,2.82-.77383,91.04484-15.22,91.32-105,2-73.03-56.91-78.66-62.55-5.63-5.65-10.71-1.6-5.63-10.39,3.7-6.4,9.19-5.45,9.27-9.04.04-1.34-.67-3.3-2.51-6.52-6.76-11.84-6.76-15.37-6.76-15.37a43.43941,43.43941,0,0,1-3.55-11.2,53.18549,53.18549,0,0,1-.4-17.48,56.83055,56.83055,0,0,1,9.33-23.75v-.01c.50994-.76,1.04-1.53,1.6-2.29,1.27-1.73,8.31-1.4,8.31-1.4l15-63-8.68-25.12,41.11-19.26,10.93,19.02,1.37,2.39a271.15657,271.15657,0,0,1,22.3,39.63c6.06994,13.51,11.06,28.51,11.24,41.56.48,34.03-5.39,44.15-5.39,44.15s14.25,10.65,7.12,17.16C910.46277,435.28522,894.68274,438.09521,906.80274,440.91522Z" transform="translate(-176.66498 -201.09832)" fill="#1fd08c"/><path d="M720.56314,315.883l-6.70765,5.09521a6.30367,6.30367,0,0,0-1.19153,8.81853l16.15461,21.23364,9.53929,12.52734a6.29316,6.29316,0,0,0,8.80445,1.19l6.71545-5.10149a6.31459,6.31459,0,0,0,1.18373-8.81225l-.9899-1.30853L734.502,323.8134l-5.13439-6.74035A6.28,6.28,0,0,0,720.56314,315.883Z" transform="translate(-176.66498 -201.09832)" fill="#3f3d56"/><path d="M724.071,315.49787l-7.2259,5.04071a5.38709,5.38709,0,0,0-1.17868,7.9711l9.45779,11.396,5.04015,6.07081,3.36278,4.05026,7.52061,9.06117a6.57894,6.57894,0,0,0,8.69141,1.081l5.41452-3.77689,1.80152-1.25655a5.47632,5.47632,0,0,0,2.33833-5.59767,5.4001,5.4001,0,0,0-1.15768-2.38969l-22.2228-26.779-3.15059-3.79018A6.57021,6.57021,0,0,0,724.071,315.49787Z" transform="translate(-176.66498 -201.09832)" fill="#1fd08c"/><path d="M728.68823,343.6436A13.09821,13.09821,0,0,1,739.70011,358.221a12.565,12.565,0,0,1-.46,2.02574L775.647,387.86224l-7.51294,23.4038-45.78293-43.22188a13.06189,13.06189,0,0,1-8.07425-13.75137,12.50018,12.50018,0,0,1,14.07181-10.70016Q728.5188,343.61579,728.68823,343.6436Z" transform="translate(-176.66498 -201.09832)" fill="#a0616a"/><path d="M877.17284,302.68822l0,0a22.61758,22.61758,0,0,1,16.76119,29.84416L876.21525,381.605l-51.19846,72.34645S763.617,428.01634,758.96832,415.1972s-.45081-17.24246-4.64872-12.81915-9.52063,3.89886-8.2463,1.87467.6037-1.981-1.27265-4.10155S735.352,387.6106,735.352,387.6106l13.58821-21.30125s20.82083,4.80643,23.59489,9.37928-4.19791,4.42331,2.77406,4.57284,14.08409-9.334,8.99147.09332-3.74987,12.714,2.55073,11.22016,21.59473,12.37426,21.59473,12.37426l43.92859-89.09964A22.61759,22.61759,0,0,1,877.17284,302.68822Z" transform="translate(-176.66498 -201.09832)" fill="#1fd08c"/><circle cx="827.92841" cy="250.10272" r="32.59204" transform="translate(-111.01969 457.58887) rotate(-45)" fill="#a0616a"/><path d="M866.04,214.59666c-2.42692-18.59978-45.32926-17.41328-49.38014.08608-2.149-1.344-7.6151-.41373-9.65379,1.1311s-3.34525,3.81585-4.62471,6.0204c-1.74633,3.062-13.96731,13.42128-15.79855,10.401-4.12116-6.79709-12.20276,8.05572-6,18,1.48724,2.38437,30.22957-1.44335,33-2,1.93321-.38435-1.37723.3301,0,0,.44491-2.15735,4.93509-13.30366,3.87339-15.24194a7.68965,7.68965,0,0,1,5.27656,3.90345c.21715.41871,8.07715,59.5855,8.07715,59.5855a34.14394,34.14394,0,0,0,6.47573.16162,74.297,74.297,0,0,0,.72332-22.07656,64.33438,64.33438,0,0,1,5.36885,13.24911,78.65425,78.65425,0,0,1,1.82211,7.82023c18.70606-3.49791,43.99269-15.546,48.60648-36.00359C868.58277,251.23523,888.4556,232.968,866.04,214.59666Z" transform="translate(-176.66498 -201.09832)" fill="#2f2e41"/></svg>